BesixdouzeCode-Regular.sfdir
StartChar: dollar
Encoding: 213 36 213
GlifName: dollar
Width: 1300
VWidth: 0
Flags: W
LayerCount: 2
Fore
SplineSet
992 1300 m 257,0,1
NamedP: "pBV"
 954 1331 954 1331 886.5 1356.5 c 0,2,3
 819 1382 819 1382 746 1388 c 257,4,-1
 746 863 l 257,5,6
 801 837 801 837 838.5 817.5 c 0,7,8
 876 798 876 798 924.5 768 c 0,9,10
 973 738 973 738 1004.5 706.5 c 0,11,12
 1036 675 1036 675 1065.5 634 c 0,13,14
 1095 593 1095 593 1109 542 c 0,15,16
 1123 491 1123 491 1123 432 c 256,17,18
 1123 251 1123 251 1020.5 138.5 c 0,19,20
 918 26 918 26 746 -5 c 257,21,-1
 746 -200 l 257,22,-1
 600 -200 l 257,23,-1
 600 -17 l 257,24,25
 490 -15 490 -15 382 19 c 0,26,27
 274 53 274 53 205 100 c 257,28,-1
 323 241 l 257,29,30
 354 221 354 221 371.5 210.5 c 0,31,32
 389 200 389 200 426.5 182.5 c 0,33,34
 464 165 464 165 507.5 156.5 c 0,35,36
 551 148 551 148 600 148 c 257,37,-1
 600 721 l 257,38,39
 549 746 549 746 520 761 c 0,40,41
 491 776 491 776 445.5 802.5 c 0,42,43
 400 829 400 829 373 850 c 0,44,45
 346 871 346 871 314 902 c 0,46,47
 282 933 282 933 264.5 963.5 c 0,48,49
 247 994 247 994 235 1033.5 c 0,50,51
 223 1073 223 1073 223 1116 c 256,52,53
 223 1217 223 1217 253.5 1293 c 0,54,55
 284 1369 284 1369 338.5 1414.5 c 0,56,57
 393 1460 393 1460 457.5 1484.5 c 0,58,59
 522 1509 522 1509 600 1517 c 257,60,-1
 600 1700 l 257,61,-1
 746 1720 l 257,62,-1
 746 1517 l 257,63,64
 943 1506 943 1506 1086 1400 c 257,65,-1
 992 1300 l 257,0,1
NamedP: "pBV"
933 400 m 256,66,67
 933 483 933 483 877 543.5 c 0,68,69
 821 604 821 604 716 662 c 257,70,-1
 716 158 l 257,71,72
 933 198 933 198 933 400 c 256,66,67
413 1147 m 256,73,74
 413 1071 413 1071 468.5 1019.5 c 0,75,76
 524 968 524 968 630 916 c 257,77,-1
 630 1383 l 257,78,79
 587 1376 587 1376 550.5 1360 c 0,80,81
 514 1344 514 1344 481.5 1317 c 0,82,83
 449 1290 449 1290 431 1246.5 c 0,84,85
 413 1203 413 1203 413 1147 c 256,73,74
EndSplineSet
PickledDataWithLists: "(dp0
Vcom.adobe.type.autohint
p1
(c_codecs
encode
p2
(Vdata
p3
Vlatin1
p4
tp5
Rp6
g2
(V<data>\\u000a        <hintSetList>\\u000a          <hintset pointTag=\"hr00\">\\u000a            <hstem pos=\"-17\" width=\"165\"/>\\u000a            <hstem pos=\"1352\" width=\"165\"/>\\u000a            <hstem pos=\"1719\" width=\"-20\"/>\\u000a            <vstem pos=\"111\" width=\"204\"/>\\u000a            <vstem pos=\"805\" width=\"204\"/>\\u000a          </hintset>\\u000a        </hintSetList>\\u000a      </data>
p7
g4
tp8
Rp9
Ntp10
s."
EndChar
StartChar: parenright
Encoding: 366 41 366
GlifName: parenright
Width: 1300
VWidth: 0
Flags: W
LayerCount: 2
Fore
SplineSet
899 0 m 257,0,1
NamedP: "ah02"
 899 -89 899 -89 890 -166 c 128,-1,2
 881 -243 881 -243 850.5 -299.5 c 128,-1,3
 820 -356 820 -356 760.5 -388 c 128,-1,4
 701 -420 701 -420 599 -420 c 257,5,6
 579 -420 579 -420 558.5 -418.5 c 128,-1,7
 538 -417 538 -417 519.5 -413.5 c 128,-1,8
 501 -410 501 -410 485 -405.5 c 128,-1,9
 469 -401 469 -401 460 -395 c 257,10,-1
 529 -269 l 257,11,-1
 543 -272 l 257,12,13
 550 -273 550 -273 559 -273.5 c 128,-1,14
 568 -274 568 -274 579 -274 c 257,15,16
 623 -274 623 -274 647.5 -253 c 128,-1,17
 672 -232 672 -232 683.5 -196 c 128,-1,18
 695 -160 695 -160 697 -113 c 128,-1,19
 699 -66 699 -66 699 -14 c 257,20,-1
NamedP: "sh01"
 699 1194 l 257,21,22
NamedP: "sh02"
 699 1246 699 1246 697 1293 c 128,-1,23
 695 1340 695 1340 683.5 1376 c 128,-1,24
 672 1412 672 1412 647.5 1433 c 128,-1,25
 623 1454 623 1454 579 1454 c 257,26,27
 568 1454 568 1454 559 1453 c 128,-1,28
 550 1452 550 1452 543 1451 c 257,29,-1
 529 1449 l 257,30,-1
 460 1575 l 257,31,32
 469 1581 469 1581 485 1585.5 c 128,-1,33
 501 1590 501 1590 519.5 1593.5 c 128,-1,34
 538 1597 538 1597 558.5 1598.5 c 128,-1,35
 579 1600 579 1600 599 1600 c 257,36,37
NamedP: "av01"
 701 1600 701 1600 760.5 1568 c 128,-1,38
 820 1536 820 1536 850.5 1479.5 c 128,-1,39
 881 1423 881 1423 890 1346 c 128,-1,40
 899 1269 899 1269 899 1180 c 257,41,-1
NamedP: "ah01"
 899 0 l 257,0,1
NamedP: "ah02"
EndSplineSet
PickledDataWithLists: "(dp0
Vcom.adobe.type.autohint
p1
(c_codecs
encode
p2
(Vdata
p3
Vlatin1
p4
tp5
Rp6
g2
(V<data>\\u000a        <hintSetList>\\u000a          <hintset pointTag=\"ah02\">\\u000a            <hstem pos=\"-420\" width=\"146\"/>\\u000a            <hstem pos=\"1374\" width=\"146\"/>\\u000a            <vstem pos=\"499\" width=\"200\"/>\\u000a          </hintset>\\u000a        </hintSetList>\\u000a      </data>
p7
g4
tp8
Rp9
Ntp10
sVcom.fontlab.ttprogram
p11
(g2
(Vdata
p12
g4
tp13
Rp14
g2
(V<data>\\u000a        <ttProgram>\\u000a          <ttc align=\"round\" code=\"alignh\" point=\"ah01\"/>\\u000a          <ttc align=\"round\" code=\"alignh\" point=\"ah02\"/>\\u000a          <ttc code=\"singleh\" point1=\"ah02\" point2=\"sh01\" stem=\"X: 199\"/>\\u000a          <ttc code=\"singleh\" point1=\"ah01\" point2=\"sh02\" stem=\"X: 199\"/>\\u000a          <ttc align=\"round\" code=\"alignv\" point=\"av01\"/>\\u000a          <ttc align=\"round\" code=\"alignv\" point=\"av02\"/>\\u000a        </ttProgram>\\u000a      </data>
p15
g4
tp16
Rp17
Ntp18
s."
EndChar
StartChar: asterisk
Encoding: 125 42 125
GlifName: asterisk
Width: 1300
VWidth: 0
Flags: W
LayerCount: 2
Fore
SplineSet
768 1037 m 257,0,-1
 847 1040 l 257,1,-1
 1089 1118 l 257,2,-1
 1035 1240 l 257,3,-1
 810 1168 l 257,4,-1
 744 1118 l 257,5,-1
 770 1198 l 257,6,-1
 770 1450 l 257,7,-1
 637 1436 l 257,8,-1
 637 1202 l 257,9,-1
 659 1120 l 257,10,-1
 593 1172 l 257,11,-1
 355 1249 l 257,12,-1
 328 1118 l 257,13,-1
 551 1045 l 257,14,-1
 632 1041 l 257,15,-1
 567 996 l 257,16,-1
 419 793 l 257,17,-1
 535 726 l 257,18,-1
 675 918 l 257,19,-1
 699 990 l 257,20,-1
 723 918 l 257,21,-1
 872 712 l 257,22,-1
 971 802 l 257,23,-1
 831 994 l 257,24,-1
 768 1037 l 257,0,-1
EndSplineSet
EndChar
StartChar: slash
Encoding: 448 47 448
GlifName: slash
Width: 1300
VWidth: 0
Flags: W
LayerCount: 2
Fore
SplineSet
385 -100 m 257,0,-1
NamedP: "av02"
 175 -100 l 257,1,-1
 885 1600 l 257,2,-1
NamedP: "av01"
 1085 1600 l 257,3,-1
 385 -100 l 257,0,-1
NamedP: "av02"
EndSplineSet
PickledDataWithLists: "(dp0
Vcom.adobe.type.autohint
p1
(c_codecs
encode
p2
(Vdata
p3
Vlatin1
p4
tp5
Rp6
g2
(V<data>\\u000a        <hintSetList>\\u000a          <hintset pointTag=\"av02\">\\u000a            <hstem pos=\"-79\" width=\"-21\"/>\\u000a            <hstem pos=\"1600\" width=\"-20\"/>\\u000a          </hintset>\\u000a        </hintSetList>\\u000a      </data>
p7
g4
tp8
Rp9
Ntp10
sVcom.fontlab.ttprogram
p11
(g2
(Vdata
p12
g4
tp13
Rp14
g2
(V<data>\\u000a        <ttProgram>\\u000a          <ttc align=\"round\" code=\"alignv\" point=\"av01\"/>\\u000a          <ttc align=\"round\" code=\"alignv\" point=\"av02\"/>\\u000a        </ttProgram>\\u000a      </data>
p15
g4
tp16
Rp17
Ntp18
s."
EndChar
StartChar: six
Encoding: 447 54 447
GlifName: six
Width: 1300
VWidth: 0
Flags: W
LayerCount: 2
Fore
SplineSet
959 1344 m 257,0,1
NamedP: "sh01"
 952 1346 952 1346 938.5 1346.5 c 128,-1,2
 925 1347 925 1347 914 1347 c 257,3,4
NamedP: "sv01"
 842 1347 842 1347 774 1324.5 c 128,-1,5
 706 1302 706 1302 646 1261 c 128,-1,6
 586 1220 586 1220 535.5 1163 c 128,-1,7
 485 1106 485 1106 446.5 1037.5 c 128,-1,8
 408 969 408 969 383 891 c 128,-1,9
 358 813 358 813 350 730 c 257,10,-1
NamedP: "sh04"
 433 847 l 257,11,12
 458 863 458 863 491.5 877.5 c 128,-1,13
 525 892 525 892 562 903 c 128,-1,14
 599 914 599 914 637 920.5 c 128,-1,15
 675 927 675 927 709 927 c 257,16,17
NamedP: "dv02"
 796 927 796 927 876.5 903 c 128,-1,18
 957 879 957 879 1019.5 829 c 128,-1,19
 1082 779 1082 779 1119.5 700.5 c 128,-1,20
 1157 622 1157 622 1157 513 c 257,21,22
NamedP: "sh05"
 1157 405 1157 405 1120.5 308.5 c 128,-1,23
 1084 212 1084 212 1018 139.5 c 128,-1,24
 952 67 952 67 860 25 c 128,-1,25
 768 -17 768 -17 656 -17 c 257,26,27
NamedP: "ab01"
 558 -17 558 -17 482.5 14.5 c 128,-1,28
 407 46 407 46 351 98 c 128,-1,29
 295 150 295 150 257.5 217 c 128,-1,30
 220 284 220 284 196.5 354.5 c 128,-1,31
 173 425 173 425 163 494 c 128,-1,32
 153 563 153 563 153 620 c 257,33,34
NamedP: "sh02"
 153 739 153 739 177.5 852 c 128,-1,35
 202 965 202 965 248.5 1064.5 c 128,-1,36
 295 1164 295 1164 362 1247.5 c 128,-1,37
 429 1331 429 1331 514.5 1390.5 c 128,-1,38
 600 1450 600 1450 702.5 1483.5 c 128,-1,39
 805 1517 805 1517 923 1517 c 257,40,41
NamedP: "at01"
 938 1517 938 1517 956 1516.5 c 128,-1,42
 974 1516 974 1516 984 1514 c 257,43,-1
NamedP: "at02"
 959 1344 l 257,0,1
NamedP: "sh01"
359 597 m 257,44,45
NamedP: "sh03"
 359 569 359 569 359.5 546 c 128,-1,46
 360 523 360 523 362 501 c 128,-1,47
 364 479 364 479 368 456.5 c 128,-1,48
 372 434 372 434 379 407 c 257,49,50
 393 350 393 350 417.5 303.5 c 128,-1,51
 442 257 442 257 476.5 223.5 c 128,-1,52
 511 190 511 190 556.5 171.5 c 128,-1,53
 602 153 602 153 659 153 c 257,54,55
NamedP: "sv02"
 738 153 738 153 793.5 183 c 128,-1,56
 849 213 849 213 884 262.5 c 128,-1,57
 919 312 919 312 935.5 375 c 128,-1,58
 952 438 952 438 952 503 c 257,59,60
NamedP: "ah01"
 952 566 952 566 933.5 614 c 128,-1,61
 915 662 915 662 881 693.5 c 128,-1,62
 847 725 847 725 799.5 741 c 128,-1,63
 752 757 752 757 694 757 c 257,64,65
NamedP: "dv01"
 640 757 640 757 589 744 c 128,-1,66
 538 731 538 731 493.5 709 c 128,-1,67
 449 687 449 687 414.5 658 c 128,-1,68
 380 629 380 629 359 597 c 257,44,45
NamedP: "sh03"
EndSplineSet
PickledDataWithLists: "(dp0
Vcom.adobe.type.autohint
p1
(c_codecs
encode
p2
(Vdata
p3
Vlatin1
p4
tp5
Rp6
g2
(V<data>\\u000a        <hintSetList>\\u000a          <hintset pointTag=\"sh01\">\\u000a            <hstem pos=\"-17\" width=\"170\"/>\\u000a            <hstem pos=\"757\" width=\"170\"/>\\u000a            <hstem pos=\"1347\" width=\"170\"/>\\u000a            <vstem pos=\"123\" width=\"206\"/>\\u000a            <vstem pos=\"922\" width=\"205\"/>\\u000a          </hintset>\\u000a        </hintSetList>\\u000a      </data>
p7
g4
tp8
Rp9
Ntp10
sVcom.fontlab.ttprogram
p11
(g2
(Vdata
p12
g4
tp13
Rp14
g2
(V<data>\\u000a        <ttProgram>\\u000a          <ttc align=\"round\" code=\"alignh\" point=\"lsb\"/>\\u000a          <ttc align=\"round\" code=\"alignh\" point=\"ah01\"/>\\u000a          <ttc code=\"singleh\" point1=\"ah01\" point2=\"sh01\"/>\\u000a          <ttc code=\"singleh\" point1=\"lsb\" point2=\"sh02\"/>\\u000a          <ttc code=\"singleh\" point1=\"sh02\" point2=\"sh03\" stem=\"X: 208\"/>\\u000a          <ttc code=\"singleh\" point1=\"sh03\" point2=\"sh04\"/>\\u000a          <ttc code=\"singleh\" point1=\"ah01\" point2=\"sh05\" stem=\"X: 208\"/>\\u000a          <ttc code=\"singleh\" point1=\"sh05\" point2=\"rsb\" round=\"true\"/>\\u000a          <ttc code=\"alignt\" point=\"at01\" zone=\"t: 1\"/>\\u000a          <ttc code=\"alignt\" point=\"at02\" zone=\"t: 1\"/>\\u000a          <ttc code=\"alignb\" point=\"ab01\" zone=\"b: 0\"/>\\u000a          <ttc code=\"doublev\" point1=\"dv01\" point2=\"dv02\" stem=\"Y: 171\"/>\\u000a          <ttc code=\"singlev\" point1=\"at01\" point2=\"sv01\" stem=\"Y: 171\"/>\\u000a          <ttc code=\"interpolatev\" point=\"sh04\" point1=\"at01\" point2=\"ab01\"/>\\u000a          <ttc code=\"singlev\" point1=\"ab01\" point2=\"sv02\" stem=\"Y: 171\"/>\\u000a        </ttProgram>\\u000a      </data>
p15
g4
tp16
Rp17
Ntp18
s."
EndChar
StartChar: colon
Encoding: 190 58 190
GlifName: colon
Width: 1300
VWidth: 0
Flags: W
LayerCount: 2
Fore
SplineSet
152 133 m 257,0,1
NamedP: "ah03"
 152 164 152 164 164 191 c 128,-1,2
 176 218 176 218 196 238 c 128,-1,3
 216 258 216 258 242.5 269.5 c 128,-1,4
 269 281 269 281 300 281 c 257,5,6
NamedP: "av03"
 331 281 331 281 358 269.5 c 128,-1,7
 385 258 385 258 405 238 c 128,-1,8
 425 218 425 218 436.5 191 c 128,-1,9
 448 164 448 164 448 133 c 257,10,11
NamedP: "ah04"
 448 102 448 102 436.5 74.5 c 128,-1,12
 425 47 425 47 405 27 c 128,-1,13
 385 7 385 7 358.5 -5 c 128,-1,14
 332 -17 332 -17 302 -17 c 257,15,16
NamedP: "ab01"
 271 -17 271 -17 243.5 -5 c 128,-1,17
 216 7 216 7 196 27 c 128,-1,18
 176 47 176 47 164 74.5 c 128,-1,19
 152 102 152 102 152 133 c 257,0,1
NamedP: "ah03"
152 647 m 257,20,21
NamedP: "ah01"
 152 678 152 678 164 705 c 128,-1,22
 176 732 176 732 196 752 c 128,-1,23
 216 772 216 772 242.5 783.5 c 128,-1,24
 269 795 269 795 300 795 c 257,25,26
NamedP: "av01"
 331 795 331 795 358 783.5 c 128,-1,27
 385 772 385 772 405 752 c 128,-1,28
 425 732 425 732 436.5 705 c 128,-1,29
 448 678 448 678 448 647 c 257,30,31
NamedP: "ah02"
 448 616 448 616 436.5 588.5 c 128,-1,32
 425 561 425 561 405 541 c 128,-1,33
 385 521 385 521 358.5 509 c 128,-1,34
 332 497 332 497 302 497 c 257,35,36
NamedP: "av02"
 271 497 271 497 243.5 509 c 128,-1,37
 216 521 216 521 196 541 c 128,-1,38
 176 561 176 561 164 588.5 c 128,-1,39
 152 616 152 616 152 647 c 257,20,21
NamedP: "ah01"
EndSplineSet
PickledDataWithLists: "(dp0
Vcom.adobe.type.autohint
p1
(c_codecs
encode
p2
(Vdata
p3
Vlatin1
p4
tp5
Rp6
g2
(V<data>\\u000a        <hintSetList>\\u000a          <hintset pointTag=\"ah03\">\\u000a            <hstem pos=\"-17\" width=\"218\"/>\\u000a            <hstem pos=\"480\" width=\"218\"/>\\u000a            <vstem pos=\"191\" width=\"216\"/>\\u000a          </hintset>\\u000a        </hintSetList>\\u000a      </data>
p7
g4
tp8
Rp9
Ntp10
sVcom.fontlab.ttprogram
p11
(g2
(Vdata
p12
g4
tp13
Rp14
g2
(V<data>\\u000a        <ttProgram>\\u000a          <ttc align=\"round\" code=\"alignh\" point=\"ah01\"/>\\u000a          <ttc align=\"round\" code=\"alignh\" point=\"ah02\"/>\\u000a          <ttc align=\"round\" code=\"alignh\" point=\"ah03\"/>\\u000a          <ttc align=\"round\" code=\"alignh\" point=\"ah04\"/>\\u000a          <ttc align=\"round\" code=\"alignv\" point=\"av01\"/>\\u000a          <ttc align=\"round\" code=\"alignv\" point=\"av02\"/>\\u000a          <ttc align=\"round\" code=\"alignv\" point=\"av03\"/>\\u000a          <ttc code=\"alignb\" point=\"ab01\" zone=\"b: 0\"/>\\u000a        </ttProgram>\\u000a      </data>
p15
g4
tp16
Rp17
Ntp18
s."
EndChar
StartChar: semicolon
Encoding: 438 59 438
GlifName: semicolon
Width: 1300
VWidth: 0
Flags: W
LayerCount: 2
Fore
SplineSet
152 641 m 257,0,1
NamedP: "ah01"
 152 672 152 672 164 699 c 128,-1,2
 176 726 176 726 196 746 c 128,-1,3
 216 766 216 766 242.5 777.5 c 128,-1,4
 269 789 269 789 300 789 c 257,5,6
NamedP: "av01"
 331 789 331 789 358 777.5 c 128,-1,7
 385 766 385 766 405 746 c 128,-1,8
 425 726 425 726 436.5 699 c 128,-1,9
 448 672 448 672 448 641 c 257,10,11
NamedP: "ah02"
 448 610 448 610 436.5 582.5 c 128,-1,12
 425 555 425 555 405 535 c 128,-1,13
 385 515 385 515 358.5 503 c 128,-1,14
 332 491 332 491 302 491 c 257,15,16
NamedP: "av02"
 271 491 271 491 243.5 503 c 128,-1,17
 216 515 216 515 196 535 c 128,-1,18
 176 555 176 555 164 582.5 c 128,-1,19
 152 610 152 610 152 641 c 257,0,1
NamedP: "ah01"
152 127 m 257,20,21
NamedP: "ah03"
 152 156 152 156 163.5 182.5 c 128,-1,22
 175 209 175 209 195.5 228 c 128,-1,23
 216 247 216 247 243 259 c 128,-1,24
 270 271 270 271 300 271 c 257,25,26
NamedP: "av03"
 329 271 329 271 355.5 260.5 c 128,-1,27
 382 250 382 250 402.5 230 c 128,-1,28
 423 210 423 210 435.5 179.5 c 128,-1,29
 448 149 448 149 448 110 c 257,30,31
NamedP: "ah04"
 448 57 448 57 441.5 7.5 c 128,-1,32
 435 -42 435 -42 414.5 -93 c 128,-1,33
 394 -144 394 -144 356 -197 c 128,-1,34
 318 -250 318 -250 256 -307 c 257,35,-1
 204 -284 l 257,36,37
 227 -240 227 -240 245 -193 c 257,38,39
 260 -154 260 -154 272.5 -107.5 c 128,-1,40
 285 -61 285 -61 285 -17 c 257,41,42
NamedP: "ab01"
 260 -16 260 -16 236 -6 c 128,-1,43
 212 4 212 4 193 21.5 c 128,-1,44
 174 39 174 39 163 66 c 128,-1,45
 152 93 152 93 152 127 c 257,20,21
NamedP: "ah03"
EndSplineSet
PickledDataWithLists: "(dp0
Vcom.adobe.type.autohint
p1
(c_codecs
encode
p2
(Vdata
p3
Vlatin1
p4
tp5
Rp6
g2
(V<data>\\u000a        <hintSetList>\\u000a          <hintset pointTag=\"ah01\">\\u000a            <hstem pos=\"-229\" width=\"-21\"/>\\u000a            <hstem pos=\"480\" width=\"218\"/>\\u000a            <vstem pos=\"140\" width=\"216\"/>\\u000a          </hintset>\\u000a        </hintSetList>\\u000a      </data>
p7
g4
tp8
Rp9
Ntp10
sVcom.fontlab.ttprogram
p11
(g2
(Vdata
p12
g4
tp13
Rp14
g2
(V<data>\\u000a        <ttProgram>\\u000a          <ttc align=\"round\" code=\"alignh\" point=\"ah01\"/>\\u000a          <ttc align=\"round\" code=\"alignh\" point=\"ah02\"/>\\u000a          <ttc align=\"round\" code=\"alignh\" point=\"ah03\"/>\\u000a          <ttc align=\"round\" code=\"alignh\" point=\"ah04\"/>\\u000a          <ttc align=\"round\" code=\"alignv\" point=\"av01\"/>\\u000a          <ttc align=\"round\" code=\"alignv\" point=\"av02\"/>\\u000a          <ttc align=\"round\" code=\"alignv\" point=\"av03\"/>\\u000a          <ttc code=\"alignb\" point=\"ab01\" zone=\"b: 0\"/>\\u000a        </ttProgram>\\u000a      </data>
p15
g4
tp16
Rp17
Ntp18
s."
EndChar
StartChar: less
Encoding: 308 60 308
GlifName: less
Width: 1300
VWidth: 0
Flags: W
LayerCount: 2
Fore
SplineSet
1100 1211 m 257,0,-1
 1100 1036 l 257,1,-1
 413 670 l 257,2,-1
 335 650 l 257,3,-1
 412 630 l 257,4,-1
 1100 266 l 257,5,-1
 1100 91 l 257,6,-1
 200 548 l 257,7,-1
 200 757 l 257,8,-1
 1100 1211 l 257,0,-1
EndSplineSet
EndChar
StartChar: D
Encoding: 15 68 15
GlifName: D_
Width: 1300
VWidth: 0
Flags: W
LayerCount: 2
Fore
SplineSet
175 1500 m 257,0,1
NamedP: "at01"
 206 1503 206 1503 246 1505 c 128,-1,2
 286 1507 286 1507 328 1508.5 c 128,-1,3
 370 1510 370 1510 411 1510.5 c 128,-1,4
 452 1511 452 1511 485 1511 c 257,5,6
NamedP: "at02"
 644 1511 644 1511 779.5 1472 c 128,-1,7
 915 1433 915 1433 1014 1348 c 128,-1,8
 1113 1263 1113 1263 1169 1130 c 128,-1,9
 1225 997 1225 997 1225 810 c 257,10,11
NamedP: "sh01"
 1225 664 1225 664 1197 547.5 c 128,-1,12
 1169 431 1169 431 1119.5 341 c 128,-1,13
 1070 251 1070 251 1000.5 186.5 c 128,-1,14
 931 122 931 122 847.5 80.5 c 128,-1,15
 764 39 764 39 670 19.5 c 128,-1,16
 576 0 576 0 476 0 c 257,17,-1
NamedP: "ab01"
 205 0 l 257,18,-1
NamedP: "sh02"
 205 1290 l 257,19,-1
 175 1500 l 257,0,1
NamedP: "at01"
395 1150 m 257,20,-1
 395 160 l 257,21,-1
NamedP: "sh03"
 415 160 l 257,22,23
 544 160 544 160 639 190 c 128,-1,24
 734 220 734 220 800.5 269.5 c 128,-1,25
 867 319 867 319 909 383.5 c 128,-1,26
 951 448 951 448 974.5 517 c 128,-1,27
 998 586 998 586 1006.5 654 c 128,-1,28
 1015 722 1015 722 1015 780 c 257,29,30
NamedP: "ah01"
 1015 865 1015 865 1007 941 c 128,-1,31
 999 1017 999 1017 977 1081 c 128,-1,32
 955 1145 955 1145 917 1196 c 128,-1,33
 879 1247 879 1247 819 1283 c 128,-1,34
 759 1319 759 1319 674.5 1338.5 c 128,-1,35
 590 1358 590 1358 476 1358 c 257,36,37
NamedP: "sv01"
 460 1358 460 1358 442 1357 c 128,-1,38
 424 1356 424 1356 408 1354 c 257,39,-1
NamedP: "sh04"
 370 1350 l 257,40,-1
NamedP: "sv02"
 395 1150 l 257,20,-1
EndSplineSet
PickledDataWithLists: "(dp0
Vcom.adobe.type.autohint
p1
(c_codecs
encode
p2
(Vdata
p3
Vlatin1
p4
tp5
Rp6
g2
(V<data>\\u000a        <hintSetList>\\u000a          <hintset pointTag=\"at01\">\\u000a            <hstem pos=\"0\" width=\"160\"/>\\u000a            <hstem pos=\"1358\" width=\"153\"/>\\u000a            <vstem pos=\"99\" width=\"210\"/>\\u000a            <vstem pos=\"929\" width=\"210\"/>\\u000a          </hintset>\\u000a        </hintSetList>\\u000a      </data>
p7
g4
tp8
Rp9
Ntp10
sVcom.fontlab.ttprogram
p11
(g2
(Vdata
p12
g4
tp13
Rp14
g2
(V<data>\\u000a        <ttProgram>\\u000a          <ttc align=\"round\" code=\"alignh\" point=\"lsb\"/>\\u000a          <ttc align=\"round\" code=\"alignh\" point=\"ah01\"/>\\u000a          <ttc code=\"singleh\" point1=\"ah01\" point2=\"sh01\" stem=\"X: 208\"/>\\u000a          <ttc align=\"round\" code=\"singleh\" point1=\"lsb\" point2=\"sh02\"/>\\u000a          <ttc code=\"singleh\" point1=\"sh02\" point2=\"sh03\" stem=\"X: 208\"/>\\u000a          <ttc align=\"round\" code=\"singleh\" point1=\"sh03\" point2=\"sh04\"/>\\u000a          <ttc code=\"singleh\" point1=\"sh01\" point2=\"rsb\" round=\"true\"/>\\u000a          <ttc code=\"alignt\" point=\"at01\" zone=\"t: 1\"/>\\u000a          <ttc code=\"alignt\" point=\"at02\" zone=\"t: 1\"/>\\u000a          <ttc code=\"alignb\" point=\"ab01\" zone=\"b: 0\"/>\\u000a          <ttc code=\"singlev\" point1=\"ab01\" point2=\"sh03\" stem=\"Y: 162\"/>\\u000a          <ttc code=\"singlev\" point1=\"at02\" point2=\"sv01\" stem=\"Y: 153\"/>\\u000a          <ttc align=\"round\" code=\"singlev\" point1=\"sv01\" point2=\"sh04\"/>\\u000a          <ttc align=\"round\" code=\"singlev\" point1=\"sh04\" point2=\"sv02\"/>\\u000a        </ttProgram>\\u000a      </data>
p15
g4
tp16
Rp17
Ntp18
sVcom.typemytype.robofont.guides
p19
(lp20
(dp21
Vangle
p22
I0
sVisGlobal
p23
I00
sVmagnetic
p24
I5
sVx
p25
I0
sVy
p26
I1370
sa(dp27
g22
I0
sg23
I00
sg24
I5
sg25
I0
sg26
I130
sa(dp28
g22
I90
sg23
I00
sg24
I5
sg25
I278
sg26
I0
sas."
EndChar
StartChar: K
Encoding: 38 75 38
GlifName: K_
Width: 1300
VWidth: 0
Flags: W
LayerCount: 2
Fore
SplineSet
205 0 m 257,0,-1
NamedP: "sh01"
 205 1290 l 257,1,-1
 175 1500 l 257,2,-1
NamedP: "at01"
 396 1520 l 257,3,-1
NamedP: "ah03"
 396 856 l 257,4,-1
NamedP: "ah01"
 942 1500 l 257,5,-1
NamedP: "sh02"
 1164 1500 l 257,6,-1
NamedP: "sh03"
 633 865 l 257,7,-1
NamedP: "fh01"
 464 802 l 257,8,-1
NamedP: "av01"
 638 744 l 257,9,-1
NamedP: "fh02"
 1191 0 l 257,10,-1
NamedP: "sh05"
 954 0 l 257,11,-1
NamedP: "sh04"
 396 746 l 257,12,-1
NamedP: "ah02"
 396 0 l 257,13,-1
NamedP: "ah04"
 205 0 l 257,0,-1
NamedP: "sh01"
EndSplineSet
PickledDataWithLists: "(dp0
Vcom.adobe.type.autohint
p1
(c_codecs
encode
p2
(Vdata
p3
Vlatin1
p4
tp5
Rp6
g2
(V<data>\\u000a        <hintSetList>\\u000a          <hintset pointTag=\"sh01\">\\u000a            <hstem pos=\"1520\" width=\"-20\"/>\\u000a            <vstem pos=\"91\" width=\"210\"/>\\u000a          </hintset>\\u000a        </hintSetList>\\u000a      </data>
p7
g4
tp8
Rp9
Ntp10
sVcom.fontlab.ttprogram
p11
(g2
(Vdata
p12
g4
tp13
Rp14
g2
(V<data>\\u000a        <ttProgram>\\u000a          <ttc align=\"round\" code=\"alignh\" point=\"ah01\"/>\\u000a          <ttc align=\"round\" code=\"alignh\" point=\"ah02\"/>\\u000a          <ttc align=\"round\" code=\"alignh\" point=\"ah03\"/>\\u000a          <ttc align=\"round\" code=\"alignh\" point=\"ah04\"/>\\u000a          <ttc code=\"singleh\" point1=\"ah04\" point2=\"sh01\" stem=\"X: 208\"/>\\u000a          <ttc code=\"singleh\" point1=\"ah01\" point2=\"sh02\" round=\"true\"/>\\u000a          <ttc code=\"singleh\" point1=\"sh02\" point2=\"sh03\" stem=\"X: dia Lite\"/>\\u000a          <ttc code=\"singleh\" point1=\"ah02\" point2=\"sh04\"/>\\u000a          <ttc code=\"singleh\" point1=\"sh04\" point2=\"sh05\" stem=\"X: dia Fat\"/>\\u000a          <ttc align=\"center\" code=\"alignv\" point=\"av01\"/>\\u000a          <ttc code=\"alignt\" point=\"ah03\" zone=\"t: 1\"/>\\u000a          <ttc code=\"alignt\" point=\"at01\" zone=\"t: 1\"/>\\u000a          <ttc code=\"alignt\" point=\"sh02\" zone=\"t: 1\"/>\\u000a          <ttc code=\"alignb\" point=\"sh01\" zone=\"b: 0\"/>\\u000a          <ttc code=\"alignb\" point=\"sh05\" zone=\"b: 0\"/>\\u000a          <ttc code=\"interpolatev\" point=\"ah01\" point1=\"sh01\" point2=\"ah03\"/>\\u000a          <ttc code=\"interpolatev\" point=\"sh03\" point1=\"sh01\" point2=\"ah03\"/>\\u000a          <ttc code=\"interpolatev\" point=\"ah02\" point1=\"sh01\" point2=\"ah03\"/>\\u000a          <ttc code=\"fdeltah\" delta=\"-8\" point=\"fh01\" ppm1=\"22\" ppm2=\"22\"/>\\u000a          <ttc code=\"fdeltah\" delta=\"-3\" point=\"fh01\" ppm1=\"17\" ppm2=\"17\"/>\\u000a          <ttc code=\"fdeltah\" delta=\"-2\" point=\"fh01\" ppm1=\"18\" ppm2=\"18\"/>\\u000a          <ttc code=\"fdeltah\" delta=\"-2\" point=\"fh01\" ppm1=\"21\" ppm2=\"21\"/>\\u000a          <ttc code=\"fdeltah\" delta=\"-2\" point=\"fh01\" ppm1=\"28\" ppm2=\"28\"/>\\u000a          <ttc code=\"fdeltah\" delta=\"-1\" point=\"fh01\" ppm1=\"14\" ppm2=\"14\"/>\\u000a          <ttc code=\"fdeltah\" delta=\"4\" point=\"av01\" ppm1=\"18\" ppm2=\"18\"/>\\u000a          <ttc code=\"fdeltah\" delta=\"4\" point=\"av01\" ppm1=\"20\" ppm2=\"21\"/>\\u000a          <ttc code=\"fdeltah\" delta=\"-5\" point=\"fh02\" ppm1=\"17\" ppm2=\"17\"/>\\u000a          <ttc code=\"fdeltah\" delta=\"-4\" point=\"fh02\" ppm1=\"28\" ppm2=\"28\"/>\\u000a          <ttc code=\"fdeltah\" delta=\"-3\" point=\"fh02\" ppm1=\"13\" ppm2=\"13\"/>\\u000a          <ttc code=\"fdeltah\" delta=\"-1\" point=\"fh02\" ppm1=\"14\" ppm2=\"14\"/>\\u000a          <ttc code=\"fdeltah\" delta=\"-1\" point=\"fh02\" ppm1=\"19\" ppm2=\"19\"/>\\u000a          <ttc code=\"fdeltah\" delta=\"3\" point=\"fh02\" ppm1=\"18\" ppm2=\"18\"/>\\u000a          <ttc code=\"fdeltah\" delta=\"3\" point=\"fh02\" ppm1=\"20\" ppm2=\"21\"/>\\u000a          <ttc code=\"fdeltah\" delta=\"3\" point=\"fh02\" ppm1=\"24\" ppm2=\"24\"/>\\u000a          <ttc code=\"fdeltah\" delta=\"3\" point=\"sh05\" ppm1=\"14\" ppm2=\"14\"/>\\u000a          <ttc code=\"fdeltah\" delta=\"4\" point=\"sh05\" ppm1=\"13\" ppm2=\"13\"/>\\u000a          <ttc code=\"fdeltah\" delta=\"4\" point=\"sh05\" ppm1=\"17\" ppm2=\"17\"/>\\u000a          <ttc code=\"fdeltah\" delta=\"5\" point=\"sh05\" ppm1=\"16\" ppm2=\"16\"/>\\u000a          <ttc code=\"fdeltah\" delta=\"-5\" point=\"sh04\" ppm1=\"20\" ppm2=\"22\"/>\\u000a          <ttc code=\"fdeltah\" delta=\"-3\" point=\"sh04\" ppm1=\"19\" ppm2=\"19\"/>\\u000a          <ttc code=\"fdeltah\" delta=\"2\" point=\"sh04\" ppm1=\"17\" ppm2=\"17\"/>\\u000a          <ttc code=\"fdeltah\" delta=\"3\" point=\"sh04\" ppm1=\"18\" ppm2=\"18\"/>\\u000a          <ttc code=\"fdeltah\" delta=\"3\" point=\"sh04\" ppm1=\"24\" ppm2=\"24\"/>\\u000a          <ttc code=\"fdeltah\" delta=\"4\" point=\"sh04\" ppm1=\"14\" ppm2=\"14\"/>\\u000a          <ttc code=\"fdeltah\" delta=\"5\" point=\"sh04\" ppm1=\"13\" ppm2=\"13\"/>\\u000a          <ttc code=\"fdeltah\" delta=\"5\" point=\"sh04\" ppm1=\"16\" ppm2=\"16\"/>\\u000a          <ttc code=\"fdeltav\" delta=\"5\" point=\"ah01\" ppm1=\"18\" ppm2=\"22\"/>\\u000a          <ttc code=\"fdeltav\" delta=\"2\" point=\"fh01\" ppm1=\"14\" ppm2=\"14\"/>\\u000a          <ttc code=\"fdeltav\" delta=\"2\" point=\"fh01\" ppm1=\"22\" ppm2=\"22\"/>\\u000a          <ttc code=\"fdeltav\" delta=\"3\" point=\"av01\" ppm1=\"22\" ppm2=\"22\"/>\\u000a          <ttc code=\"fdeltav\" delta=\"-2\" point=\"fh02\" ppm1=\"13\" ppm2=\"14\"/>\\u000a          <ttc code=\"fdeltav\" delta=\"5\" point=\"fh02\" ppm1=\"22\" ppm2=\"22\"/>\\u000a          <ttc code=\"fdeltav\" delta=\"-2\" point=\"ah02\" ppm1=\"18\" ppm2=\"22\"/>\\u000a        </ttProgram>\\u000a      </data>
p15
g4
tp16
Rp17
Ntp18
s."
EndChar
StartChar: L
Encoding: 40 76 40
GlifName: L_
Width: 1300
VWidth: 0
Flags: W
LayerCount: 2
Fore
SplineSet
383 160 m 257,0,-1
NamedP: "sv01"
 1113 160 l 257,1,-1
 1093 0 l 257,2,-1
NamedP: "ab01"
 188 0 l 257,3,-1
 208 200 l 257,4,-1
NamedP: "dh01"
 208 1290 l 257,5,-1
 178 1500 l 257,6,-1
 393 1520 l 257,7,-1
NamedP: "at01"
 393 340 l 257,8,-1
NamedP: "dh02"
 383 160 l 257,0,-1
NamedP: "sv01"
EndSplineSet
PickledDataWithLists: "(dp0
Vcom.adobe.type.autohint
p1
(c_codecs
encode
p2
(Vdata
p3
Vlatin1
p4
tp5
Rp6
g2
(V<data>\\u000a        <hintSetList>\\u000a          <hintset pointTag=\"sv01\">\\u000a            <hstem pos=\"0\" width=\"160\"/>\\u000a            <hstem pos=\"1520\" width=\"-20\"/>\\u000a            <vstem pos=\"90\" width=\"210\"/>\\u000a          </hintset>\\u000a        </hintSetList>\\u000a      </data>
p7
g4
tp8
Rp9
Ntp10
sVcom.fontlab.ttprogram
p11
(g2
(Vdata
p12
g4
tp13
Rp14
g2
(V<data>\\u000a        <ttProgram>\\u000a          <ttc code=\"doubleh\" point1=\"dh01\" point2=\"dh02\" stem=\"X: 208\"/>\\u000a          <ttc code=\"alignt\" point=\"at01\" zone=\"t: 1\"/>\\u000a          <ttc code=\"alignb\" point=\"ab01\" zone=\"b: 0\"/>\\u000a          <ttc code=\"singlev\" point1=\"ab01\" point2=\"sv01\" stem=\"Y: 162\"/>\\u000a        </ttProgram>\\u000a      </data>
p15
g4
tp16
Rp17
Ntp18
s."
EndChar
StartChar: O
Encoding: 48 79 48
GlifName: O_
Width: 1300
VWidth: 0
Flags: W
LayerCount: 2
Fore
SplineSet
650 -17 m 261,0,1
NamedP: "ab01"
 560 -17 560 -17 484.5 10.5 c 132,-1,2
 409 38 409 38 347.5 88.5 c 132,-1,3
 286 139 286 139 240 209 c 132,-1,4
 194 279 194 279 162.5 364.5 c 132,-1,5
 131 450 131 450 115.5 547.5 c 132,-1,6
 100 645 100 645 100 750 c 261,7,8
NamedP: "sh01"
 100 855 100 855 115 952.5 c 132,-1,9
 130 1050 130 1050 160.5 1135.5 c 132,-1,10
 191 1221 191 1221 236.5 1291 c 132,-1,11
 282 1361 282 1361 343 1411.5 c 132,-1,12
 404 1462 404 1462 481 1489.5 c 132,-1,13
 558 1517 558 1517 650 1517 c 261,14,15
NamedP: "at01"
 740 1517 740 1517 815.5 1489.5 c 132,-1,16
 891 1462 891 1462 952.5 1411.5 c 132,-1,17
 1014 1361 1014 1361 1060 1291 c 132,-1,18
 1106 1221 1106 1221 1137.5 1135.5 c 132,-1,19
 1169 1050 1169 1050 1184.5 952.5 c 132,-1,20
 1200 855 1200 855 1200 750 c 261,21,22
NamedP: "sh02"
 1200 645 1200 645 1185 547.5 c 132,-1,23
 1170 450 1170 450 1139.5 364.5 c 132,-1,24
 1109 279 1109 279 1063.5 209 c 132,-1,25
 1018 139 1018 139 957 88.5 c 132,-1,26
 896 38 896 38 819 10.5 c 132,-1,27
 742 -17 742 -17 650 -17 c 261,0,1
NamedP: "ab01"
992 719 m 261,28,29
NamedP: "ah01"
 992 789 992 789 987.5 862 c 132,-1,30
 983 935 983 935 969.5 1004.5 c 132,-1,31
 956 1074 956 1074 932 1135.5 c 132,-1,32
 908 1197 908 1197 869.5 1242.5 c 132,-1,33
 831 1288 831 1288 775.5 1315 c 132,-1,34
 720 1342 720 1342 644 1342 c 261,35,36
NamedP: "sv01"
 572 1342 572 1342 519 1318 c 132,-1,37
 466 1294 466 1294 429 1252.5 c 132,-1,38
 392 1211 392 1211 368 1155.5 c 132,-1,39
 344 1100 344 1100 331 1038 c 132,-1,40
 318 976 318 976 313 911 c 132,-1,41
 308 846 308 846 308 785 c 261,42,43
NamedP: "sh03"
 308 714 308 714 312.5 640 c 132,-1,44
 317 566 317 566 330.5 496.5 c 132,-1,45
 344 427 344 427 368 365.5 c 132,-1,46
 392 304 392 304 431 258 c 132,-1,47
 470 212 470 212 525 185 c 132,-1,48
 580 158 580 158 656 158 c 261,49,50
NamedP: "sv02"
 727 158 727 158 779.5 182.5 c 132,-1,51
 832 207 832 207 869.5 249.5 c 132,-1,52
 907 292 907 292 931 347.5 c 132,-1,53
 955 403 955 403 968.5 465.5 c 132,-1,54
 982 528 982 528 987 593 c 132,-1,55
 992 658 992 658 992 719 c 261,28,29
NamedP: "ah01"
EndSplineSet
PickledDataWithLists: "(dp0
Vcom.adobe.type.autohint
p1
(c_codecs
encode
p2
(Vdata
p3
Vlatin1
p4
tp5
Rp6
g2
(V<data>\\u000a        <hintSetList>\\u000a          <hintset pointTag=\"ab01\">\\u000a            <hstem pos=\"-17\" width=\"170\"/>\\u000a            <hstem pos=\"1347\" width=\"170\"/>\\u000a            <vstem pos=\"150\" width=\"208\"/>\\u000a            <vstem pos=\"1294\" width=\"208\"/>\\u000a          </hintset>\\u000a        </hintSetList>\\u000a      </data>
p7
g4
tp8
Rp9
Ntp10
sVcom.fontlab.ttprogram
p11
(g2
(Vdata
p12
g4
tp13
Rp14
g2
(V<data>\\u000a        <ttProgram>\\u000a          <ttc align=\"round\" code=\"alignh\" point=\"lsb\"/>\\u000a          <ttc align=\"round\" code=\"alignh\" point=\"ah01\"/>\\u000a          <ttc align=\"round\" code=\"singleh\" point1=\"lsb\" point2=\"sh01\"/>\\u000a          <ttc code=\"singleh\" point1=\"ah01\" point2=\"sh02\" stem=\"X: 208\"/>\\u000a          <ttc code=\"singleh\" point1=\"sh01\" point2=\"sh03\" stem=\"X: 208\"/>\\u000a          <ttc code=\"singleh\" point1=\"sh02\" point2=\"rsb\" round=\"true\"/>\\u000a          <ttc code=\"alignt\" point=\"at01\" zone=\"t: 1\"/>\\u000a          <ttc code=\"alignb\" point=\"ab01\" zone=\"b: 0\"/>\\u000a          <ttc code=\"singlev\" point1=\"at01\" point2=\"sv01\" stem=\"Y: 171\"/>\\u000a          <ttc code=\"singlev\" point1=\"ab01\" point2=\"sv02\" stem=\"Y: 171\"/>\\u000a        </ttProgram>\\u000a      </data>
p15
g4
tp16
Rp17
Ntp18
s."
EndChar
StartChar: Q
Encoding: 62 81 62
GlifName: Q_
Width: 1300
VWidth: 0
Flags: W
LayerCount: 2
Fore
SplineSet
916 314 m 257,0,1
NamedP: "hr00"
 935 346 935 346 951 385.5 c 128,-1,2
 967 425 967 425 977.5 477 c 128,-1,3
 988 529 988 529 994 596.5 c 128,-1,4
 1000 664 1000 664 1000 751 c 257,5,6
NamedP: "dh03"
 1000 821 1000 821 993.5 892 c 128,-1,7
 987 963 987 963 971 1029.5 c 128,-1,8
 955 1096 955 1096 929 1154 c 128,-1,9
 903 1212 903 1212 863 1254.5 c 128,-1,10
 823 1297 823 1297 769 1322 c 128,-1,11
 715 1347 715 1347 644 1347 c 257,12,13
NamedP: "sv01"
 576 1347 576 1347 524.5 1322.5 c 128,-1,14
 473 1298 473 1298 435 1256 c 128,-1,15
 397 1214 397 1214 371 1158 c 128,-1,16
 345 1102 345 1102 329 1039.5 c 128,-1,17
 313 977 313 977 306.5 911.5 c 128,-1,18
 300 846 300 846 300 785 c 257,19,20
NamedP: "dh02"
 300 705 300 705 305 628 c 128,-1,21
 310 551 310 551 324.5 482 c 128,-1,22
 339 413 339 413 365.5 355 c 128,-1,23
 392 297 392 297 435.5 254.5 c 128,-1,24
 479 212 479 212 542 188 c 128,-1,25
NamedP: "sv02"
 605 164 605 164 693 163 c 257,26,27
 703 163 703 163 711 165 c 128,-1,28
 719 167 719 167 736 172 c 257,29,30
NamedP: "iv01"
 710 217 710 217 690.5 251.5 c 128,-1,31
 671 286 671 286 651 309.5 c 128,-1,32
 631 333 631 333 607 344.5 c 128,-1,33
 583 356 583 356 549 356 c 257,34,-1
NamedP: "dv03"
 600 500 l 257,35,36
NamedP: "dv04"
 649 500 649 500 688.5 479.5 c 128,-1,37
 728 459 728 459 764 418 c 128,-1,38
 800 377 800 377 836 316.5 c 128,-1,39
 872 256 872 256 916 177 c 257,40,-1
NamedP: "iv02"
 916 314 l 257,0,1
NamedP: "hr00"
756 0 m 257,41,42
 723 -8 723 -8 685.5 -11 c 128,-1,43
 648 -14 648 -14 600 -14 c 257,44,45
NamedP: "ab01"
 476 -14 476 -14 382.5 49 c 128,-1,46
 289 112 289 112 226 218 c 128,-1,47
 163 324 163 324 131.5 462 c 128,-1,48
 100 600 100 600 100 750 c 257,49,50
NamedP: "dh01"
 100 855 100 855 115 952.5 c 128,-1,51
 130 1050 130 1050 160.5 1135.5 c 128,-1,52
 191 1221 191 1221 236.5 1291 c 128,-1,53
 282 1361 282 1361 343 1411.5 c 128,-1,54
 404 1462 404 1462 481 1489.5 c 128,-1,55
 558 1517 558 1517 650 1517 c 257,56,57
NamedP: "at01"
 785 1517 785 1517 888 1461 c 128,-1,58
 991 1405 991 1405 1060 1307 c 128,-1,59
 1129 1209 1129 1209 1164.5 1074 c 128,-1,60
 1200 939 1200 939 1200 782 c 257,61,62
NamedP: "dh04"
 1200 686 1200 686 1189 590.5 c 128,-1,63
 1178 495 1178 495 1154.5 409 c 128,-1,64
 1131 323 1131 323 1093.5 249.5 c 128,-1,65
 1056 176 1056 176 1002 124 c 257,66,67
 994 116 994 116 985 107.5 c 128,-1,68
 976 99 976 99 968 92 c 257,69,70
 987 60 987 60 1002 42 c 128,-1,71
 1017 24 1017 24 1036 14.5 c 128,-1,72
 1055 5 1055 5 1082 2.5 c 128,-1,73
 1109 0 1109 0 1151 0 c 257,74,-1
NamedP: "dv02"
 1100 -145 l 257,75,76
NamedP: "dv01"
 1050 -145 1050 -145 1008.5 -137 c 128,-1,77
 967 -129 967 -129 928.5 -103 c 128,-1,78
 890 -77 890 -77 853 -28 c 128,-1,79
 816 21 816 21 774 102 c 257,80,-1
 756 137 l 257,81,-1
 756 0 l 257,41,42
EndSplineSet
PickledDataWithLists: "(dp0
Vcom.adobe.type.autohint
p1
(c_codecs
encode
p2
(Vdata
p3
Vlatin1
p4
tp5
Rp6
g2
(V<data>\\u000a        <hintSetList>\\u000a          <hintset pointTag=\"hr00\">\\u000a            <hstem pos=\"-17\" width=\"170\"/>\\u000a            <hstem pos=\"301\" width=\"144\"/>\\u000a            <hstem pos=\"1347\" width=\"170\"/>\\u000a            <vstem pos=\"150\" width=\"208\"/>\\u000a            <vstem pos=\"1294\" width=\"208\"/>\\u000a          </hintset>\\u000a        </hintSetList>\\u000a      </data>
p7
g4
tp8
Rp9
Ntp10
sVcom.fontlab.ttprogram
p11
(g2
(Vdata
p12
g4
tp13
Rp14
g2
(V<data>\\u000a        <ttProgram>\\u000a          <ttc code=\"doubleh\" point1=\"dh01\" point2=\"dh02\" stem=\"X: 208\"/>\\u000a          <ttc code=\"doubleh\" point1=\"dh03\" point2=\"dh04\" stem=\"X: 208\"/>\\u000a          <ttc code=\"singleh\" point1=\"dh04\" point2=\"rsb\" round=\"true\"/>\\u000a          <ttc code=\"alignt\" point=\"at01\" zone=\"t: 1\"/>\\u000a          <ttc code=\"alignb\" point=\"ab01\" zone=\"b: 0\"/>\\u000a          <ttc code=\"doublev\" point1=\"dv01\" point2=\"dv02\" stem=\"Y: 144\"/>\\u000a          <ttc code=\"doublev\" point1=\"dv03\" point2=\"dv04\" stem=\"Y: 144\"/>\\u000a          <ttc code=\"singlev\" point1=\"at01\" point2=\"sv01\" stem=\"Y: 171\"/>\\u000a          <ttc code=\"singlev\" point1=\"ab01\" point2=\"sv02\" stem=\"Y: 171\"/>\\u000a          <ttc code=\"interpolatev\" point=\"iv01\" point1=\"dv03\" point2=\"ab01\"/>\\u000a          <ttc code=\"interpolatev\" point=\"iv02\" point1=\"at01\" point2=\"ab01\"/>\\u000a        </ttProgram>\\u000a      </data>
p15
g4
tp16
Rp17
Ntp18
s."
EndChar
StartChar: S
Encoding: 66 83 66
GlifName: S_
Width: 1300
VWidth: 0
Flags: W
LayerCount: 2
Fore
SplineSet
193 94 m 257,0,-1
NamedP: "hr00"
 284 244 l 257,1,2
 304 231 304 231 336.5 214.5 c 128,-1,3
 369 198 369 198 409 183 c 128,-1,4
 449 168 449 168 494 158 c 128,-1,5
 539 148 539 148 585 148 c 257,6,7
NamedP: "sv01"
 647 148 647 148 709.5 163.5 c 128,-1,8
 772 179 772 179 822.5 211.5 c 128,-1,9
 873 244 873 244 904.5 294 c 128,-1,10
 936 344 936 344 936 413 c 257,11,12
NamedP: "ah01"
 936 478 936 478 906 527 c 128,-1,13
 876 576 876 576 827 615 c 128,-1,14
 778 654 778 654 715 686 c 128,-1,15
NamedP: "iv01"
 652 718 652 718 586.5 750 c 128,-1,16
 521 782 521 782 458 816.5 c 128,-1,17
 395 851 395 851 346 895 c 128,-1,18
 297 939 297 939 267 995 c 128,-1,19
 237 1051 237 1051 237 1126 c 257,20,21
NamedP: "sh01"
 237 1223 237 1223 278 1296 c 128,-1,22
 319 1369 319 1369 385 1418 c 128,-1,23
 451 1467 451 1467 535 1492 c 128,-1,24
 619 1517 619 1517 705 1517 c 257,25,26
NamedP: "at01"
 918 1517 918 1517 1098 1397 c 257,27,-1
 1001 1274 l 257,28,29
 933 1314 933 1314 870.5 1333 c 128,-1,30
 808 1352 808 1352 731 1352 c 257,31,32
NamedP: "sv02"
 677 1352 677 1352 622.5 1341 c 128,-1,33
 568 1330 568 1330 524.5 1305.5 c 128,-1,34
 481 1281 481 1281 453.5 1241.5 c 128,-1,35
 426 1202 426 1202 426 1145 c 257,36,37
NamedP: "sh02"
 426 1089 426 1089 456.5 1048 c 128,-1,38
 487 1007 487 1007 536.5 974.5 c 128,-1,39
 586 942 586 942 649 913.5 c 128,-1,40
NamedP: "iv02"
 712 885 712 885 778.5 854.5 c 128,-1,41
 845 824 845 824 908 787.5 c 128,-1,42
 971 751 971 751 1020.5 701.5 c 128,-1,43
 1070 652 1070 652 1100.5 585.5 c 128,-1,44
 1131 519 1131 519 1131 429 c 257,45,46
NamedP: "sh03"
 1131 317 1131 317 1085.5 233.5 c 128,-1,47
 1040 150 1040 150 965.5 94.5 c 128,-1,48
 891 39 891 39 795 11 c 128,-1,49
 699 -17 699 -17 599 -17 c 257,50,51
NamedP: "ab01"
 535 -17 535 -17 480 -9.5 c 128,-1,52
 425 -2 425 -2 375.5 12 c 128,-1,53
 326 26 326 26 281 46.5 c 128,-1,54
 236 67 236 67 193 94 c 257,0,-1
NamedP: "hr00"
EndSplineSet
PickledDataWithLists: "(dp0
Vcom.adobe.type.autohint
p1
(c_codecs
encode
p2
(Vdata
p3
Vlatin1
p4
tp5
Rp6
g2
(V<data>\\u000a        <hintSetList>\\u000a          <hintset pointTag=\"hr00\">\\u000a            <hstem pos=\"-17\" width=\"165\"/>\\u000a            <hstem pos=\"1352\" width=\"165\"/>\\u000a            <vstem pos=\"167\" width=\"204\"/>\\u000a            <vstem pos=\"861\" width=\"204\"/>\\u000a          </hintset>\\u000a        </hintSetList>\\u000a      </data>
p7
g4
tp8
Rp9
Ntp10
sVcom.fontlab.ttprogram
p11
(g2
(Vdata
p12
g4
tp13
Rp14
g2
(V<data>\\u000a        <ttProgram>\\u000a          <ttc align=\"round\" code=\"alignh\" point=\"lsb\"/>\\u000a          <ttc align=\"round\" code=\"alignh\" point=\"ah01\"/>\\u000a          <ttc code=\"singleh\" point1=\"lsb\" point2=\"sh01\"/>\\u000a          <ttc code=\"singleh\" point1=\"sh01\" point2=\"sh02\" stem=\"X: 208\"/>\\u000a          <ttc code=\"singleh\" point1=\"ah01\" point2=\"sh03\" stem=\"X: 208\"/>\\u000a          <ttc code=\"singleh\" point1=\"sh03\" point2=\"rsb\" round=\"true\"/>\\u000a          <ttc code=\"alignt\" point=\"at01\" zone=\"t: 1\"/>\\u000a          <ttc code=\"alignb\" point=\"ab01\" zone=\"b: 0\"/>\\u000a          <ttc code=\"singlev\" point1=\"ab01\" point2=\"sv01\" stem=\"Y: 162\"/>\\u000a          <ttc code=\"singlev\" point1=\"at01\" point2=\"sv02\" stem=\"Y: 162\"/>\\u000a          <ttc code=\"interpolatev\" point=\"iv01\" point1=\"sv02\" point2=\"sv01\"/>\\u000a          <ttc code=\"interpolatev\" point=\"iv02\" point1=\"sv01\" point2=\"sv02\"/>\\u000a        </ttProgram>\\u000a      </data>
p15
g4
tp16
Rp17
Ntp18
s."
EndChar
StartChar: U
Encoding: 73 85 73
GlifName: U_
Width: 1300
VWidth: 0
Flags: W
LayerCount: 2
Fore
SplineSet
1115 1500 m 257,0,-1
NamedP: "at02"
 1115 523 l 257,1,2
NamedP: "sh01"
 1115 387 1115 387 1082.5 285.5 c 128,-1,3
 1050 184 1050 184 988.5 117 c 128,-1,4
 927 50 927 50 838 16.5 c 128,-1,5
 749 -17 749 -17 635 -17 c 257,6,7
NamedP: "ih01"
 513 -17 513 -17 427.5 25.5 c 128,-1,8
 342 68 342 68 288 145.5 c 128,-1,9
 234 223 234 223 209.5 332 c 128,-1,10
 185 441 185 441 185 573 c 257,11,-1
NamedP: "sh02"
 185 1290 l 257,12,-1
 155 1500 l 257,13,-1
 375 1520 l 257,14,-1
NamedP: "at01"
 375 554 l 257,15,16
NamedP: "sh03"
 375 459 375 459 393.5 384.5 c 128,-1,17
 412 310 412 310 447 258.5 c 128,-1,18
 482 207 482 207 532 180 c 128,-1,19
 582 153 582 153 645 153 c 257,20,21
NamedP: "ih02"
 792 153 792 153 858.5 240.5 c 128,-1,22
 925 328 925 328 925 504 c 257,23,-1
NamedP: "ah01"
 925 1500 l 257,24,-1
 1115 1500 l 257,0,-1
NamedP: "at02"
EndSplineSet
PickledDataWithLists: "(dp0
Vcom.adobe.type.autohint
p1
(c_codecs
encode
p2
(Vdata
p3
Vlatin1
p4
tp5
Rp6
g2
(V<data>\\u000a        <hintSetList>\\u000a          <hintset pointTag=\"at02\">\\u000a            <hstem pos=\"-17\" width=\"170\"/>\\u000a            <hstem pos=\"1520\" width=\"-20\"/>\\u000a            <vstem pos=\"80\" width=\"205\"/>\\u000a            <vstem pos=\"915\" width=\"205\"/>\\u000a          </hintset>\\u000a        </hintSetList>\\u000a      </data>
p7
g4
tp8
Rp9
Ntp10
sVcom.fontlab.ttprogram
p11
(g2
(Vdata
p12
g4
tp13
Rp14
g2
(V<data>\\u000a        <ttProgram>\\u000a          <ttc align=\"round\" code=\"alignh\" point=\"lsb\"/>\\u000a          <ttc align=\"round\" code=\"alignh\" point=\"ah01\"/>\\u000a          <ttc code=\"singleh\" point1=\"ah01\" point2=\"sh01\" stem=\"X: 208\"/>\\u000a          <ttc align=\"round\" code=\"singleh\" point1=\"lsb\" point2=\"sh02\"/>\\u000a          <ttc code=\"interpolateh\" point=\"ih01\" point1=\"sh02\" point2=\"sh01\"/>\\u000a          <ttc code=\"singleh\" point1=\"sh02\" point2=\"sh03\" stem=\"X: 208\"/>\\u000a          <ttc code=\"interpolateh\" point=\"ih02\" point1=\"sh03\" point2=\"ah01\"/>\\u000a          <ttc code=\"singleh\" point1=\"sh01\" point2=\"rsb\" round=\"true\"/>\\u000a          <ttc code=\"alignt\" point=\"at01\" zone=\"t: 1\"/>\\u000a          <ttc code=\"alignt\" point=\"at02\" zone=\"t: 1\"/>\\u000a          <ttc code=\"alignb\" point=\"ih01\" zone=\"b: 0\"/>\\u000a          <ttc code=\"singlev\" point1=\"ih01\" point2=\"ih02\" stem=\"Y: 171\"/>\\u000a        </ttProgram>\\u000a      </data>
p15
g4
tp16
Rp17
Ntp18
s."
EndChar
StartChar: W
Encoding: 81 87 81
GlifName: W_
Width: 1300
VWidth: 0
Flags: W
LayerCount: 2
Fore
SplineSet
484 700 m 257,0,-1
NamedP: "hr00"
 580 1100 l 257,1,-1
NamedP: "sh01"
 720 1100 l 257,2,-1
NamedP: "sh02"
 823 700 l 257,3,-1
 894 200 l 257,4,-1
NamedP: "ah02"
 898 200 l 257,5,-1
NamedP: "iv01"
 930 660 l 257,6,-1
 1083 1500 l 257,7,-1
NamedP: "sh03"
 1260 1500 l 257,8,-1
NamedP: "sh04"
 988 0 l 257,9,-1
NamedP: "ab01"
 807 0 l 257,10,-1
NamedP: "sh05"
 711 450 l 257,11,-1
 652 950 l 257,12,-1
NamedP: "ah03"
 648 950 l 257,13,-1
 590 450 l 257,14,-1
 492 0 l 257,15,-1
NamedP: "sh06"
 314 0 l 257,16,-1
 38 1500 l 257,17,-1
NamedP: "sh08"
 212 1520 l 257,18,-1
NamedP: "sh07"
 380 660 l 257,19,-1
 411 200 l 257,20,-1
NamedP: "ah01"
 415 200 l 257,21,-1
NamedP: "iv02"
 484 700 l 257,0,-1
NamedP: "hr00"
EndSplineSet
PickledDataWithLists: "(dp0
Vcom.adobe.type.autohint
p1
(c_codecs
encode
p2
(Vdata
p3
Vlatin1
p4
tp5
Rp6
g2
(V<data>\\u000a        <hintSetList>\\u000a          <hintset pointTag=\"hr00\">\\u000a            <hstem pos=\"21\" width=\"-21\"/>\\u000a            <hstem pos=\"1520\" width=\"-20\"/>\\u000a          </hintset>\\u000a        </hintSetList>\\u000a      </data>
p7
g4
tp8
Rp9
Ntp10
sVcom.fontlab.ttprogram
p11
(g2
(Vdata
p12
g4
tp13
Rp14
g2
(V<data>\\u000a        <ttProgram>\\u000a          <ttc align=\"round\" code=\"alignh\" point=\"ah01\"/>\\u000a          <ttc align=\"round\" code=\"alignh\" point=\"ah02\"/>\\u000a          <ttc align=\"round\" code=\"alignh\" point=\"ah03\"/>\\u000a          <ttc code=\"singleh\" point1=\"ah01\" point2=\"sh01\"/>\\u000a          <ttc code=\"singleh\" point1=\"ah02\" point2=\"sh02\"/>\\u000a          <ttc code=\"singleh\" point1=\"ah02\" point2=\"sh03\"/>\\u000a          <ttc code=\"singleh\" point1=\"sh03\" point2=\"sh04\" stem=\"X: dia Lite\"/>\\u000a          <ttc code=\"singleh\" point1=\"ah03\" point2=\"sh05\"/>\\u000a          <ttc code=\"singleh\" point1=\"ah03\" point2=\"sh06\"/>\\u000a          <ttc code=\"singleh\" point1=\"ah01\" point2=\"sh07\"/>\\u000a          <ttc code=\"singleh\" point1=\"sh07\" point2=\"sh08\" stem=\"X: dia Fat\"/>\\u000a          <ttc code=\"alignt\" point=\"sh07\" zone=\"t: 1\"/>\\u000a          <ttc code=\"alignb\" point=\"sh06\" zone=\"b: 0\"/>\\u000a          <ttc code=\"alignb\" point=\"ab01\" zone=\"b: 0\"/>\\u000a          <ttc code=\"interpolatev\" point=\"iv01\" point1=\"sh07\" point2=\"ab01\"/>\\u000a          <ttc code=\"interpolatev\" point=\"ah03\" point1=\"sh07\" point2=\"ab01\"/>\\u000a          <ttc code=\"interpolatev\" point=\"iv02\" point1=\"sh07\" point2=\"ab01\"/>\\u000a        </ttProgram>\\u000a      </data>
p15
g4
tp16
Rp17
Ntp18
s."
EndChar
StartChar: backslash
Encoding: 132 92 132
GlifName: backslash
Width: 1300
VWidth: 0
Flags: W
LayerCount: 2
Fore
SplineSet
175 1600 m 257,0,-1
 375 1600 l 257,1,-1
 1085 -100 l 257,2,-1
 875 -100 l 257,3,-1
 175 1600 l 257,0,-1
EndSplineSet
EndChar
StartChar: bracketright
Encoding: 159 93 159
GlifName: bracketright
Width: 1300
VWidth: 0
Flags: W
LayerCount: 2
Fore
SplineSet
978 -220 m 257,0,-1
NamedP: "dh02"
 1000 -420 l 257,1,-1
NamedP: "dv01"
 428 -420 l 257,2,-1
 428 -270 l 257,3,-1
 800 -270 l 257,4,-1
NamedP: "dv02"
 780 -70 l 257,5,-1
NamedP: "dh01"
 780 1170 l 257,6,-1
 800 1370 l 257,7,-1
NamedP: "sv01"
 428 1370 l 257,8,-1
 428 1520 l 257,9,-1
NamedP: "at01"
 1000 1520 l 257,10,-1
 978 1320 l 257,11,-1
 978 -220 l 257,0,-1
NamedP: "dh02"
EndSplineSet
PickledDataWithLists: "(dp0
Vcom.adobe.type.autohint
p1
(c_codecs
encode
p2
(Vdata
p3
Vlatin1
p4
tp5
Rp6
g2
(V<data>\\u000a        <hintSetList>\\u000a          <hintset pointTag=\"dh02\">\\u000a            <hstem pos=\"-420\" width=\"150\"/>\\u000a            <hstem pos=\"1370\" width=\"150\"/>\\u000a            <vstem pos=\"480\" width=\"198\"/>\\u000a          </hintset>\\u000a        </hintSetList>\\u000a      </data>
p7
g4
tp8
Rp9
Ntp10
sVcom.fontlab.ttprogram
p11
(g2
(Vdata
p12
g4
tp13
Rp14
g2
(V<data>\\u000a        <ttProgram>\\u000a          <ttc code=\"doubleh\" point1=\"dh01\" point2=\"dh02\" stem=\"X: 208\"/>\\u000a          <ttc code=\"alignt\" point=\"at01\" zone=\"t: 1\"/>\\u000a          <ttc code=\"doublev\" point1=\"dv01\" point2=\"dv02\" stem=\"Y: 153\"/>\\u000a          <ttc code=\"singlev\" point1=\"at01\" point2=\"sv01\" stem=\"Y: 153\"/>\\u000a        </ttProgram>\\u000a      </data>
p15
g4
tp16
Rp17
Ntp18
s."
EndChar
StartChar: asciicircum
Encoding: 123 94 123
GlifName: asciicircum
Width: 1300
VWidth: 0
Flags: W
LayerCount: 2
Fore
SplineSet
1179 912 m 257,0,-1
NamedP: "ah02"
 978 912 l 257,1,-1
NamedP: "sh01"
 697 1239 l 257,2,-1
 652 1350 l 257,3,-1
NamedP: "ih01"
 608 1241 l 257,4,-1
 338 914 l 257,5,-1
NamedP: "sh02"
 122 914 l 257,6,-1
NamedP: "ah01"
 580 1500 l 257,7,-1
NamedP: "ih02"
 709 1517 l 257,8,-1
NamedP: "ih03"
 1179 912 l 257,0,-1
NamedP: "ah02"
EndSplineSet
PickledDataWithLists: "(dp0
Vcom.fontlab.ttprogram
p1
(c_codecs
encode
p2
(Vdata
p3
Vlatin1
p4
tp5
Rp6
g2
(V<data>\\u000a        <ttProgram>\\u000a          <ttc align=\"round\" code=\"alignh\" point=\"ah01\"/>\\u000a          <ttc align=\"round\" code=\"alignh\" point=\"ah02\"/>\\u000a          <ttc code=\"singleh\" point1=\"ah02\" point2=\"sh01\" stem=\"X: 199\"/>\\u000a          <ttc code=\"interpolateh\" point=\"ih01\" point1=\"ah01\" point2=\"ah02\"/>\\u000a          <ttc code=\"singleh\" point1=\"ah01\" point2=\"sh02\" stem=\"X: 208\"/>\\u000a          <ttc code=\"interpolateh\" point=\"ih02\" point1=\"sh02\" point2=\"ah02\"/>\\u000a          <ttc code=\"interpolateh\" point=\"ih03\" point1=\"sh01\" point2=\"ah01\"/>\\u000a          <ttc align=\"round\" code=\"alignv\" point=\"sh02\"/>\\u000a          <ttc align=\"round\" code=\"alignv\" point=\"sh01\"/>\\u000a          <ttc code=\"alignt\" point=\"ih02\" zone=\"t: 1\"/>\\u000a          <ttc code=\"alignt\" point=\"ih03\" zone=\"t: 1\"/>\\u000a        </ttProgram>\\u000a      </data>
p7
g4
tp8
Rp9
Ntp10
s."
EndChar
StartChar: h
Encoding: 275 104 275
GlifName: h
Width: 1300
VWidth: 0
Flags: W
LayerCount: 2
Fore
SplineSet
391 0 m 257,0,-1
NamedP: "sh02"
 211 0 l 257,1,-1
NamedP: "sh01"
 211 1400 l 257,2,-1
 191 1600 l 257,3,-1
 391 1620 l 257,4,-1
NamedP: "sh03"
 391 950 l 257,5,-1
NamedP: "iv01"
 480 1065 l 257,6,7
 519 1087 519 1087 592 1102 c 128,-1,8
 665 1117 665 1117 780 1117 c 257,9,10
NamedP: "av01"
 931 1117 931 1117 1010.5 1017.5 c 128,-1,11
 1090 918 1090 918 1090 730 c 257,12,-1
 1090 0 l 257,13,-1
NamedP: "sh04"
 900 0 l 257,14,-1
NamedP: "ah01"
 900 709 l 257,15,16
 900 776 900 776 888.5 823 c 128,-1,17
 877 870 877 870 856 900 c 128,-1,18
 835 930 835 930 804 943.5 c 128,-1,19
 773 957 773 957 734 957 c 257,20,21
NamedP: "ih01"
 674 957 674 957 619.5 945 c 128,-1,22
 565 933 565 933 520 914.5 c 128,-1,23
 475 896 475 896 441.5 874 c 128,-1,24
 408 852 408 852 391 833 c 257,25,-1
 391 0 l 257,0,-1
NamedP: "sh02"
EndSplineSet
PickledDataWithLists: "(dp0
Vcom.adobe.type.autohint
p1
(c_codecs
encode
p2
(Vdata
p3
Vlatin1
p4
tp5
Rp6
g2
(V<data>\\u000a        <hintSetList>\\u000a          <hintset pointTag=\"sh02\">\\u000a            <hstem pos=\"21\" width=\"-21\"/>\\u000a            <hstem pos=\"957\" width=\"160\"/>\\u000a            <hstem pos=\"1620\" width=\"-20\"/>\\u000a            <vstem pos=\"201\" width=\"190\"/>\\u000a            <vstem pos=\"811\" width=\"190\"/>\\u000a          </hintset>\\u000a        </hintSetList>\\u000a      </data>
p7
g4
tp8
Rp9
Ntp10
sVcom.fontlab.ttprogram
p11
(g2
(Vdata
p12
g4
tp13
Rp14
g2
(V<data>\\u000a        <ttProgram>\\u000a          <ttc align=\"round\" code=\"alignh\" point=\"lsb\"/>\\u000a          <ttc align=\"right\" code=\"alignh\" point=\"ah01\"/>\\u000a          <ttc align=\"round\" code=\"singleh\" point1=\"lsb\" point2=\"sh01\"/>\\u000a          <ttc code=\"singleh\" point1=\"sh01\" point2=\"sh02\" stem=\"X: 190\"/>\\u000a          <ttc code=\"singleh\" point1=\"sh02\" point2=\"sh03\"/>\\u000a          <ttc code=\"singleh\" point1=\"ah01\" point2=\"sh04\" stem=\"X: 190\"/>\\u000a          <ttc code=\"interpolateh\" point=\"ih01\" point1=\"sh02\" point2=\"ah01\"/>\\u000a          <ttc code=\"singleh\" point1=\"sh04\" point2=\"rsb\" round=\"true\"/>\\u000a          <ttc align=\"round\" code=\"alignv\" point=\"sh03\"/>\\u000a          <ttc align=\"round\" code=\"alignv\" point=\"av01\"/>\\u000a          <ttc code=\"alignb\" point=\"sh02\" zone=\"b: 0\"/>\\u000a          <ttc code=\"alignb\" point=\"sh04\" zone=\"b: 0\"/>\\u000a          <ttc code=\"interpolatev\" point=\"iv01\" point1=\"sh02\" point2=\"sh03\"/>\\u000a          <ttc code=\"singlev\" point1=\"av01\" point2=\"ih01\" stem=\"Y: 162\"/>\\u000a        </ttProgram>\\u000a      </data>
p15
g4
tp16
Rp17
Ntp18
s."
EndChar
StartChar: j
Encoding: 298 106 298
GlifName: j
Width: 1300
VWidth: 0
Flags: W
LayerCount: 2
Fore
SplineSet
695 1500 m 257,0,-1
NamedP: "sh01"
 897 1500 l 257,1,-1
NamedP: "sh02"
 897 1300 l 257,2,-1
NamedP: "sv01"
 695 1300 l 257,3,-1
 695 1500 l 257,0,-1
NamedP: "sh01"
741 980 m 257,4,-1
NamedP: "ah01"
 601 940 l 257,5,-1
 400 940 l 257,6,-1
 380 1100 l 257,7,-1
NamedP: "ah02"
 891 1100 l 257,8,-1
 891 -97 l 257,9,10
NamedP: "dh02"
 891 -186 891 -186 879.5 -263 c 128,-1,11
 868 -340 868 -340 834 -396.5 c 128,-1,12
 800 -453 800 -453 739.5 -485 c 128,-1,13
 679 -517 679 -517 581 -517 c 257,14,15
NamedP: "ab01"
 515 -517 515 -517 459 -506.5 c 128,-1,16
 403 -496 403 -496 361 -483.5 c 128,-1,17
 319 -471 319 -471 293 -459 c 128,-1,18
 267 -447 267 -447 261 -444 c 257,19,-1
NamedP: "ah03"
 300 -290 l 257,20,21
 306 -292 306 -292 330.5 -301 c 128,-1,22
 355 -310 355 -310 392 -320.5 c 128,-1,23
 429 -331 429 -331 475 -339 c 128,-1,24
 521 -347 521 -347 571 -347 c 257,25,26
NamedP: "av01"
 608 -347 608 -347 633 -329 c 128,-1,27
 658 -311 658 -311 673 -279 c 128,-1,28
 688 -247 688 -247 694.5 -203 c 128,-1,29
 701 -159 701 -159 701 -107 c 257,30,-1
NamedP: "dh01"
 701 920 l 257,31,-1
 741 980 l 257,4,-1
NamedP: "ah01"
EndSplineSet
PickledDataWithLists: "(dp0
Vcom.adobe.type.autohint
p1
(c_codecs
encode
p2
(Vdata
p3
Vlatin1
p4
tp5
Rp6
g2
(V<data>\\u000a        <hintSetList>\\u000a          <hintset pointTag=\"sh01\">\\u000a            <hstem pos=\"-517\" width=\"160\"/>\\u000a            <hstem pos=\"1300\" width=\"200\"/>\\u000a            <vstem pos=\"101\" width=\"190\"/>\\u000a          </hintset>\\u000a        </hintSetList>\\u000a      </data>
p7
g4
tp8
Rp9
Ntp10
sVcom.fontlab.ttprogram
p11
(g2
(Vdata
p12
g4
tp13
Rp14
g2
(V<data>\\u000a        <ttProgram>\\u000a          <ttc align=\"round\" code=\"alignh\" point=\"ah01\"/>\\u000a          <ttc align=\"round\" code=\"alignh\" point=\"ah02\"/>\\u000a          <ttc align=\"round\" code=\"alignh\" point=\"ah03\"/>\\u000a          <ttc code=\"doubleh\" point1=\"dh01\" point2=\"dh02\" stem=\"X: 190\"/>\\u000a          <ttc code=\"singleh\" point1=\"dh01\" point2=\"sh01\"/>\\u000a          <ttc code=\"singleh\" point1=\"dh02\" point2=\"sh02\"/>\\u000a          <ttc align=\"round\" code=\"alignv\" point=\"ah01\"/>\\u000a          <ttc align=\"round\" code=\"alignv\" point=\"av01\"/>\\u000a          <ttc align=\"round\" code=\"alignv\" point=\"av02\"/>\\u000a          <ttc code=\"alignt\" point=\"sh01\" zone=\"t: 1\"/>\\u000a          <ttc code=\"alignb\" point=\"ab01\" zone=\"b: -500\"/>\\u000a          <ttc code=\"singlev\" point1=\"sh01\" point2=\"sv01\"/>\\u000a          <ttc code=\"singlev\" point1=\"av02\" point2=\"ah03\" stem=\"Y: 162\"/>\\u000a        </ttProgram>\\u000a      </data>
p15
g4
tp16
Rp17
Ntp18
s."
EndChar
StartChar: k
Encoding: 299 107 299
GlifName: k
Width: 1300
VWidth: 0
Flags: W
LayerCount: 2
Fore
SplineSet
211 0 m 257,0,-1
NamedP: "dh01"
 211 1420 l 257,1,-1
 191 1600 l 257,2,-1
 391 1620 l 257,3,-1
NamedP: "sh01"
 391 690 l 257,4,-1
 781 1100 l 257,5,-1
NamedP: "fh01"
 1010 1100 l 257,6,-1
NamedP: "sv01"
 630 690 l 257,7,-1
NamedP: "fh02"
 452 627 l 257,8,-1
NamedP: "av01"
 630 567 l 257,9,-1
NamedP: "fh03"
 1121 0 l 257,10,-1
NamedP: "ab01"
 885 0 l 257,11,-1
NamedP: "fh04"
 391 557 l 257,12,-1
NamedP: "iv01"
 391 0 l 257,13,-1
NamedP: "dh02"
 211 0 l 257,0,-1
NamedP: "dh01"
EndSplineSet
PickledDataWithLists: "(dp0
Vcom.adobe.type.autohint
p1
(c_codecs
encode
p2
(Vdata
p3
Vlatin1
p4
tp5
Rp6
g2
(V<data>\\u000a        <hintSetList>\\u000a          <hintset pointTag=\"dh01\">\\u000a            <hstem pos=\"21\" width=\"-21\"/>\\u000a            <hstem pos=\"1100\" width=\"-20\"/>\\u000a            <hstem pos=\"1620\" width=\"-20\"/>\\u000a            <vstem pos=\"201\" width=\"190\"/>\\u000a          </hintset>\\u000a        </hintSetList>\\u000a      </data>
p7
g4
tp8
Rp9
Ntp10
sVcom.fontlab.ttprogram
p11
(g2
(Vdata
p12
g4
tp13
Rp14
g2
(V<data>\\u000a        <ttProgram>\\u000a          <ttc code=\"doubleh\" point1=\"dh01\" point2=\"dh02\" stem=\"X: 190\"/>\\u000a          <ttc code=\"singleh\" point1=\"dh02\" point2=\"sh01\"/>\\u000a          <ttc align=\"round\" code=\"alignv\" point=\"sh01\"/>\\u000a          <ttc align=\"center\" code=\"alignv\" point=\"av01\"/>\\u000a          <ttc code=\"alignb\" point=\"dh01\" zone=\"b: 0\"/>\\u000a          <ttc code=\"alignb\" point=\"ab01\" zone=\"b: 0\"/>\\u000a          <ttc code=\"singlev\" point1=\"av01\" point2=\"sv01\"/>\\u000a          <ttc code=\"interpolatev\" point=\"iv01\" point1=\"dh01\" point2=\"sh01\"/>\\u000a          <ttc code=\"fdeltah\" delta=\"1\" point=\"fh01\" ppm1=\"12\" ppm2=\"12\"/>\\u000a          <ttc code=\"fdeltah\" delta=\"1\" point=\"fh01\" ppm1=\"32\" ppm2=\"32\"/>\\u000a          <ttc code=\"fdeltah\" delta=\"2\" point=\"fh01\" ppm1=\"13\" ppm2=\"13\"/>\\u000a          <ttc code=\"fdeltah\" delta=\"2\" point=\"fh01\" ppm1=\"30\" ppm2=\"31\"/>\\u000a          <ttc code=\"fdeltah\" delta=\"2\" point=\"fh01\" ppm1=\"33\" ppm2=\"33\"/>\\u000a          <ttc code=\"fdeltah\" delta=\"-4\" point=\"sv01\" ppm1=\"33\" ppm2=\"33\"/>\\u000a          <ttc code=\"fdeltah\" delta=\"-3\" point=\"sv01\" ppm1=\"16\" ppm2=\"16\"/>\\u000a          <ttc code=\"fdeltah\" delta=\"-2\" point=\"sv01\" ppm1=\"15\" ppm2=\"15\"/>\\u000a          <ttc code=\"fdeltah\" delta=\"-2\" point=\"sv01\" ppm1=\"19\" ppm2=\"19\"/>\\u000a          <ttc code=\"fdeltah\" delta=\"-2\" point=\"sv01\" ppm1=\"29\" ppm2=\"29\"/>\\u000a          <ttc code=\"fdeltah\" delta=\"-1\" point=\"sv01\" ppm1=\"12\" ppm2=\"12\"/>\\u000a          <ttc code=\"fdeltah\" delta=\"-1\" point=\"sv01\" ppm1=\"32\" ppm2=\"32\"/>\\u000a          <ttc code=\"fdeltah\" delta=\"-1\" point=\"sv01\" ppm1=\"42\" ppm2=\"42\"/>\\u000a          <ttc code=\"fdeltah\" delta=\"1\" point=\"sv01\" ppm1=\"22\" ppm2=\"22\"/>\\u000a          <ttc code=\"fdeltah\" delta=\"1\" point=\"sv01\" ppm1=\"37\" ppm2=\"37\"/>\\u000a          <ttc code=\"fdeltah\" delta=\"2\" point=\"sv01\" ppm1=\"20\" ppm2=\"20\"/>\\u000a          <ttc code=\"fdeltah\" delta=\"2\" point=\"sv01\" ppm1=\"36\" ppm2=\"36\"/>\\u000a          <ttc code=\"fdeltah\" delta=\"-2\" point=\"fh02\" ppm1=\"32\" ppm2=\"33\"/>\\u000a          <ttc code=\"fdeltah\" delta=\"-1\" point=\"fh02\" ppm1=\"19\" ppm2=\"19\"/>\\u000a          <ttc code=\"fdeltah\" delta=\"-1\" point=\"fh02\" ppm1=\"31\" ppm2=\"31\"/>\\u000a          <ttc code=\"fdeltah\" delta=\"-1\" point=\"fh02\" ppm1=\"43\" ppm2=\"43\"/>\\u000a          <ttc code=\"fdeltah\" delta=\"-2\" point=\"fh03\" ppm1=\"19\" ppm2=\"19\"/>\\u000a          <ttc code=\"fdeltah\" delta=\"-2\" point=\"fh03\" ppm1=\"30\" ppm2=\"31\"/>\\u000a          <ttc code=\"fdeltah\" delta=\"-1\" point=\"fh03\" ppm1=\"20\" ppm2=\"20\"/>\\u000a          <ttc code=\"fdeltah\" delta=\"-1\" point=\"fh03\" ppm1=\"43\" ppm2=\"43\"/>\\u000a          <ttc code=\"fdeltah\" delta=\"-5\" point=\"ab01\" ppm1=\"41\" ppm2=\"41\"/>\\u000a          <ttc code=\"fdeltah\" delta=\"-3\" point=\"ab01\" ppm1=\"19\" ppm2=\"19\"/>\\u000a          <ttc code=\"fdeltah\" delta=\"-1\" point=\"ab01\" ppm1=\"24\" ppm2=\"24\"/>\\u000a          <ttc code=\"fdeltah\" delta=\"-1\" point=\"ab01\" ppm1=\"27\" ppm2=\"27\"/>\\u000a          <ttc code=\"fdeltah\" delta=\"1\" point=\"ab01\" ppm1=\"13\" ppm2=\"13\"/>\\u000a          <ttc code=\"fdeltah\" delta=\"1\" point=\"ab01\" ppm1=\"22\" ppm2=\"22\"/>\\u000a          <ttc code=\"fdeltah\" delta=\"2\" point=\"ab01\" ppm1=\"33\" ppm2=\"33\"/>\\u000a          <ttc code=\"fdeltah\" delta=\"3\" point=\"ab01\" ppm1=\"11\" ppm2=\"11\"/>\\u000a          <ttc code=\"fdeltah\" delta=\"4\" point=\"ab01\" ppm1=\"21\" ppm2=\"21\"/>\\u000a          <ttc code=\"fdeltah\" delta=\"4\" point=\"ab01\" ppm1=\"30\" ppm2=\"30\"/>\\u000a          <ttc code=\"fdeltah\" delta=\"-3\" point=\"fh04\" ppm1=\"27\" ppm2=\"27\"/>\\u000a          <ttc code=\"fdeltah\" delta=\"-2\" point=\"fh04\" ppm1=\"29\" ppm2=\"29\"/>\\u000a          <ttc code=\"fdeltah\" delta=\"-2\" point=\"fh04\" ppm1=\"33\" ppm2=\"33\"/>\\u000a          <ttc code=\"fdeltah\" delta=\"1\" point=\"fh04\" ppm1=\"12\" ppm2=\"12\"/>\\u000a          <ttc code=\"fdeltah\" delta=\"2\" point=\"fh04\" ppm1=\"16\" ppm2=\"16\"/>\\u000a          <ttc code=\"fdeltah\" delta=\"2\" point=\"fh04\" ppm1=\"25\" ppm2=\"25\"/>\\u000a          <ttc code=\"fdeltah\" delta=\"3\" point=\"fh04\" ppm1=\"11\" ppm2=\"11\"/>\\u000a          <ttc code=\"fdeltav\" delta=\"-3\" point=\"iv01\" ppm1=\"30\" ppm2=\"30\"/>\\u000a          <ttc code=\"fdeltav\" delta=\"-2\" point=\"iv01\" ppm1=\"19\" ppm2=\"20\"/>\\u000a          <ttc code=\"fdeltav\" delta=\"-2\" point=\"iv01\" ppm1=\"22\" ppm2=\"22\"/>\\u000a          <ttc code=\"fdeltav\" delta=\"-2\" point=\"iv01\" ppm1=\"31\" ppm2=\"31\"/>\\u000a        </ttProgram>\\u000a      </data>
p15
g4
tp16
Rp17
Ntp18
s."
EndChar
StartChar: n
Encoding: 326 110 326
GlifName: n
Width: 1300
VWidth: 0
Flags: W
LayerCount: 2
Fore
SplineSet
391 0 m 257,0,-1
NamedP: "sh02"
 211 0 l 257,1,-1
NamedP: "sh01"
 211 1100 l 257,2,-1
 391 1120 l 257,3,-1
NamedP: "sh03"
 391 927 l 257,4,-1
NamedP: "ih01"
 452 1044 l 257,5,6
 470 1056 470 1056 494.5 1069 c 128,-1,7
 519 1082 519 1082 554 1092.5 c 128,-1,8
 589 1103 589 1103 637 1110 c 128,-1,9
 685 1117 685 1117 750 1117 c 257,10,11
NamedP: "av01"
 829 1117 829 1117 892.5 1091.5 c 128,-1,12
 956 1066 956 1066 999.5 1018 c 128,-1,13
 1043 970 1043 970 1066.5 902 c 128,-1,14
 1090 834 1090 834 1090 750 c 257,15,-1
 1090 0 l 257,16,-1
NamedP: "sh04"
 910 0 l 257,17,-1
NamedP: "ah01"
 910 750 l 257,18,19
 910 804 910 804 892.5 843 c 128,-1,20
 875 882 875 882 844 907.5 c 128,-1,21
 813 933 813 933 772 945 c 128,-1,22
 731 957 731 957 685 957 c 257,23,24
NamedP: "sv01"
 637 957 637 957 592.5 945 c 128,-1,25
 548 933 548 933 510 914.5 c 128,-1,26
 472 896 472 896 441.5 874.5 c 128,-1,27
 411 853 411 853 391 834 c 257,28,-1
 391 0 l 257,0,-1
NamedP: "sh02"
EndSplineSet
PickledDataWithLists: "(dp0
Vcom.adobe.type.autohint
p1
(c_codecs
encode
p2
(Vdata
p3
Vlatin1
p4
tp5
Rp6
g2
(V<data>\\u000a        <hintSetList>\\u000a          <hintset pointTag=\"sh02\">\\u000a            <hstem pos=\"21\" width=\"-21\"/>\\u000a            <hstem pos=\"957\" width=\"160\"/>\\u000a            <vstem pos=\"201\" width=\"190\"/>\\u000a            <vstem pos=\"811\" width=\"190\"/>\\u000a          </hintset>\\u000a        </hintSetList>\\u000a      </data>
p7
g4
tp8
Rp9
Ntp10
sVcom.fontlab.ttprogram
p11
(g2
(Vdata
p12
g4
tp13
Rp14
g2
(V<data>\\u000a        <ttProgram>\\u000a          <ttc align=\"round\" code=\"alignh\" point=\"lsb\"/>\\u000a          <ttc align=\"round\" code=\"alignh\" point=\"ah01\"/>\\u000a          <ttc align=\"round\" code=\"singleh\" point1=\"lsb\" point2=\"sh01\"/>\\u000a          <ttc code=\"singleh\" point1=\"sh01\" point2=\"sh02\" stem=\"X: 199\"/>\\u000a          <ttc code=\"singleh\" point1=\"sh02\" point2=\"sh03\"/>\\u000a          <ttc code=\"mdeltah\" delta=\"8\" point=\"ah01\" ppm1=\"15\" ppm2=\"16\"/>\\u000a          <ttc code=\"singleh\" point1=\"ah01\" point2=\"sh04\" stem=\"X: 199\"/>\\u000a          <ttc code=\"interpolateh\" point=\"ih01\" point1=\"sh01\" point2=\"sh04\"/>\\u000a          <ttc code=\"singleh\" point1=\"sh04\" point2=\"rsb\" round=\"true\"/>\\u000a          <ttc align=\"round\" code=\"alignv\" point=\"sh03\"/>\\u000a          <ttc align=\"round\" code=\"alignv\" point=\"av01\"/>\\u000a          <ttc code=\"alignb\" point=\"sh02\" zone=\"b: 0\"/>\\u000a          <ttc code=\"alignb\" point=\"sh04\" zone=\"b: 0\"/>\\u000a          <ttc code=\"mdeltav\" delta=\"-5\" point=\"sh03\" ppm1=\"42\" ppm2=\"42\"/>\\u000a          <ttc code=\"interpolatev\" point=\"ih01\" point1=\"sh02\" point2=\"sh03\"/>\\u000a          <ttc code=\"singlev\" point1=\"av01\" point2=\"sv01\" stem=\"Y: 162\"/>\\u000a        </ttProgram>\\u000a      </data>
p15
g4
tp16
Rp17
Ntp18
s."
EndChar
StartChar: p
Encoding: 360 112 360
GlifName: p
Width: 1300
VWidth: 0
Flags: W
LayerCount: 2
Fore
SplineSet
390 160 m 257,0,-1
NamedP: "sh03"
 554 160 l 257,1,2
 646 160 646 160 721 190.5 c 128,-1,3
 796 221 796 221 849 276 c 128,-1,4
 902 331 902 331 931 408 c 128,-1,5
 960 485 960 485 960 578 c 257,6,7
NamedP: "ah01"
 960 676 960 676 933 747.5 c 128,-1,8
 906 819 906 819 864 865.5 c 128,-1,9
 822 912 822 912 770.5 934.5 c 128,-1,10
 719 957 719 957 670 957 c 257,11,12
NamedP: "sv01"
 621 957 621 957 578.5 944.5 c 128,-1,13
 536 932 536 932 500.5 913 c 128,-1,14
 465 894 465 894 437 871 c 128,-1,15
 409 848 409 848 390 827 c 257,16,-1
 390 160 l 257,0,-1
NamedP: "sh03"
210 -500 m 257,17,-1
NamedP: "sh01"
 210 1100 l 257,18,-1
 390 1120 l 257,19,-1
NamedP: "sh04"
 390 944 l 257,20,-1
NamedP: "ih01"
 485 1071 l 257,21,22
 514 1088 514 1088 567.5 1102.5 c 128,-1,23
 621 1117 621 1117 699 1117 c 257,24,25
NamedP: "av01"
 782 1117 782 1117 863 1078 c 128,-1,26
 944 1039 944 1039 1007.5 967 c 128,-1,27
 1071 895 1071 895 1110.5 793 c 128,-1,28
 1150 691 1150 691 1150 565 c 257,29,30
NamedP: "sh05"
 1150 442 1150 442 1102.5 338.5 c 128,-1,31
 1055 235 1055 235 971.5 159.5 c 128,-1,32
 888 84 888 84 776 42 c 128,-1,33
 664 0 664 0 535 0 c 257,34,-1
NamedP: "ab01"
 390 0 l 257,35,-1
 390 -500 l 257,36,-1
NamedP: "sh02"
 210 -500 l 257,17,-1
NamedP: "sh01"
EndSplineSet
PickledDataWithLists: "(dp0
Vcom.adobe.type.autohint
p1
(c_codecs
encode
p2
(Vdata
p3
Vlatin1
p4
tp5
Rp6
g2
(V<data>\\u000a        <hintSetList>\\u000a          <hintset pointTag=\"sh03\">\\u000a            <hstem pos=\"-479\" width=\"-21\"/>\\u000a            <hstem pos=\"0\" width=\"160\"/>\\u000a            <hstem pos=\"957\" width=\"160\"/>\\u000a            <vstem pos=\"200\" width=\"190\"/>\\u000a            <vstem pos=\"910\" width=\"190\"/>\\u000a          </hintset>\\u000a        </hintSetList>\\u000a      </data>
p7
g4
tp8
Rp9
Ntp10
sVcom.fontlab.ttprogram
p11
(g2
(Vdata
p12
g4
tp13
Rp14
g2
(V<data>\\u000a        <ttProgram>\\u000a          <ttc align=\"round\" code=\"alignh\" point=\"lsb\"/>\\u000a          <ttc align=\"round\" code=\"alignh\" point=\"ah01\"/>\\u000a          <ttc align=\"round\" code=\"singleh\" point1=\"lsb\" point2=\"sh01\"/>\\u000a          <ttc code=\"singleh\" point1=\"sh01\" point2=\"sh02\" stem=\"X: 190\"/>\\u000a          <ttc code=\"singleh\" point1=\"sh02\" point2=\"sh03\"/>\\u000a          <ttc code=\"singleh\" point1=\"sh02\" point2=\"sh04\"/>\\u000a          <ttc code=\"singleh\" point1=\"ah01\" point2=\"sh05\" stem=\"X: 190\"/>\\u000a          <ttc code=\"interpolateh\" point=\"ih01\" point1=\"sh01\" point2=\"sh05\"/>\\u000a          <ttc align=\"round\" code=\"alignv\" point=\"sh04\"/>\\u000a          <ttc align=\"round\" code=\"alignv\" point=\"av01\"/>\\u000a          <ttc align=\"round\" code=\"alignv\" point=\"sh01\"/>\\u000a          <ttc code=\"alignb\" point=\"ab01\" zone=\"b: 0\"/>\\u000a          <ttc code=\"singlev\" point1=\"ab01\" point2=\"sh03\" stem=\"Y: 162\"/>\\u000a          <ttc code=\"singlev\" point1=\"av01\" point2=\"sv01\" stem=\"Y: 162\"/>\\u000a          <ttc code=\"mdeltav\" delta=\"-5\" point=\"sh04\" ppm1=\"42\" ppm2=\"42\"/>\\u000a          <ttc code=\"interpolatev\" point=\"ih01\" point1=\"sh01\" point2=\"sh04\"/>\\u000a        </ttProgram>\\u000a      </data>
p15
g4
tp16
Rp17
Ntp18
s."
EndChar
StartChar: braceright
Encoding: 157 125 157
GlifName: braceright
Width: 1300
VWidth: 0
Flags: W
LayerCount: 2
Fore
SplineSet
1072 625 m 257,0,-1
NamedP: "iv01"
 1072 475 l 257,1,-1
NamedP: "ah05"
 950 475 l 257,2,3
 901 468 901 468 871.5 448 c 128,-1,4
 842 428 842 428 826 396 c 128,-1,5
 810 364 810 364 805 319.5 c 128,-1,6
 800 275 800 275 800 220 c 257,7,-1
 800 -20 l 257,8,9
 800 -105 800 -105 784.5 -178 c 128,-1,10
 769 -251 769 -251 731 -305 c 128,-1,11
 693 -359 693 -359 629.5 -389.5 c 128,-1,12
 566 -420 566 -420 470 -420 c 257,13,14
NamedP: "av01"
 424 -420 424 -420 391.5 -416.5 c 128,-1,15
 359 -413 359 -413 333.5 -406.5 c 128,-1,16
 308 -400 308 -400 287.5 -391.5 c 128,-1,17
 267 -383 267 -383 246 -373 c 257,18,-1
NamedP: "ah04"
 309 -250 l 257,19,20
NamedP: "sh01"
 328 -261 328 -261 360.5 -269 c 128,-1,21
 393 -277 393 -277 418 -277 c 257,22,-1
 431 -277 l 257,23,24
NamedP: "ah03"
 485 -273 485 -273 518.5 -254.5 c 128,-1,25
 552 -236 552 -236 570 -203.5 c 128,-1,26
 588 -171 588 -171 594 -125 c 128,-1,27
 600 -79 600 -79 600 -20 c 257,28,-1
 600 220 l 257,29,30
 600 271 600 271 605.5 319 c 128,-1,31
 611 367 611 367 624 409.5 c 128,-1,32
 637 452 637 452 657 487.5 c 128,-1,33
 677 523 677 523 707 550 c 257,34,35
NamedP: "ah06"
 648 604 648 604 624 690 c 128,-1,36
 600 776 600 776 600 880 c 257,37,-1
 600 1119 l 257,38,39
 600 1177 600 1177 594 1223.5 c 128,-1,40
 588 1270 588 1270 570 1302.5 c 128,-1,41
 552 1335 552 1335 518.5 1353.5 c 128,-1,42
 485 1372 485 1372 431 1376 c 257,43,-1
NamedP: "ah02"
 418 1376 l 257,44,45
 393 1376 393 1376 360.5 1368 c 128,-1,46
 328 1360 328 1360 309 1349 c 257,47,-1
NamedP: "sh02"
 246 1472 l 257,48,49
NamedP: "ah01"
 267 1482 267 1482 287.5 1490.5 c 128,-1,50
 308 1499 308 1499 333.5 1505 c 128,-1,51
 359 1511 359 1511 391.5 1514 c 128,-1,52
 424 1517 424 1517 470 1517 c 257,53,54
NamedP: "at01"
 566 1517 566 1517 629.5 1486.5 c 128,-1,55
 693 1456 693 1456 731 1403 c 128,-1,56
 769 1350 769 1350 784.5 1277 c 128,-1,57
 800 1204 800 1204 800 1119 c 257,58,-1
 800 880 l 257,59,60
 800 824 800 824 805 780 c 128,-1,61
 810 736 810 736 826 704 c 128,-1,62
 842 672 842 672 871.5 652 c 128,-1,63
 901 632 901 632 950 625 c 257,64,-1
 1072 625 l 257,0,-1
NamedP: "iv01"
EndSplineSet
PickledDataWithLists: "(dp0
Vcom.adobe.type.autohint
p1
(c_codecs
encode
p2
(Vdata
p3
Vlatin1
p4
tp5
Rp6
g2
(V<data>\\u000a        <hintSetList>\\u000a          <hintset pointTag=\"iv01\">\\u000a            <hstem pos=\"-399\" width=\"-21\"/>\\u000a            <hstem pos=\"475\" width=\"150\"/>\\u000a            <hstem pos=\"1519\" width=\"-20\"/>\\u000a            <vstem pos=\"500\" width=\"200\"/>\\u000a          </hintset>\\u000a        </hintSetList>\\u000a      </data>
p7
g4
tp8
Rp9
Ntp10
sVcom.fontlab.ttprogram
p11
(g2
(Vdata
p12
g4
tp13
Rp14
g2
(V<data>\\u000a        <ttProgram>\\u000a          <ttc align=\"round\" code=\"alignh\" point=\"ah01\"/>\\u000a          <ttc align=\"round\" code=\"alignh\" point=\"ah02\"/>\\u000a          <ttc align=\"round\" code=\"alignh\" point=\"ah03\"/>\\u000a          <ttc align=\"round\" code=\"alignh\" point=\"ah04\"/>\\u000a          <ttc align=\"round\" code=\"alignh\" point=\"ah05\"/>\\u000a          <ttc align=\"round\" code=\"alignh\" point=\"ah06\"/>\\u000a          <ttc code=\"singleh\" point1=\"ah04\" point2=\"sh01\" stem=\"X: dia Lite\"/>\\u000a          <ttc code=\"singleh\" point1=\"ah01\" point2=\"sh02\" stem=\"X: dia Lite\"/>\\u000a          <ttc align=\"round\" code=\"alignv\" point=\"av01\"/>\\u000a          <ttc code=\"alignt\" point=\"at01\" zone=\"t: 1\"/>\\u000a          <ttc code=\"interpolatev\" point=\"iv01\" point1=\"ah01\" point2=\"sh01\"/>\\u000a          <ttc code=\"interpolatev\" point=\"ah05\" point1=\"sh02\" point2=\"ah04\"/>\\u000a        </ttProgram>\\u000a      </data>
p15
g4
tp16
Rp17
Ntp18
s."
EndChar
StartChar: exclamdown
Encoding: 242 161 242
GlifName: exclamdown
Width: 1300
VWidth: 0
Flags: W
LayerCount: 2
Fore
SplineSet
605 -400 m 257,0,-1
 605 650 l 257,1,-1
 395 671 l 257,2,-1
 395 -400 l 257,3,-1
 605 -400 l 257,0,-1
378 994 m 257,4,5
 378 969 378 969 387.5 947 c 128,-1,6
 397 925 397 925 413.5 908.5 c 128,-1,7
 430 892 430 892 452 882.5 c 128,-1,8
 474 873 474 873 499 873 c 257,9,10
 524 873 524 873 546 882.5 c 128,-1,11
 568 892 568 892 584.5 908.5 c 128,-1,12
 601 925 601 925 610.5 947 c 128,-1,13
 620 969 620 969 620 994 c 257,14,15
 620 1019 620 1019 610.5 1041.5 c 128,-1,16
 601 1064 601 1064 585 1080.5 c 128,-1,17
 569 1097 569 1097 547 1107 c 128,-1,18
 525 1117 525 1117 500 1117 c 257,19,20
 474 1117 474 1117 452 1107 c 128,-1,21
 430 1097 430 1097 413.5 1080.5 c 128,-1,22
 397 1064 397 1064 387.5 1041.5 c 128,-1,23
 378 1019 378 1019 378 994 c 257,4,5
EndSplineSet
EndChar
StartChar: yen
Encoding: 583 165 583
GlifName: yen
Width: 1300
VWidth: 0
Flags: W
LayerCount: 2
Fore
SplineSet
100 550 m 257,0,-1
NamedP: "sv01"
 495 550 l 257,1,-1
 495 645 l 257,2,-1
NamedP: "sh01"
 467 700 l 257,3,-1
 100 700 l 257,4,-1
NamedP: "sv03"
 100 850 l 257,5,-1
NamedP: "ah02"
 390 850 l 257,6,-1
 59 1500 l 257,7,-1
NamedP: "sh02"
 263 1520 l 257,8,-1
 551 954 l 257,9,-1
 630 705 l 257,10,-1
 660 935 l 257,11,-1
 948 1500 l 257,12,-1
 1140 1500 l 257,13,-1
NamedP: "sh03"
 809 850 l 257,14,-1
 1100 850 l 257,15,-1
NamedP: "ah03"
 1100 700 l 257,16,-1
NamedP: "sv02"
 732 700 l 257,17,-1
 705 646 l 257,18,-1
NamedP: "sh05"
 705 550 l 257,19,-1
 1100 550 l 257,20,-1
NamedP: "av01"
 1100 400 l 257,21,-1
NamedP: "sv04"
 705 400 l 257,22,-1
 705 0 l 257,23,-1
NamedP: "sh04"
 495 0 l 257,24,-1
NamedP: "ah01"
 495 400 l 257,25,-1
 100 400 l 257,26,-1
NamedP: "sv05"
 100 550 l 257,0,-1
NamedP: "sv01"
EndSplineSet
PickledDataWithLists: "(dp0
Vcom.adobe.type.autohint
p1
(c_codecs
encode
p2
(Vdata
p3
Vlatin1
p4
tp5
Rp6
g2
(V<data>\\u000a        <hintSetList>\\u000a          <hintset pointTag=\"sv01\">\\u000a            <hstem pos=\"21\" width=\"-21\"/>\\u000a            <hstem pos=\"400\" width=\"150\"/>\\u000a            <hstem pos=\"700\" width=\"150\"/>\\u000a            <hstem pos=\"1518\" width=\"-20\"/>\\u000a            <vstem pos=\"500\" width=\"200\"/>\\u000a          </hintset>\\u000a        </hintSetList>\\u000a      </data>
p7
g4
tp8
Rp9
Ntp10
sVcom.fontlab.ttprogram
p11
(g2
(Vdata
p12
g4
tp13
Rp14
g2
(V<data>\\u000a        <ttProgram>\\u000a          <ttc align=\"round\" code=\"alignh\" point=\"ah01\"/>\\u000a          <ttc align=\"round\" code=\"alignh\" point=\"ah02\"/>\\u000a          <ttc align=\"round\" code=\"alignh\" point=\"ah03\"/>\\u000a          <ttc code=\"singleh\" point1=\"ah01\" point2=\"sh01\"/>\\u000a          <ttc code=\"singleh\" point1=\"ah02\" point2=\"sh02\"/>\\u000a          <ttc code=\"singleh\" point1=\"ah03\" point2=\"sh03\" round=\"true\"/>\\u000a          <ttc code=\"singleh\" point1=\"ah01\" point2=\"sh04\" stem=\"X: 208\"/>\\u000a          <ttc code=\"singleh\" point1=\"sh04\" point2=\"sh05\"/>\\u000a          <ttc align=\"round\" code=\"alignv\" point=\"ah03\"/>\\u000a          <ttc align=\"round\" code=\"alignv\" point=\"av01\"/>\\u000a          <ttc code=\"singlev\" point1=\"av01\" point2=\"sv01\"/>\\u000a          <ttc code=\"singlev\" point1=\"ah03\" point2=\"sv02\" stem=\"Y: 153\"/>\\u000a          <ttc code=\"singlev\" point1=\"sv02\" point2=\"sv03\"/>\\u000a          <ttc code=\"singlev\" point1=\"ah03\" point2=\"ah02\"/>\\u000a          <ttc code=\"singlev\" point1=\"av01\" point2=\"sv04\" stem=\"Y: 153\"/>\\u000a          <ttc code=\"singlev\" point1=\"sv04\" point2=\"sv05\"/>\\u000a        </ttProgram>\\u000a      </data>
p15
g4
tp16
Rp17
Ntp18
s."
EndChar
StartChar: copyright
Encoding: 198 169 198
GlifName: copyright
Width: 1300
VWidth: 0
Flags: W
LayerCount: 2
Fore
SplineSet
650 1517 m 256,0,1
NamedP: "pOV"
 456 1517 456 1517 318 1379 c 0,2,3
 180 1241 180 1241 180 1047 c 256,4,5
 180 852 180 852 318 714.5 c 0,6,7
 456 577 456 577 650 577 c 256,8,9
 844 577 844 577 982 714.5 c 0,10,11
 1120 852 1120 852 1120 1047 c 256,12,13
 1120 1241 1120 1241 982 1379 c 0,14,15
 844 1517 844 1517 650 1517 c 256,0,1
NamedP: "pOV"
650 663 m 256,16,17
 492 663 492 663 379 777 c 0,18,19
 266 891 266 891 266 1047 c 256,20,21
 266 1206 266 1206 378.5 1318.5 c 0,22,23
 491 1431 491 1431 650 1431 c 256,24,25
 809 1431 809 1431 921.5 1318.5 c 0,26,27
 1034 1206 1034 1206 1034 1047 c 256,28,29
 1034 889 1034 889 920 776 c 0,30,31
 806 663 806 663 650 663 c 256,16,17
810 1197 m 257,32,33
 791 1213 791 1213 756.5 1223 c 128,-1,34
 722 1233 722 1233 669 1233 c 257,35,36
 627 1233 627 1233 593.5 1218.5 c 128,-1,37
 560 1204 560 1204 537 1180 c 128,-1,38
 514 1156 514 1156 501.5 1123.5 c 128,-1,39
 489 1091 489 1091 489 1056 c 257,40,41
 489 1019 489 1019 501 985.5 c 128,-1,42
 513 952 513 952 536 926.5 c 128,-1,43
 559 901 559 901 593.5 885.5 c 128,-1,44
 628 870 628 870 674 870 c 257,45,46
 700 870 700 870 724 875.5 c 128,-1,47
 748 881 748 881 767.5 888.5 c 128,-1,48
 787 896 787 896 801 903.5 c 128,-1,49
 815 911 815 911 821 915 c 257,50,-1
 857 852 l 257,51,52
 849 846 849 846 834 836.5 c 128,-1,53
 819 827 819 827 796 817.5 c 128,-1,54
 773 808 773 808 741 801 c 128,-1,55
 709 794 709 794 667 794 c 257,56,57
 605 794 605 794 554 816.5 c 128,-1,58
 503 839 503 839 467 876 c 128,-1,59
 431 913 431 913 411.5 961 c 128,-1,60
 392 1009 392 1009 392 1062 c 257,61,62
 392 1108 392 1108 411 1152 c 128,-1,63
 430 1196 430 1196 466 1230 c 128,-1,64
 502 1264 502 1264 553.5 1284.5 c 128,-1,65
 605 1305 605 1305 670 1305 c 257,66,67
 731 1305 731 1305 779.5 1292 c 128,-1,68
 828 1279 828 1279 860 1248 c 257,69,-1
 810 1197 l 257,32,33
EndSplineSet
PickledDataWithLists: "(dp0
Vcom.adobe.type.autohint
p1
(c_codecs
encode
p2
(Vdata
p3
Vlatin1
p4
tp5
Rp6
g2
(V<data>\\u000a        <hintSetList>\\u000a          <hintset pointTag=\"hr00\">\\u000a            <hstem pos=\"794\" width=\"76\"/>\\u000a            <hstem pos=\"1233\" width=\"72\"/>\\u000a            <vstem pos=\"354\" width=\"98\"/>\\u000a          </hintset>\\u000a        </hintSetList>\\u000a      </data>
p7
g4
tp8
Rp9
Ntp10
s."
EndChar
StartChar: ordfeminine
Encoding: 356 170 356
GlifName: ordfeminine
Width: 1300
VWidth: 0
Flags: W
LayerCount: 2
Fore
SplineSet
200 800 m 257,0,-1
NamedP: "hr00"
 600 800 l 257,1,-1
 600 700 l 257,2,-1
 200 700 l 257,3,-1
 200 800 l 257,0,-1
NamedP: "hr00"
600 959 m 257,4,-1
 500 959 l 257,5,-1
 500 1040 l 257,6,-1
 453 984 l 257,7,8
 444 977 444 977 431 971 c 128,-1,9
 418 965 418 965 403 960.5 c 128,-1,10
 388 956 388 956 372.5 953 c 128,-1,11
 357 950 357 950 343 950 c 257,12,13
 305 950 305 950 267 962 c 128,-1,14
 229 974 229 974 198.5 996.5 c 128,-1,15
 168 1019 168 1019 149 1053 c 128,-1,16
 130 1087 130 1087 130 1131 c 257,17,18
 130 1177 130 1177 149.5 1211 c 128,-1,19
 169 1245 169 1245 201 1267 c 128,-1,20
 233 1289 233 1289 274 1299.5 c 128,-1,21
 315 1310 315 1310 357 1310 c 257,22,23
 405 1310 405 1310 440 1304.5 c 128,-1,24
 475 1299 475 1299 500 1290 c 257,25,-1
 500 1311 l 257,26,27
 500 1341 500 1341 492.5 1364.5 c 128,-1,28
 485 1388 485 1388 469.5 1404 c 128,-1,29
 454 1420 454 1420 430 1428.5 c 128,-1,30
 406 1437 406 1437 372 1437 c 257,31,32
 341 1437 341 1437 318 1433.5 c 128,-1,33
 295 1430 295 1430 276 1425 c 257,34,35
 264 1423 264 1423 253.5 1420 c 128,-1,36
 243 1417 243 1417 233 1414 c 257,37,-1
 197 1481 l 257,38,39
 218 1490 218 1490 247 1499 c 257,40,41
 271 1506 271 1506 302 1511.5 c 128,-1,42
 333 1517 333 1517 377 1517 c 257,43,44
 435 1517 435 1517 475.5 1501.5 c 128,-1,45
 516 1486 516 1486 541.5 1458 c 128,-1,46
 567 1430 567 1430 578.5 1391 c 128,-1,47
 590 1352 590 1352 590 1304 c 257,48,-1
 590 1049 l 257,49,-1
 600 959 l 257,4,-1
500 1221 m 257,50,-1
 470 1225 l 257,51,52
 463 1226 463 1226 451.5 1227 c 128,-1,53
 440 1228 440 1228 426.5 1228.5 c 128,-1,54
 413 1229 413 1229 400 1229.5 c 128,-1,55
 387 1230 387 1230 377 1230 c 257,56,57
 349 1230 349 1230 322 1225 c 128,-1,58
 295 1220 295 1220 274 1208.5 c 128,-1,59
 253 1197 253 1197 239.5 1178 c 128,-1,60
 226 1159 226 1159 226 1131 c 257,61,62
 226 1109 226 1109 236 1090.5 c 128,-1,63
 246 1072 246 1072 263 1058.5 c 128,-1,64
 280 1045 280 1045 301.5 1037.5 c 128,-1,65
 323 1030 323 1030 347 1030 c 257,66,67
 393 1030 393 1030 430 1048 c 128,-1,68
 467 1066 467 1066 500 1096 c 257,69,-1
 500 1221 l 257,50,-1
EndSplineSet
PickledDataWithLists: "(dp0
Vcom.adobe.type.autohint
p1
(c_codecs
encode
p2
(Vdata
p3
Vlatin1
p4
tp5
Rp6
g2
(V<data>\\u000a        <hintSetList>\\u000a          <hintset pointTag=\"hr00\">\\u000a            <hstem pos=\"950\" width=\"80\"/>\\u000a            <hstem pos=\"1234\" width=\"80\"/>\\u000a            <hstem pos=\"1437\" width=\"80\"/>\\u000a            <vstem pos=\"80\" width=\"95\"/>\\u000a            <vstem pos=\"400\" width=\"95\"/>\\u000a          </hintset>\\u000a        </hintSetList>\\u000a      </data>
p7
g4
tp8
Rp9
Ntp10
s."
EndChar
StartChar: logicalnot
Encoding: 314 172 314
GlifName: logicalnot
Width: 1300
VWidth: 0
Flags: W
LayerCount: 2
Fore
SplineSet
1217 800 m 257,0,-1
 1200 589 l 257,1,-1
 1200 280 l 257,2,-1
 1000 280 l 257,3,-1
 1000 449 l 257,4,-1
 1016 640 l 257,5,-1
 112 640 l 257,6,-1
 112 800 l 257,7,-1
 1217 800 l 257,0,-1
EndSplineSet
EndChar
StartChar: degree
Encoding: 206 176 206
GlifName: degree
Width: 1300
VWidth: 0
Flags: W
LayerCount: 2
Fore
SplineSet
500 1517 m 257,0,1
NamedP: "at01"
 556 1517 556 1517 605 1496 c 128,-1,2
 654 1475 654 1475 690.5 1438 c 128,-1,3
 727 1401 727 1401 748 1352 c 128,-1,4
 769 1303 769 1303 769 1247 c 257,5,6
NamedP: "ah02"
 769 1191 769 1191 748 1142 c 128,-1,7
 727 1093 727 1093 690.5 1056.5 c 128,-1,8
 654 1020 654 1020 605 998.5 c 128,-1,9
 556 977 556 977 500 977 c 257,10,11
NamedP: "av01"
 444 977 444 977 395 998.5 c 128,-1,12
 346 1020 346 1020 309.5 1056.5 c 128,-1,13
 273 1093 273 1093 252 1142 c 128,-1,14
 231 1191 231 1191 231 1247 c 257,15,16
NamedP: "ah01"
 231 1303 231 1303 252 1352 c 128,-1,17
 273 1401 273 1401 309.5 1438 c 128,-1,18
 346 1475 346 1475 395 1496 c 128,-1,19
 444 1517 444 1517 500 1517 c 257,0,1
NamedP: "at01"
500 1088 m 257,20,21
NamedP: "sv01"
 533 1088 533 1088 562 1100.5 c 128,-1,22
 591 1113 591 1113 612.5 1134.5 c 128,-1,23
 634 1156 634 1156 646.5 1185 c 128,-1,24
 659 1214 659 1214 659 1247 c 257,25,26
NamedP: "sh01"
 659 1280 659 1280 646.5 1309 c 128,-1,27
 634 1338 634 1338 612.5 1359.5 c 128,-1,28
 591 1381 591 1381 562 1393.5 c 128,-1,29
 533 1406 533 1406 500 1406 c 257,30,31
NamedP: "sv02"
 467 1406 467 1406 438 1393.5 c 128,-1,32
 409 1381 409 1381 387.5 1359.5 c 128,-1,33
 366 1338 366 1338 353.5 1309 c 128,-1,34
 341 1280 341 1280 341 1247 c 257,35,36
NamedP: "sh02"
 341 1214 341 1214 353.5 1185 c 128,-1,37
 366 1156 366 1156 387.5 1134.5 c 128,-1,38
 409 1113 409 1113 438 1100.5 c 128,-1,39
 467 1088 467 1088 500 1088 c 257,20,21
NamedP: "sv01"
EndSplineSet
PickledDataWithLists: "(dp0
Vcom.fontlab.ttprogram
p1
(c_codecs
encode
p2
(Vdata
p3
Vlatin1
p4
tp5
Rp6
g2
(V<data>\\u000a        <ttProgram>\\u000a          <ttc align=\"round\" code=\"alignh\" point=\"ah01\"/>\\u000a          <ttc align=\"round\" code=\"alignh\" point=\"ah02\"/>\\u000a          <ttc code=\"singleh\" point1=\"ah02\" point2=\"sh01\" stem=\"X: dia Lite\"/>\\u000a          <ttc code=\"singleh\" point1=\"ah01\" point2=\"sh02\" stem=\"X: dia Lite\"/>\\u000a          <ttc align=\"round\" code=\"alignv\" point=\"av01\"/>\\u000a          <ttc code=\"alignt\" point=\"at01\" zone=\"t: 1\"/>\\u000a          <ttc code=\"singlev\" point1=\"av01\" point2=\"sv01\" stem=\"Y: 135\"/>\\u000a          <ttc code=\"singlev\" point1=\"at01\" point2=\"sv02\" stem=\"Y: 135\"/>\\u000a        </ttProgram>\\u000a      </data>
p7
g4
tp8
Rp9
Ntp10
s."
EndChar
StartChar: threesuperior
Encoding: 526 179 526
GlifName: threesuperior
Width: 1300
VWidth: 0
Flags: W
LayerCount: 2
Fore
SplineSet
212 1390 m 257,0,-1
NamedP: "hr00"
 220 1470 l 257,1,-1
 610 1470 l 257,2,-1
 610 1400 l 257,3,4
 604 1380 604 1380 589.5 1358 c 128,-1,5
 575 1336 575 1336 556 1314 c 128,-1,6
 537 1292 537 1292 514 1270.5 c 128,-1,7
 491 1249 491 1249 468 1229 c 257,8,-1
 402 1192 l 257,9,10
 407 1193 407 1193 415 1193.5 c 128,-1,11
 423 1194 423 1194 430 1194 c 257,12,13
 478 1194 478 1194 520 1182 c 128,-1,14
 562 1170 562 1170 592.5 1145.5 c 128,-1,15
 623 1121 623 1121 641 1084 c 128,-1,16
 659 1047 659 1047 659 996 c 257,17,18
 659 948 659 948 641 908.5 c 128,-1,19
 623 869 623 869 591.5 838 c 128,-1,20
 560 807 560 807 518 785 c 128,-1,21
 476 763 476 763 428.5 748.5 c 128,-1,22
 381 734 381 734 330 727 c 128,-1,23
 279 720 279 720 230 720 c 257,24,-1
 230 800 l 257,25,26
 271 801 271 801 311 807 c 128,-1,27
 351 813 351 813 387 824 c 128,-1,28
 423 835 423 835 453.5 850.5 c 128,-1,29
 484 866 484 866 506.5 886.5 c 128,-1,30
 529 907 529 907 541.5 933.5 c 128,-1,31
 554 960 554 960 554 991 c 257,32,33
 554 1027 554 1027 538.5 1051 c 128,-1,34
 523 1075 523 1075 496.5 1089 c 128,-1,35
 470 1103 470 1103 434.5 1109 c 128,-1,36
 399 1115 399 1115 358 1115 c 257,37,38
 342 1115 342 1115 323 1114 c 128,-1,39
 304 1113 304 1113 289 1112 c 257,40,-1
 289 1190 l 257,41,42
 310 1205 310 1205 334 1224 c 128,-1,43
 358 1243 358 1243 382.5 1263.5 c 128,-1,44
 407 1284 407 1284 430 1305.5 c 128,-1,45
 453 1327 453 1327 472 1346 c 128,-1,46
 491 1365 491 1365 504 1382 c 128,-1,47
 517 1399 517 1399 521 1410 c 257,48,-1
 445 1390 l 257,49,-1
 212 1390 l 257,0,-1
NamedP: "hr00"
EndSplineSet
PickledDataWithLists: "(dp0
Vcom.adobe.type.autohint
p1
(c_codecs
encode
p2
(Vdata
p3
Vlatin1
p4
tp5
Rp6
g2
(V<data>\\u000a        <hintSetList>\\u000a          <hintset pointTag=\"hr00\">\\u000a            <hstem pos=\"720\" width=\"80\"/>\\u000a            <hstem pos=\"1115\" width=\"79\"/>\\u000a            <hstem pos=\"1390\" width=\"80\"/>\\u000a            <vstem pos=\"523\" width=\"105\"/>\\u000a          </hintset>\\u000a        </hintSetList>\\u000a      </data>
p7
g4
tp8
Rp9
Ntp10
s."
EndChar
StartChar: paragraph
Encoding: 363 182 363
GlifName: paragraph
Width: 1300
VWidth: 0
Flags: W
LayerCount: 2
Fore
SplineSet
630 647 m 257,0,1
NamedP: "hr00"
 556 651 556 651 503 666 c 128,-1,2
 450 681 450 681 407 702 c 257,3,4
 335 737 335 737 292 783.5 c 128,-1,5
 249 830 249 830 225.5 883.5 c 128,-1,6
 202 937 202 937 194.5 995.5 c 128,-1,7
 187 1054 187 1054 187 1112 c 257,8,9
 187 1217 187 1217 229 1289 c 128,-1,10
 271 1361 271 1361 336.5 1406.5 c 128,-1,11
 402 1452 402 1452 480 1474 c 128,-1,12
 558 1496 558 1496 630 1500 c 257,13,-1
 1102 1500 l 257,14,-1
 1102 -400 l 257,15,-1
 933 -400 l 257,16,-1
 933 1348 l 257,17,-1
 799 1348 l 257,18,-1
 799 -400 l 257,19,-1
 630 -400 l 257,20,-1
 630 647 l 257,0,1
NamedP: "hr00"
EndSplineSet
PickledDataWithLists: "(dp0
Vcom.adobe.type.autohint
p1
(c_codecs
encode
p2
(Vdata
p3
Vlatin1
p4
tp5
Rp6
g2
(V<data>\\u000a        <hintSetList>\\u000a          <hintset pointTag=\"hr00\">\\u000a            <hstem pos=\"-379\" width=\"-21\"/>\\u000a            <hstem pos=\"1348\" width=\"152\"/>\\u000a            <vstem pos=\"730\" width=\"169\"/>\\u000a            <vstem pos=\"1033\" width=\"169\"/>\\u000a          </hintset>\\u000a        </hintSetList>\\u000a      </data>
p7
g4
tp8
Rp9
Ntp10
s."
EndChar
StartChar: periodcentered
Encoding: 372 183 372
GlifName: periodcentered
Width: 1300
VWidth: 0
Flags: W
LayerCount: 2
Fore
SplineSet
136 650 m 257,0,1
NamedP: "ah01"
 136 684 136 684 149 714 c 128,-1,2
 162 744 162 744 184.5 766.5 c 128,-1,3
 207 789 207 789 236.5 802 c 128,-1,4
 266 815 266 815 300 815 c 257,5,6
NamedP: "av01"
 334 815 334 815 364 802 c 128,-1,7
 394 789 394 789 416.5 766.5 c 128,-1,8
 439 744 439 744 452 714 c 128,-1,9
 465 684 465 684 465 650 c 257,10,11
NamedP: "ah02"
 465 616 465 616 452 585.5 c 128,-1,12
 439 555 439 555 417 532.5 c 128,-1,13
 395 510 395 510 365.5 496.5 c 128,-1,14
 336 483 336 483 302 483 c 257,15,16
NamedP: "ab01"
 268 483 268 483 237.5 496.5 c 128,-1,17
 207 510 207 510 184.5 532.5 c 128,-1,18
 162 555 162 555 149 585.5 c 128,-1,19
 136 616 136 616 136 650 c 257,0,1
NamedP: "ah01"
EndSplineSet
PickledDataWithLists: "(dp0
Vcom.adobe.type.autohint
p1
(c_codecs
encode
p2
(Vdata
p3
Vlatin1
p4
tp5
Rp6
g2
(V<data>\\u000a        <hintSetList>\\u000a          <hintset pointTag=\"ah01\">\\u000a            <hstem pos=\"483\" width=\"244\"/>\\u000a            <vstem pos=\"78\" width=\"242\"/>\\u000a          </hintset>\\u000a        </hintSetList>\\u000a      </data>
p7
g4
tp8
Rp9
Ntp10
sVcom.fontlab.ttprogram
p11
(g2
(Vdata
p12
g4
tp13
Rp14
g2
(V<data>\\u000a        <ttProgram>\\u000a          <ttc align=\"round\" code=\"alignh\" point=\"ah01\"/>\\u000a          <ttc align=\"round\" code=\"alignh\" point=\"ah02\"/>\\u000a          <ttc align=\"round\" code=\"alignv\" point=\"av01\"/>\\u000a          <ttc code=\"alignb\" point=\"ab01\" zone=\"b: 0\"/>\\u000a          <ttc align=\"round\" code=\"alignh\" point=\"ah01\"/>\\u000a          <ttc align=\"round\" code=\"alignh\" point=\"ah02\"/>\\u000a          <ttc align=\"round\" code=\"alignv\" point=\"av01\"/>\\u000a          <ttc align=\"round\" code=\"alignv\" point=\"ab01\"/>\\u000a        </ttProgram>\\u000a      </data>
p15
g4
tp16
Rp17
Ntp18
s."
EndChar
StartChar: onesuperior
Encoding: 354 185 354
GlifName: onesuperior
Width: 1300
VWidth: 0
Flags: W
LayerCount: 2
Fore
SplineSet
233 720 m 257,0,-1
NamedP: "hr00"
 233 800 l 257,1,-1
 405 800 l 257,2,-1
 405 1283 l 257,3,-1
 434 1396 l 257,4,-1
 366 1303 l 257,5,-1
 260 1209 l 257,6,-1
 206 1270 l 257,7,-1
 435 1480 l 257,8,-1
 510 1470 l 257,9,-1
 510 800 l 257,10,-1
 683 800 l 257,11,-1
 683 720 l 257,12,-1
 233 720 l 257,0,-1
NamedP: "hr00"
EndSplineSet
PickledDataWithLists: "(dp0
Vcom.adobe.type.autohint
p1
(c_codecs
encode
p2
(Vdata
p3
Vlatin1
p4
tp5
Rp6
g2
(V<data>\\u000a        <hintSetList>\\u000a          <hintset pointTag=\"hr00\">\\u000a            <hstem pos=\"720\" width=\"80\"/>\\u000a            <hstem pos=\"1480\" width=\"-10\"/>\\u000a            <vstem pos=\"455\" width=\"105\"/>\\u000a          </hintset>\\u000a        </hintSetList>\\u000a      </data>
p7
g4
tp8
Rp9
Ntp10
s."
EndChar
StartChar: ordmasculine
Encoding: 357 186 357
GlifName: ordmasculine
Width: 1300
VWidth: 0
Flags: W
LayerCount: 2
Fore
SplineSet
230 800 m 257,0,-1
NamedP: "hr00"
 630 800 l 257,1,-1
 630 700 l 257,2,-1
 230 700 l 257,3,-1
 230 800 l 257,0,-1
NamedP: "hr00"
424 950 m 257,4,5
 369 950 369 950 322.5 972 c 128,-1,6
 276 994 276 994 242.5 1032 c 128,-1,7
 209 1070 209 1070 190.5 1122 c 128,-1,8
 172 1174 172 1174 172 1235 c 257,9,10
 172 1296 172 1296 190 1347.5 c 128,-1,11
 208 1399 208 1399 241 1437 c 128,-1,12
 274 1475 274 1475 320.5 1496 c 128,-1,13
 367 1517 367 1517 424 1517 c 257,14,15
 480 1517 480 1517 525.5 1496 c 128,-1,16
 571 1475 571 1475 603.5 1437 c 128,-1,17
 636 1399 636 1399 654 1347.5 c 128,-1,18
 672 1296 672 1296 672 1235 c 257,19,20
 672 1174 672 1174 655 1122 c 128,-1,21
 638 1070 638 1070 605.5 1032 c 128,-1,22
 573 994 573 994 527 972 c 128,-1,23
 481 950 481 950 424 950 c 257,4,5
577 1222 m 257,24,25
 577 1262 577 1262 568.5 1301 c 128,-1,26
 560 1340 560 1340 541.5 1371 c 128,-1,27
 523 1402 523 1402 493.5 1421 c 128,-1,28
 464 1440 464 1440 422 1440 c 257,29,30
 382 1440 382 1440 352.5 1423.5 c 128,-1,31
 323 1407 323 1407 304 1379.5 c 128,-1,32
 285 1352 285 1352 276 1317 c 128,-1,33
 267 1282 267 1282 267 1245 c 257,34,35
 267 1204 267 1204 276 1165 c 128,-1,36
 285 1126 285 1126 304.5 1095.5 c 128,-1,37
 324 1065 324 1065 354 1046.5 c 128,-1,38
 384 1028 384 1028 426 1028 c 257,39,40
 466 1028 466 1028 494.5 1044.5 c 128,-1,41
 523 1061 523 1061 541.5 1088 c 128,-1,42
 560 1115 560 1115 568.5 1150 c 128,-1,43
 577 1185 577 1185 577 1222 c 257,24,25
EndSplineSet
PickledDataWithLists: "(dp0
Vcom.adobe.type.autohint
p1
(c_codecs
encode
p2
(Vdata
p3
Vlatin1
p4
tp5
Rp6
g2
(V<data>\\u000a        <hintSetList>\\u000a          <hintset pointTag=\"hr00\">\\u000a            <hstem pos=\"950\" width=\"78\"/>\\u000a            <hstem pos=\"1440\" width=\"77\"/>\\u000a            <vstem pos=\"150\" width=\"95\"/>\\u000a            <vstem pos=\"555\" width=\"95\"/>\\u000a          </hintset>\\u000a        </hintSetList>\\u000a      </data>
p7
g4
tp8
Rp9
Ntp10
s."
EndChar
StartChar: onehalf
Encoding: 351 189 351
GlifName: onehalf
Width: 1300
VWidth: 0
Flags: W
LayerCount: 2
Fore
SplineSet
504 0 m 257,0,-1
 379 0 l 257,1,-1
 954 1500 l 257,2,-1
 1070 1500 l 257,3,-1
 504 0 l 257,0,-1
131 720 m 257,4,-1
 131 800 l 257,5,-1
 303 800 l 257,6,-1
 303 1283 l 257,7,-1
 332 1396 l 257,8,-1
 264 1303 l 257,9,-1
 158 1209 l 257,10,-1
 104 1270 l 257,11,-1
 333 1480 l 257,12,-1
 408 1470 l 257,13,-1
 408 800 l 257,14,-1
 581 800 l 257,15,-1
 581 720 l 257,16,-1
 131 720 l 257,4,-1
813 0 m 257,17,-1
NamedP: "hr01"
 813 84 l 257,18,19
 836 120 836 120 863 155.5 c 128,-1,20
 890 191 890 191 918 224.5 c 128,-1,21
 946 258 946 258 972.5 288 c 128,-1,22
 999 318 999 318 1021 344 c 257,23,24
 1047 374 1047 374 1071.5 399 c 128,-1,25
 1096 424 1096 424 1114.5 448.5 c 128,-1,26
 1133 473 1133 473 1144 499.5 c 128,-1,27
 1155 526 1155 526 1155 557 c 257,28,29
 1155 581 1155 581 1146 602.5 c 128,-1,30
 1137 624 1137 624 1120.5 639.5 c 128,-1,31
 1104 655 1104 655 1081.5 664.5 c 128,-1,32
 1059 674 1059 674 1032 674 c 257,33,34
 1002 674 1002 674 979.5 665.5 c 128,-1,35
 957 657 957 657 940.5 643.5 c 128,-1,36
 924 630 924 630 911.5 613.5 c 128,-1,37
 899 597 899 597 889 580 c 257,38,-1
 818 610 l 257,39,40
 831 642 831 642 851.5 669.5 c 128,-1,41
 872 697 872 697 899.5 716.5 c 128,-1,42
 927 736 927 736 962 747 c 128,-1,43
 997 758 997 758 1040 758 c 257,44,45
 1090 758 1090 758 1129.5 740 c 128,-1,46
 1169 722 1169 722 1196.5 693 c 128,-1,47
 1224 664 1224 664 1238 627 c 128,-1,48
 1252 590 1252 590 1252 552 c 257,49,50
 1252 513 1252 513 1238 478.5 c 128,-1,51
 1224 444 1224 444 1202.5 412.5 c 128,-1,52
 1181 381 1181 381 1156.5 353.5 c 128,-1,53
 1132 326 1132 326 1112 302 c 257,54,55
 1086 272 1086 272 1060 242.5 c 128,-1,56
 1034 213 1034 213 1010 184.5 c 128,-1,57
 986 156 986 156 965.5 130 c 128,-1,58
 945 104 945 104 930 80 c 257,59,-1
 1280 80 l 257,60,-1
 1280 0 l 257,61,-1
 813 0 l 257,17,-1
NamedP: "hr01"
EndSplineSet
PickledDataWithLists: "(dp0
Vcom.adobe.type.autohint
p1
(c_codecs
encode
p2
(Vdata
p3
Vlatin1
p4
tp5
Rp6
g2
(V<data>\\u000a        <hintSetList>\\u000a          <hintset pointTag=\"hr01\">\\u000a            <hstem pos=\"0\" width=\"80\"/>\\u000a            <hstem pos=\"674\" width=\"84\"/>\\u000a            <vstem pos=\"1140\" width=\"97\"/>\\u000a          </hintset>\\u000a        </hintSetList>\\u000a      </data>
p7
g4
tp8
Rp9
Ntp10
s."
EndChar
StartChar: questiondown
Encoding: 394 191 394
GlifName: questiondown
Width: 1300
VWidth: 0
Flags: W
LayerCount: 2
Fore
SplineSet
207 -44 m 257,0,1
 207 19 207 19 224 69 c 128,-1,2
 241 119 241 119 268.5 160 c 128,-1,3
 296 201 296 201 331.5 236 c 128,-1,4
 367 271 367 271 404.5 304.5 c 128,-1,5
 442 338 442 338 477.5 373 c 128,-1,6
 513 408 513 408 540.5 448.5 c 128,-1,7
 568 489 568 489 585 538.5 c 128,-1,8
 602 588 602 588 602 650 c 257,9,-1
 812 671 l 257,10,11
 812 582 812 582 795 514 c 128,-1,12
 778 446 778 446 750.5 393.5 c 128,-1,13
 723 341 723 341 687.5 300.5 c 128,-1,14
 652 260 652 260 614.5 226.5 c 128,-1,15
 577 193 577 193 541.5 163 c 128,-1,16
 506 133 506 133 478.5 101 c 128,-1,17
 451 69 451 69 434 32 c 128,-1,18
 417 -5 417 -5 417 -52 c 257,19,20
 417 -104 417 -104 437 -142 c 128,-1,21
 457 -180 457 -180 491.5 -204 c 128,-1,22
 526 -228 526 -228 572.5 -239.5 c 128,-1,23
 619 -251 619 -251 672 -251 c 257,24,25
 710 -251 710 -251 750.5 -240 c 128,-1,26
 791 -229 791 -229 829.5 -208 c 128,-1,27
 868 -187 868 -187 903.5 -157 c 128,-1,28
 939 -127 939 -127 967 -90 c 257,29,-1
 1100 -200 l 257,30,31
 1051 -266 1051 -266 993.5 -308.5 c 128,-1,32
 936 -351 936 -351 876.5 -375 c 128,-1,33
 817 -399 817 -399 758.5 -408 c 128,-1,34
 700 -417 700 -417 647 -417 c 257,35,36
 562 -417 562 -417 483 -394.5 c 128,-1,37
 404 -372 404 -372 342.5 -326.5 c 128,-1,38
 281 -281 281 -281 244 -210.5 c 128,-1,39
 207 -140 207 -140 207 -44 c 257,0,1
829 994 m 257,40,41
 829 969 829 969 819.5 947 c 128,-1,42
 810 925 810 925 793.5 908.5 c 128,-1,43
 777 892 777 892 755 882.5 c 128,-1,44
 733 873 733 873 708 873 c 257,45,46
 683 873 683 873 661 882.5 c 128,-1,47
 639 892 639 892 622.5 908.5 c 128,-1,48
 606 925 606 925 596.5 947 c 128,-1,49
 587 969 587 969 587 994 c 257,50,51
 587 1019 587 1019 596.5 1041.5 c 128,-1,52
 606 1064 606 1064 622 1080.5 c 128,-1,53
 638 1097 638 1097 660 1107 c 128,-1,54
 682 1117 682 1117 707 1117 c 257,55,56
 733 1117 733 1117 755 1107 c 128,-1,57
 777 1097 777 1097 793.5 1080.5 c 128,-1,58
 810 1064 810 1064 819.5 1041.5 c 128,-1,59
 829 1019 829 1019 829 994 c 257,40,41
EndSplineSet
EndChar
StartChar: Eacute
Encoding: 18 201 18
GlifName: E_acute
Width: 1300
VWidth: 0
Flags: W
LayerCount: 2
Fore
SplineSet
1135 160 m 257,0,-1
NamedP: "dh04"
 1115 0 l 257,1,-1
NamedP: "ab01"
 195 0 l 257,2,-1
NamedP: "ab02"
 210 200 l 257,3,-1
NamedP: "dh01"
 210 1290 l 257,4,-1
 180 1500 l 257,5,-1
NamedP: "at01"
 1100 1500 l 257,6,-1
NamedP: "at02"
 1100 1340 l 257,7,-1
 375 1340 l 257,8,-1
NamedP: "sv01"
 395 1150 l 257,9,-1
NamedP: "sh01"
 395 885 l 257,10,-1
 1030 885 l 257,11,-1
NamedP: "dv01"
 1030 740 l 257,12,-1
NamedP: "dh03"
 395 740 l 257,13,-1
 395 340 l 257,14,-1
NamedP: "dh02"
 385 160 l 257,15,-1
 1135 160 l 257,0,-1
NamedP: "dh04"
650 1900 m 257,16,-1
NamedP: "ah01"
 880 1920 l 257,17,-1
NamedP: "sh02"
 640 1600 l 257,18,-1
NamedP: "av01"
 490 1600 l 257,19,-1
 650 1900 l 257,16,-1
NamedP: "ah01"
EndSplineSet
PickledDataWithLists: "(dp0
Vcom.adobe.type.autohint
p1
(c_codecs
encode
p2
(Vdata
p3
Vlatin1
p4
tp5
Rp6
g2
(V<data>\\u000a        <hintSetList>\\u000a          <hintset pointTag=\"ah01\">\\u000a            <hstem pos=\"1621\" width=\"-21\"/>\\u000a            <hstem pos=\"1920\" width=\"-20\"/>\\u000a          </hintset>\\u000a        </hintSetList>\\u000a      </data>
p7
g4
tp8
Rp9
Ntp10
sVcom.fontlab.ttprogram
p11
(g2
(Vdata
p12
g4
tp13
Rp14
g2
(V<data>\\u000a        <ttProgram>\\u000a          <ttc code=\"doubleh\" point1=\"dh01\" point2=\"dh02\" stem=\"X: 208\"/>\\u000a          <ttc code=\"doubleh\" point1=\"dh03\" point2=\"dh04\" stem=\"X: ecart du B\"/>\\u000a          <ttc code=\"singleh\" point1=\"dh02\" point2=\"sh01\"/>\\u000a          <ttc code=\"alignt\" point=\"at01\" zone=\"t: 1\"/>\\u000a          <ttc code=\"alignt\" point=\"at02\" zone=\"t: 1\"/>\\u000a          <ttc code=\"alignb\" point=\"ab01\" zone=\"b: 0\"/>\\u000a          <ttc code=\"alignb\" point=\"ab02\" zone=\"b: 0\"/>\\u000a          <ttc code=\"doublev\" point1=\"dh03\" point2=\"dv01\" stem=\"Y: 144\"/>\\u000a          <ttc code=\"singlev\" point1=\"ab02\" point2=\"dh04\" stem=\"Y: 162\"/>\\u000a          <ttc code=\"singlev\" point1=\"at02\" point2=\"sv01\" stem=\"Y: 162\"/>\\u000a          <ttc align=\"round\" code=\"alignh\" point=\"ah01\"/>\\u000a          <ttc code=\"singleh\" point1=\"ah01\" point2=\"sh02\" stem=\"X: 208\"/>\\u000a          <ttc align=\"round\" code=\"alignv\" point=\"av01\"/>\\u000a          <ttc code=\"alignt\" point=\"sh02\" zone=\"t: 1\"/>\\u000a          <ttc code=\"alignt\" point=\"ah01\" zone=\"t: 1\"/>\\u000a        </ttProgram>\\u000a      </data>
p15
g4
tp16
Rp17
Ntp18
s."
EndChar
StartChar: Idieresis
Encoding: 33 207 33
GlifName: I_dieresis
Width: 1300
VWidth: 0
Flags: W
LayerCount: 2
Fore
SplineSet
206 1500 m 257,0,-1
NamedP: "at01"
 1106 1500 l 257,1,-1
NamedP: "ah01"
 1106 1340 l 257,2,-1
NamedP: "sv01"
 748 1340 l 257,3,-1
NamedP: "dh02"
 748 160 l 257,4,-1
NamedP: "dh04"
 1126 160 l 257,5,-1
NamedP: "sh02"
 1106 0 l 257,6,-1
NamedP: "ab01"
 206 0 l 257,7,-1
NamedP: "sh01"
 206 160 l 257,8,-1
NamedP: "sv02"
 562 160 l 257,9,-1
NamedP: "dh03"
 562 1340 l 257,10,-1
NamedP: "dh01"
 186 1340 l 257,11,-1
NamedP: "sh03"
 206 1500 l 257,0,-1
NamedP: "at01"
357 1900 m 257,12,-1
 557 1900 l 257,13,-1
 557 1700 l 257,14,-1
 357 1700 l 257,15,-1
 357 1900 l 257,12,-1
757 1900 m 257,16,-1
 957 1900 l 257,17,-1
 957 1700 l 257,18,-1
 757 1700 l 257,19,-1
 757 1900 l 257,16,-1
EndSplineSet
PickledDataWithLists: "(dp0
Vcom.adobe.type.autohint
p1
(c_codecs
encode
p2
(Vdata
p3
Vlatin1
p4
tp5
Rp6
g2
(V<data>\\u000a        <hintSetList>\\u000a          <hintset pointTag=\"at01\">\\u000a            <hstem pos=\"21\" width=\"-21\"/>\\u000a            <hstem pos=\"1520\" width=\"-20\"/>\\u000a            <vstem pos=\"190\" width=\"210\"/>\\u000a          </hintset>\\u000a        </hintSetList>\\u000a      </data>
p7
g4
tp8
Rp9
Ntp10
sVcom.fontlab.ttprogram
p11
(g2
(Vdata
p12
g4
tp13
Rp14
g2
(V<data>\\u000a        <ttProgram>\\u000a          <ttc align=\"round\" code=\"alignh\" point=\"lsb\"/>\\u000a          <ttc align=\"round\" code=\"alignh\" point=\"ah01\"/>\\u000a          <ttc code=\"doubleh\" point1=\"dh01\" point2=\"dh02\" stem=\"X: 208\"/>\\u000a          <ttc code=\"doubleh\" point1=\"dh03\" point2=\"dh04\" stem=\"X: 208\"/>\\u000a          <ttc code=\"singleh\" point1=\"lsb\" point2=\"sh01\" stem=\"X: 190\"/>\\u000a          <ttc code=\"singleh\" point1=\"sh01\" point2=\"sh02\" round=\"true\"/>\\u000a          <ttc code=\"singleh\" point1=\"ah01\" point2=\"sh03\" round=\"true\"/>\\u000a          <ttc code=\"alignt\" point=\"at01\" zone=\"t: 1\"/>\\u000a          <ttc code=\"alignt\" point=\"ah01\" zone=\"t: 1\"/>\\u000a          <ttc code=\"alignb\" point=\"ab01\" zone=\"b: 0\"/>\\u000a          <ttc code=\"alignb\" point=\"sh01\" zone=\"b: 0\"/>\\u000a          <ttc code=\"singlev\" point1=\"ah01\" point2=\"sv01\" stem=\"Y: 171\"/>\\u000a          <ttc code=\"singlev\" point1=\"ab01\" point2=\"sh02\" stem=\"Y: 171\"/>\\u000a          <ttc code=\"singlev\" point1=\"sh01\" point2=\"sv02\" stem=\"Y: 171\"/>\\u000a          <ttc code=\"singlev\" point1=\"at01\" point2=\"sh03\" stem=\"Y: 171\"/>\\u000a        </ttProgram>\\u000a      </data>
p15
g4
tp16
Rp17
Ntp18
s."
EndChar
StartChar: Ntilde
Encoding: 46 209 46
GlifName: N_tilde
Width: 1300
VWidth: 0
Flags: W
LayerCount: 2
Fore
SplineSet
945 0 m 257,0,-1
NamedP: "ah01"
 450 948 l 257,1,-1
NamedP: "ih03"
 291 1361 l 257,2,-1
NamedP: "ih01"
 285 1360 l 257,3,-1
NamedP: "fv01"
 350 920 l 257,4,-1
NamedP: "fv02"
 350 0 l 257,5,-1
NamedP: "sh02"
 170 0 l 257,6,-1
NamedP: "sh01"
 170 1290 l 257,7,-1
 140 1500 l 257,8,-1
NamedP: "ih02"
 341 1520 l 257,9,-1
NamedP: "at01"
 837 557 l 257,10,-1
NamedP: "ih05"
 1003 140 l 257,11,-1
NamedP: "ih04"
 1009 141 l 257,12,-1
 930 580 l 257,13,-1
NamedP: "sh04"
 930 1500 l 257,14,-1
 1110 1520 l 257,15,-1
NamedP: "at02"
 1110 0 l 257,16,-1
NamedP: "sh03"
 945 0 l 257,0,-1
NamedP: "ah01"
387 1655 m 257,17,18
 391 1695 391 1695 406.5 1733 c 128,-1,19
 422 1771 422 1771 446.5 1800 c 128,-1,20
 471 1829 471 1829 502 1846.5 c 128,-1,21
 533 1864 533 1864 569 1864 c 257,22,23
 608 1864 608 1864 642 1850 c 128,-1,24
 676 1836 676 1836 707 1819 c 128,-1,25
 738 1802 738 1802 768 1788 c 128,-1,26
 798 1774 798 1774 829 1774 c 257,27,28
 850 1774 850 1774 866 1784.5 c 128,-1,29
 882 1795 882 1795 893 1810.5 c 128,-1,30
 904 1826 904 1826 911 1845 c 128,-1,31
 918 1864 918 1864 921 1882 c 257,32,-1
 1017 1878 l 257,33,34
 1014 1834 1014 1834 997.5 1793 c 128,-1,35
 981 1752 981 1752 955.5 1720.5 c 128,-1,36
 930 1689 930 1689 895.5 1670 c 128,-1,37
 861 1651 861 1651 822 1651 c 257,38,39
 790 1651 790 1651 759 1665 c 128,-1,40
 728 1679 728 1679 696 1695.5 c 128,-1,41
 664 1712 664 1712 631 1726 c 128,-1,42
 598 1740 598 1740 563 1740 c 257,43,44
 545 1740 545 1740 530.5 1732 c 128,-1,45
 516 1724 516 1724 504.5 1711 c 128,-1,46
 493 1698 493 1698 485 1682.5 c 128,-1,47
 477 1667 477 1667 473 1652 c 257,48,-1
 387 1655 l 257,17,18
EndSplineSet
PickledDataWithLists: "(dp0
Vcom.adobe.type.autohint
p1
(c_codecs
encode
p2
(Vdata
p3
Vlatin1
p4
tp5
Rp6
g2
(V<data>\\u000a        <hintSetList>\\u000a          <hintset pointTag=\"ah01\">\\u000a            <hstem pos=\"21\" width=\"-21\"/>\\u000a            <hstem pos=\"1520\" width=\"-20\"/>\\u000a            <vstem pos=\"100\" width=\"200\"/>\\u000a            <vstem pos=\"1000\" width=\"195\"/>\\u000a          </hintset>\\u000a        </hintSetList>\\u000a      </data>
p7
g4
tp8
Rp9
Ntp10
sVcom.fontlab.ttprogram
p11
(g2
(Vdata
p12
g4
tp13
Rp14
g2
(V<data>\\u000a        <ttProgram>\\u000a          <ttc align=\"round\" code=\"alignh\" point=\"lsb\"/>\\u000a          <ttc align=\"round\" code=\"alignh\" point=\"ah01\"/>\\u000a          <ttc code=\"interpolateh\" point=\"ih01\" point1=\"ih02\" point2=\"ih03\"/>\\u000a          <ttc align=\"round\" code=\"singleh\" point1=\"lsb\" point2=\"sh01\"/>\\u000a          <ttc code=\"singleh\" point1=\"sh01\" point2=\"sh02\" stem=\"X: 199\"/>\\u000a          <ttc code=\"singleh\" point1=\"ah01\" point2=\"sh03\" stem=\"X: 199\"/>\\u000a          <ttc code=\"interpolateh\" point=\"ih04\" point1=\"sh03\" point2=\"ih05\"/>\\u000a          <ttc code=\"singleh\" point1=\"ah01\" point2=\"sh04\"/>\\u000a          <ttc code=\"singleh\" point1=\"sh03\" point2=\"rsb\" round=\"true\"/>\\u000a          <ttc code=\"alignt\" point=\"at01\" zone=\"t: 1\"/>\\u000a          <ttc code=\"alignt\" point=\"at02\" zone=\"t: 1\"/>\\u000a          <ttc code=\"alignb\" point=\"ah01\" zone=\"b: 0\"/>\\u000a          <ttc code=\"alignb\" point=\"sh02\" zone=\"b: 0\"/>\\u000a          <ttc code=\"fdeltah\" delta=\"-2\" point=\"ah01\" ppm1=\"43\" ppm2=\"43\"/>\\u000a          <ttc code=\"fdeltah\" delta=\"2\" point=\"ah01\" ppm1=\"22\" ppm2=\"22\"/>\\u000a          <ttc code=\"fdeltah\" delta=\"2\" point=\"ah01\" ppm1=\"26\" ppm2=\"26\"/>\\u000a          <ttc code=\"fdeltah\" delta=\"5\" point=\"ah01\" ppm1=\"18\" ppm2=\"18\"/>\\u000a          <ttc code=\"fdeltah\" delta=\"1\" point=\"ih03\" ppm1=\"31\" ppm2=\"31\"/>\\u000a          <ttc code=\"fdeltah\" delta=\"2\" point=\"ih03\" ppm1=\"32\" ppm2=\"32\"/>\\u000a          <ttc code=\"fdeltah\" delta=\"2\" point=\"ih03\" ppm1=\"39\" ppm2=\"39\"/>\\u000a          <ttc code=\"fdeltah\" delta=\"3\" point=\"ih03\" ppm1=\"26\" ppm2=\"26\"/>\\u000a          <ttc code=\"fdeltah\" delta=\"4\" point=\"ih03\" ppm1=\"40\" ppm2=\"40\"/>\\u000a          <ttc code=\"fdeltah\" delta=\"1\" point=\"ih01\" ppm1=\"19\" ppm2=\"19\"/>\\u000a          <ttc code=\"fdeltah\" delta=\"-3\" point=\"at01\" ppm1=\"18\" ppm2=\"18\"/>\\u000a          <ttc code=\"fdeltah\" delta=\"-3\" point=\"at01\" ppm1=\"27\" ppm2=\"27\"/>\\u000a          <ttc code=\"fdeltah\" delta=\"-1\" point=\"at01\" ppm1=\"15\" ppm2=\"15\"/>\\u000a          <ttc code=\"fdeltah\" delta=\"-1\" point=\"at01\" ppm1=\"41\" ppm2=\"41\"/>\\u000a          <ttc code=\"fdeltah\" delta=\"4\" point=\"at01\" ppm1=\"43\" ppm2=\"43\"/>\\u000a          <ttc code=\"fdeltah\" delta=\"-6\" point=\"ih05\" ppm1=\"37\" ppm2=\"37\"/>\\u000a          <ttc code=\"fdeltah\" delta=\"-5\" point=\"ih05\" ppm1=\"27\" ppm2=\"27\"/>\\u000a          <ttc code=\"fdeltah\" delta=\"-5\" point=\"ih05\" ppm1=\"39\" ppm2=\"39\"/>\\u000a          <ttc code=\"fdeltah\" delta=\"-3\" point=\"ih05\" ppm1=\"42\" ppm2=\"42\"/>\\u000a          <ttc code=\"fdeltah\" delta=\"-2\" point=\"ih05\" ppm1=\"41\" ppm2=\"41\"/>\\u000a          <ttc code=\"fdeltah\" delta=\"-1\" point=\"ih05\" ppm1=\"43\" ppm2=\"43\"/>\\u000a          <ttc code=\"fdeltav\" delta=\"-8\" point=\"ih03\" ppm1=\"40\" ppm2=\"40\"/>\\u000a          <ttc code=\"fdeltav\" delta=\"-6\" point=\"ih03\" ppm1=\"39\" ppm2=\"39\"/>\\u000a          <ttc code=\"fdeltav\" delta=\"-4\" point=\"ih03\" ppm1=\"32\" ppm2=\"32\"/>\\u000a          <ttc code=\"fdeltav\" delta=\"-2\" point=\"ih03\" ppm1=\"31\" ppm2=\"31\"/>\\u000a          <ttc code=\"fdeltav\" delta=\"5\" point=\"ih03\" ppm1=\"17\" ppm2=\"17\"/>\\u000a          <ttc code=\"fdeltav\" delta=\"-3\" point=\"ih01\" ppm1=\"19\" ppm2=\"19\"/>\\u000a          <ttc code=\"fdeltav\" delta=\"-3\" point=\"fv01\" ppm1=\"19\" ppm2=\"19\"/>\\u000a          <ttc code=\"fdeltav\" delta=\"-8\" point=\"fv02\" ppm1=\"26\" ppm2=\"26\"/>\\u000a          <ttc code=\"fdeltav\" delta=\"-8\" point=\"fv02\" ppm1=\"28\" ppm2=\"28\"/>\\u000a          <ttc code=\"fdeltav\" delta=\"-4\" point=\"fv02\" ppm1=\"29\" ppm2=\"29\"/>\\u000a          <ttc code=\"fdeltav\" delta=\"-3\" point=\"ih05\" ppm1=\"17\" ppm2=\"17\"/>\\u000a          <ttc code=\"fdeltav\" delta=\"3\" point=\"ih05\" ppm1=\"41\" ppm2=\"41\"/>\\u000a          <ttc code=\"fdeltav\" delta=\"4\" point=\"ih05\" ppm1=\"42\" ppm2=\"42\"/>\\u000a          <ttc code=\"fdeltav\" delta=\"5\" point=\"ih05\" ppm1=\"43\" ppm2=\"43\"/>\\u000a          <ttc code=\"fdeltav\" delta=\"7\" point=\"ih05\" ppm1=\"27\" ppm2=\"27\"/>\\u000a          <ttc code=\"fdeltav\" delta=\"7\" point=\"ih05\" ppm1=\"39\" ppm2=\"39\"/>\\u000a          <ttc code=\"fdeltav\" delta=\"8\" point=\"ih05\" ppm1=\"37\" ppm2=\"37\"/>\\u000a          <ttc code=\"fdeltav\" delta=\"4\" point=\"sh04\" ppm1=\"29\" ppm2=\"29\"/>\\u000a          <ttc code=\"fdeltav\" delta=\"8\" point=\"sh04\" ppm1=\"26\" ppm2=\"26\"/>\\u000a          <ttc code=\"fdeltav\" delta=\"8\" point=\"sh04\" ppm1=\"28\" ppm2=\"28\"/>\\u000a        </ttProgram>\\u000a      </data>
p15
g4
tp16
Rp17
Ntp18
s."
EndChar
StartChar: Ocircumflex
Encoding: 51 212 51
GlifName: O_circumflex
Width: 1300
VWidth: 0
Flags: W
LayerCount: 2
Fore
SplineSet
623 -17 m 257,0,1
NamedP: "ab01"
 533 -17 533 -17 457.5 10.5 c 128,-1,2
 382 38 382 38 320.5 88.5 c 128,-1,3
 259 139 259 139 213 209 c 128,-1,4
 167 279 167 279 135.5 364.5 c 128,-1,5
 104 450 104 450 88.5 547.5 c 128,-1,6
 73 645 73 645 73 750 c 257,7,8
NamedP: "sh01"
 73 855 73 855 88 952.5 c 128,-1,9
 103 1050 103 1050 133.5 1135.5 c 128,-1,10
 164 1221 164 1221 209.5 1291 c 128,-1,11
 255 1361 255 1361 316 1411.5 c 128,-1,12
 377 1462 377 1462 454 1489.5 c 128,-1,13
 531 1517 531 1517 623 1517 c 257,14,15
NamedP: "at01"
 713 1517 713 1517 788.5 1489.5 c 128,-1,16
 864 1462 864 1462 925.5 1411.5 c 128,-1,17
 987 1361 987 1361 1033 1291 c 128,-1,18
 1079 1221 1079 1221 1110.5 1135.5 c 128,-1,19
 1142 1050 1142 1050 1157.5 952.5 c 128,-1,20
 1173 855 1173 855 1173 750 c 257,21,22
NamedP: "sh02"
 1173 645 1173 645 1158 547.5 c 128,-1,23
 1143 450 1143 450 1112.5 364.5 c 128,-1,24
 1082 279 1082 279 1036.5 209 c 128,-1,25
 991 139 991 139 930 88.5 c 128,-1,26
 869 38 869 38 792 10.5 c 128,-1,27
 715 -17 715 -17 623 -17 c 257,0,1
NamedP: "ab01"
965 719 m 257,28,29
NamedP: "ah01"
 965 789 965 789 960.5 862 c 128,-1,30
 956 935 956 935 942.5 1004.5 c 128,-1,31
 929 1074 929 1074 905 1135.5 c 128,-1,32
 881 1197 881 1197 842.5 1242.5 c 128,-1,33
 804 1288 804 1288 748.5 1315 c 128,-1,34
 693 1342 693 1342 617 1342 c 257,35,36
NamedP: "sv01"
 545 1342 545 1342 492 1318 c 128,-1,37
 439 1294 439 1294 402 1252.5 c 128,-1,38
 365 1211 365 1211 341 1155.5 c 128,-1,39
 317 1100 317 1100 304 1038 c 128,-1,40
 291 976 291 976 286 911 c 128,-1,41
 281 846 281 846 281 785 c 257,42,43
NamedP: "sh03"
 281 714 281 714 285.5 640 c 128,-1,44
 290 566 290 566 303.5 496.5 c 128,-1,45
 317 427 317 427 341 365.5 c 128,-1,46
 365 304 365 304 404 258 c 128,-1,47
 443 212 443 212 498 185 c 128,-1,48
 553 158 553 158 629 158 c 257,49,50
NamedP: "sv02"
 700 158 700 158 752.5 182.5 c 128,-1,51
 805 207 805 207 842.5 249.5 c 128,-1,52
 880 292 880 292 904 347.5 c 128,-1,53
 928 403 928 403 941.5 465.5 c 128,-1,54
 955 528 955 528 960 593 c 128,-1,55
 965 658 965 658 965 719 c 257,28,29
NamedP: "ah01"
880 1620 m 257,56,-1
NamedP: "av01"
 730 1620 l 257,57,-1
 630 1772 l 257,58,-1
 600 1860 l 257,59,-1
NamedP: "iv01"
 570 1773 l 257,60,-1
 469 1620 l 257,61,-1
NamedP: "av02"
 319 1620 l 257,62,-1
 495 1900 l 257,63,-1
 695 1920 l 257,64,-1
NamedP: "at02"
 880 1620 l 257,56,-1
NamedP: "av01"
EndSplineSet
PickledDataWithLists: "(dp0
Vcom.adobe.type.autohint
p1
(c_codecs
encode
p2
(Vdata
p3
Vlatin1
p4
tp5
Rp6
g2
(V<data>\\u000a        <hintSetList/>\\u000a      </data>
p7
g4
tp8
Rp9
Ntp10
sVcom.fontlab.ttprogram
p11
(g2
(Vdata
p12
g4
tp13
Rp14
g2
(V<data>\\u000a        <ttProgram>\\u000a          <ttc align=\"round\" code=\"alignh\" point=\"lsb\"/>\\u000a          <ttc align=\"round\" code=\"alignh\" point=\"ah01\"/>\\u000a          <ttc align=\"round\" code=\"singleh\" point1=\"lsb\" point2=\"sh01\"/>\\u000a          <ttc code=\"singleh\" point1=\"ah01\" point2=\"sh02\" stem=\"X: 208\"/>\\u000a          <ttc code=\"singleh\" point1=\"sh01\" point2=\"sh03\" stem=\"X: 208\"/>\\u000a          <ttc code=\"singleh\" point1=\"sh02\" point2=\"rsb\" round=\"true\"/>\\u000a          <ttc code=\"alignt\" point=\"at01\" zone=\"t: 1\"/>\\u000a          <ttc code=\"alignb\" point=\"ab01\" zone=\"b: 0\"/>\\u000a          <ttc code=\"singlev\" point1=\"at01\" point2=\"sv01\" stem=\"Y: 171\"/>\\u000a          <ttc code=\"singlev\" point1=\"ab01\" point2=\"sv02\" stem=\"Y: 171\"/>\\u000a          <ttc align=\"round\" code=\"alignv\" point=\"av01\"/>\\u000a          <ttc align=\"round\" code=\"alignv\" point=\"av02\"/>\\u000a          <ttc code=\"alignt\" point=\"at02\" zone=\"t: 1\"/>\\u000a          <ttc code=\"interpolatev\" point=\"iv01\" point1=\"av01\" point2=\"at02\"/>\\u000a        </ttProgram>\\u000a      </data>
p15
g4
tp16
Rp17
Ntp18
s."
EndChar
StartChar: multiply
Encoding: 325 215 325
GlifName: multiply
Width: 1300
VWidth: 0
Flags: W
LayerCount: 2
Fore
SplineSet
750 627 m 257,0,-1
NamedP: "iv01"
 1175 203 l 257,1,-1
NamedP: "ih02"
 1051 102 l 257,2,-1
NamedP: "av02"
 676 477 l 257,3,-1
 618 576 l 257,4,-1
NamedP: "ih01"
 600 477 l 257,5,-1
 225 102 l 257,6,-1
NamedP: "sh01"
 100 203 l 257,7,-1
NamedP: "ah01"
 526 627 l 257,8,-1
NamedP: "iv02"
 100 1052 l 257,9,-1
NamedP: "ih04"
 225 1153 l 257,10,-1
NamedP: "av01"
 600 777 l 257,11,-1
 658 679 l 257,12,-1
NamedP: "ih03"
 676 777 l 257,13,-1
 1051 1153 l 257,14,-1
NamedP: "sh02"
 1175 1052 l 257,15,-1
NamedP: "ah02"
 750 627 l 257,0,-1
NamedP: "iv01"
EndSplineSet
PickledDataWithLists: "(dp0
Vcom.fontlab.ttprogram
p1
(c_codecs
encode
p2
(Vdata
p3
Vlatin1
p4
tp5
Rp6
g2
(V<data>\\u000a        <ttProgram>\\u000a          <ttc align=\"round\" code=\"alignh\" point=\"ah01\"/>\\u000a          <ttc align=\"round\" code=\"alignh\" point=\"ah02\"/>\\u000a          <ttc code=\"interpolateh\" point=\"ih01\" point1=\"ah01\" point2=\"ih02\"/>\\u000a          <ttc code=\"singleh\" point1=\"ah01\" point2=\"sh01\" stem=\"X: dia Lite\"/>\\u000a          <ttc code=\"interpolateh\" point=\"ih03\" point1=\"ih04\" point2=\"ah02\"/>\\u000a          <ttc code=\"singleh\" point1=\"ah02\" point2=\"sh02\" stem=\"X: dia Lite\"/>\\u000a          <ttc align=\"round\" code=\"alignv\" point=\"av01\"/>\\u000a          <ttc align=\"round\" code=\"alignv\" point=\"av02\"/>\\u000a          <ttc code=\"interpolatev\" point=\"iv01\" point1=\"av02\" point2=\"sh02\"/>\\u000a          <ttc code=\"singlev\" point1=\"av02\" point2=\"ih02\" stem=\"Y: 135\"/>\\u000a          <ttc code=\"interpolatev\" point=\"iv02\" point1=\"av01\" point2=\"sh01\"/>\\u000a          <ttc code=\"singlev\" point1=\"av01\" point2=\"ih04\" stem=\"Y: 135\"/>\\u000a        </ttProgram>\\u000a      </data>
p7
g4
tp8
Rp9
Ntp10
s."
EndChar
StartChar: Oslash
Encoding: 57 216 57
GlifName: O_slash
Width: 1300
VWidth: 0
Flags: W
LayerCount: 2
Fore
SplineSet
331 -100 m 257,0,-1
NamedP: "hr00"
 121 -100 l 257,1,-1
 980 1600 l 257,2,-1
 1180 1600 l 257,3,-1
 331 -100 l 257,0,-1
NamedP: "hr00"
650 -17 m 257,4,5
 560 -17 560 -17 484.5 10.5 c 128,-1,6
 409 38 409 38 347.5 88.5 c 128,-1,7
 286 139 286 139 240 209 c 128,-1,8
 194 279 194 279 162.5 364.5 c 128,-1,9
 131 450 131 450 115.5 547.5 c 128,-1,10
 100 645 100 645 100 750 c 257,11,12
 100 855 100 855 115 952.5 c 128,-1,13
 130 1050 130 1050 160.5 1135.5 c 128,-1,14
 191 1221 191 1221 236.5 1291 c 128,-1,15
 282 1361 282 1361 343 1411.5 c 128,-1,16
 404 1462 404 1462 481 1489.5 c 128,-1,17
 558 1517 558 1517 650 1517 c 257,18,19
 740 1517 740 1517 815.5 1489.5 c 128,-1,20
 891 1462 891 1462 952.5 1411.5 c 128,-1,21
 1014 1361 1014 1361 1060 1291 c 128,-1,22
 1106 1221 1106 1221 1137.5 1135.5 c 128,-1,23
 1169 1050 1169 1050 1184.5 952.5 c 128,-1,24
 1200 855 1200 855 1200 750 c 257,25,26
 1200 645 1200 645 1185 547.5 c 128,-1,27
 1170 450 1170 450 1139.5 364.5 c 128,-1,28
 1109 279 1109 279 1063.5 209 c 128,-1,29
 1018 139 1018 139 957 88.5 c 128,-1,30
 896 38 896 38 819 10.5 c 128,-1,31
 742 -17 742 -17 650 -17 c 257,4,5
992 719 m 257,32,33
 992 789 992 789 987.5 862 c 128,-1,34
 983 935 983 935 969.5 1004.5 c 128,-1,35
 956 1074 956 1074 932 1135.5 c 128,-1,36
 908 1197 908 1197 869.5 1242.5 c 128,-1,37
 831 1288 831 1288 775.5 1315 c 128,-1,38
 720 1342 720 1342 644 1342 c 257,39,40
 572 1342 572 1342 519 1318 c 128,-1,41
 466 1294 466 1294 429 1252.5 c 128,-1,42
 392 1211 392 1211 368 1155.5 c 128,-1,43
 344 1100 344 1100 331 1038 c 128,-1,44
 318 976 318 976 313 911 c 128,-1,45
 308 846 308 846 308 785 c 257,46,47
 308 714 308 714 312.5 640 c 128,-1,48
 317 566 317 566 330.5 496.5 c 128,-1,49
 344 427 344 427 368 365.5 c 128,-1,50
 392 304 392 304 431 258 c 128,-1,51
 470 212 470 212 525 185 c 128,-1,52
 580 158 580 158 656 158 c 257,53,54
 727 158 727 158 779.5 182.5 c 128,-1,55
 832 207 832 207 869.5 249.5 c 128,-1,56
 907 292 907 292 931 347.5 c 128,-1,57
 955 403 955 403 968.5 465.5 c 128,-1,58
 982 528 982 528 987 593 c 128,-1,59
 992 658 992 658 992 719 c 257,32,33
EndSplineSet
PickledDataWithLists: "(dp0
Vcom.adobe.type.autohint
p1
(c_codecs
encode
p2
(Vdata
p3
Vlatin1
p4
tp5
Rp6
g2
(V<data>\\u000a        <hintSetList>\\u000a          <hintset pointTag=\"hr00\">\\u000a            <hstem pos=\"-17\" width=\"170\"/>\\u000a            <hstem pos=\"1347\" width=\"170\"/>\\u000a            <vstem pos=\"150\" width=\"208\"/>\\u000a            <vstem pos=\"1294\" width=\"208\"/>\\u000a          </hintset>\\u000a        </hintSetList>\\u000a      </data>
p7
g4
tp8
Rp9
Ntp10
s."
EndChar
StartChar: Uacute
Encoding: 74 218 74
GlifName: U_acute
Width: 1300
VWidth: 0
Flags: W
LayerCount: 2
Fore
SplineSet
1115 1500 m 257,0,-1
NamedP: "at02"
 1115 523 l 257,1,2
NamedP: "sh01"
 1115 387 1115 387 1082.5 285.5 c 128,-1,3
 1050 184 1050 184 988.5 117 c 128,-1,4
 927 50 927 50 838 16.5 c 128,-1,5
 749 -17 749 -17 635 -17 c 257,6,7
NamedP: "ih01"
 513 -17 513 -17 427.5 25.5 c 128,-1,8
 342 68 342 68 288 145.5 c 128,-1,9
 234 223 234 223 209.5 332 c 128,-1,10
 185 441 185 441 185 573 c 257,11,-1
NamedP: "sh02"
 185 1290 l 257,12,-1
 155 1500 l 257,13,-1
 375 1520 l 257,14,-1
NamedP: "at01"
 375 554 l 257,15,16
NamedP: "sh03"
 375 459 375 459 393.5 384.5 c 128,-1,17
 412 310 412 310 447 258.5 c 128,-1,18
 482 207 482 207 532 180 c 128,-1,19
 582 153 582 153 645 153 c 257,20,21
NamedP: "ih02"
 792 153 792 153 858.5 240.5 c 128,-1,22
 925 328 925 328 925 504 c 257,23,-1
NamedP: "ah01"
 925 1500 l 257,24,-1
 1115 1500 l 257,0,-1
NamedP: "at02"
700 1900 m 257,25,-1
NamedP: "ah02"
 930 1920 l 257,26,-1
NamedP: "sh04"
 690 1600 l 257,27,-1
NamedP: "av01"
 540 1600 l 257,28,-1
 700 1900 l 257,25,-1
NamedP: "ah02"
EndSplineSet
PickledDataWithLists: "(dp0
Vcom.adobe.type.autohint
p1
(c_codecs
encode
p2
(Vdata
p3
Vlatin1
p4
tp5
Rp6
g2
(V<data>\\u000a        <hintSetList/>\\u000a      </data>
p7
g4
tp8
Rp9
Ntp10
sVcom.fontlab.ttprogram
p11
(g2
(Vdata
p12
g4
tp13
Rp14
g2
(V<data>\\u000a        <ttProgram>\\u000a          <ttc align=\"round\" code=\"alignh\" point=\"lsb\"/>\\u000a          <ttc align=\"round\" code=\"alignh\" point=\"ah01\"/>\\u000a          <ttc code=\"singleh\" point1=\"ah01\" point2=\"sh01\" stem=\"X: 208\"/>\\u000a          <ttc align=\"round\" code=\"singleh\" point1=\"lsb\" point2=\"sh02\"/>\\u000a          <ttc code=\"interpolateh\" point=\"ih01\" point1=\"sh02\" point2=\"sh01\"/>\\u000a          <ttc code=\"singleh\" point1=\"sh02\" point2=\"sh03\" stem=\"X: 208\"/>\\u000a          <ttc code=\"interpolateh\" point=\"ih02\" point1=\"sh03\" point2=\"ah01\"/>\\u000a          <ttc code=\"singleh\" point1=\"sh01\" point2=\"rsb\" round=\"true\"/>\\u000a          <ttc code=\"alignt\" point=\"at01\" zone=\"t: 1\"/>\\u000a          <ttc code=\"alignt\" point=\"at02\" zone=\"t: 1\"/>\\u000a          <ttc code=\"alignb\" point=\"ih01\" zone=\"b: 0\"/>\\u000a          <ttc code=\"singlev\" point1=\"ih01\" point2=\"ih02\" stem=\"Y: 171\"/>\\u000a          <ttc align=\"round\" code=\"alignh\" point=\"ah02\"/>\\u000a          <ttc code=\"singleh\" point1=\"ah02\" point2=\"sh04\" stem=\"X: 208\"/>\\u000a          <ttc align=\"round\" code=\"alignv\" point=\"av01\"/>\\u000a          <ttc code=\"alignt\" point=\"sh04\" zone=\"t: 1\"/>\\u000a          <ttc code=\"alignt\" point=\"ah02\" zone=\"t: 1\"/>\\u000a        </ttProgram>\\u000a      </data>
p15
g4
tp16
Rp17
Ntp18
s."
EndChar
StartChar: Thorn
Encoding: 72 222 72
GlifName: T_horn
Width: 1300
VWidth: 0
Flags: W
LayerCount: 2
Fore
SplineSet
180 1500 m 257,0,-1
NamedP: "ah02"
 400 1500 l 257,1,-1
NamedP: "sh01"
 400 1301 l 257,2,-1
NamedP: "av02"
 600 1301 l 257,3,4
 646 1301 646 1301 697 1292 c 128,-1,5
 748 1283 748 1283 798 1263.5 c 128,-1,6
 848 1244 848 1244 893.5 1212.5 c 128,-1,7
 939 1181 939 1181 974 1135 c 128,-1,8
 1009 1089 1009 1089 1029.5 1028 c 128,-1,9
 1050 967 1050 967 1050 889 c 257,10,11
NamedP: "sh02"
 1050 831 1050 831 1042.5 769 c 128,-1,12
 1035 707 1035 707 1011.5 649.5 c 128,-1,13
 988 592 988 592 945 542 c 128,-1,14
 902 492 902 492 830 457 c 257,15,16
 780 433 780 433 716.5 417 c 128,-1,17
 653 401 653 401 560 401 c 257,18,-1
 400 401 l 257,19,-1
NamedP: "av01"
 400 0 l 257,20,-1
NamedP: "sh04"
 200 0 l 257,21,-1
NamedP: "sh05"
 200 1299 l 257,22,-1
 180 1500 l 257,0,-1
NamedP: "ah02"
400 1151 m 257,23,-1
NamedP: "sv01"
 400 557 l 257,24,-1
NamedP: "sh03"
 589 557 l 257,25,26
 662 557 662 557 715 582.5 c 128,-1,27
 768 608 768 608 802.5 652.5 c 128,-1,28
 837 697 837 697 853.5 757.5 c 128,-1,29
 870 818 870 818 870 889 c 257,30,31
NamedP: "ah01"
 870 951 870 951 849 1000 c 128,-1,32
 828 1049 828 1049 788.5 1082.5 c 128,-1,33
 749 1116 749 1116 693.5 1133.5 c 128,-1,34
 638 1151 638 1151 569 1151 c 257,35,-1
 400 1151 l 257,23,-1
NamedP: "sv01"
EndSplineSet
PickledDataWithLists: "(dp0
Vcom.adobe.type.autohint
p1
(c_codecs
encode
p2
(Vdata
p3
Vlatin1
p4
tp5
Rp6
g2
(V<data>\\u000a        <hintSetList>\\u000a          <hintset pointTag=\"ah02\">\\u000a            <hstem pos=\"21\" width=\"-21\"/>\\u000a            <hstem pos=\"301\" width=\"156\"/>\\u000a            <hstem pos=\"1051\" width=\"150\"/>\\u000a            <hstem pos=\"1500\" width=\"-20\"/>\\u000a            <vstem pos=\"200\" width=\"200\"/>\\u000a            <vstem pos=\"870\" width=\"180\"/>\\u000a          </hintset>\\u000a        </hintSetList>\\u000a      </data>
p7
g4
tp8
Rp9
Ntp10
sVcom.fontlab.ttprogram
p11
(g2
(Vdata
p12
g4
tp13
Rp14
g2
(V<data>\\u000a        <ttProgram>\\u000a          <ttc align=\"round\" code=\"alignh\" point=\"ah01\"/>\\u000a          <ttc align=\"round\" code=\"alignh\" point=\"ah02\"/>\\u000a          <ttc code=\"singleh\" point1=\"ah02\" point2=\"sh01\" stem=\"X: 208\"/>\\u000a          <ttc code=\"singleh\" point1=\"ah01\" point2=\"sh02\" stem=\"X: ecart du B\"/>\\u000a          <ttc code=\"singleh\" point1=\"sh01\" point2=\"sh03\"/>\\u000a          <ttc code=\"singleh\" point1=\"sh03\" point2=\"sh04\"/>\\u000a          <ttc code=\"singleh\" point1=\"sh04\" point2=\"sh05\" stem=\"X: 208\"/>\\u000a          <ttc align=\"round\" code=\"alignv\" point=\"av01\"/>\\u000a          <ttc align=\"round\" code=\"alignv\" point=\"av02\"/>\\u000a          <ttc code=\"alignt\" point=\"sh01\" zone=\"t: 1\"/>\\u000a          <ttc code=\"alignb\" point=\"sh04\" zone=\"b: 0\"/>\\u000a          <ttc code=\"singlev\" point1=\"av02\" point2=\"sv01\" stem=\"Y: 153\"/>\\u000a          <ttc code=\"singlev\" point1=\"av01\" point2=\"sh03\" stem=\"Y: 153\"/>\\u000a          <ttc code=\"interpolatev\" point=\"ah01\" point1=\"sv01\" point2=\"sh03\"/>\\u000a          <ttc code=\"singlev\" point1=\"ah01\" point2=\"sh02\"/>\\u000a        </ttProgram>\\u000a      </data>
p15
g4
tp16
Rp17
Ntp18
s."
EndChar
StartChar: aacute
Encoding: 90 225 90
GlifName: aacute
Width: 1300
VWidth: 0
Flags: W
LayerCount: 2
Fore
SplineSet
1110 0 m 257,0,-1
NamedP: "ab02"
 910 0 l 257,1,-1
 910 162 l 257,2,-1
NamedP: "ah01"
 816 50 l 257,3,4
NamedP: "ah02"
 799 37 799 37 772.5 25 c 128,-1,5
 746 13 746 13 716 3.5 c 128,-1,6
 686 -6 686 -6 655 -11.5 c 128,-1,7
 624 -17 624 -17 596 -17 c 257,8,9
NamedP: "ab01"
 521 -17 521 -17 445 6.5 c 128,-1,10
 369 30 369 30 308 75.5 c 128,-1,11
 247 121 247 121 208.5 188.5 c 128,-1,12
 170 256 170 256 170 344 c 257,13,14
NamedP: "sh01"
 170 437 170 437 209.5 504.5 c 128,-1,15
 249 572 249 572 313 616 c 128,-1,16
 377 660 377 660 459 681 c 128,-1,17
 541 702 541 702 625 702 c 257,18,19
NamedP: "dv02"
 720 702 720 702 790 691.5 c 128,-1,20
 860 681 860 681 910 662 c 257,21,-1
NamedP: "sh02"
 910 705 l 257,22,23
 910 764 910 764 895.5 811 c 128,-1,24
 881 858 881 858 850 890.5 c 128,-1,25
 819 923 819 923 770.5 940 c 128,-1,26
 722 957 722 957 655 957 c 257,27,28
NamedP: "sv01"
 592 957 592 957 546.5 949.5 c 128,-1,29
 501 942 501 942 462 933 c 257,30,31
 439 928 439 928 418 922 c 128,-1,32
 397 916 397 916 377 910 c 257,33,-1
NamedP: "ih01"
 305 1044 l 257,34,35
 347 1063 347 1063 405 1080 c 257,36,37
NamedP: "sh04"
 453 1094 453 1094 514.5 1105.5 c 128,-1,38
 576 1117 576 1117 665 1117 c 257,39,40
NamedP: "at01"
 780 1117 780 1117 861 1086 c 128,-1,41
 942 1055 942 1055 993 999 c 128,-1,42
 1044 943 1044 943 1067 864.5 c 128,-1,43
 1090 786 1090 786 1090 690 c 257,44,-1
 1090 180 l 257,45,-1
NamedP: "sh05"
 1110 0 l 257,0,-1
NamedP: "ab02"
910 525 m 257,46,-1
NamedP: "sh06"
 850 533 l 257,47,48
 836 534 836 534 813 536 c 128,-1,49
 790 538 790 538 763.5 539 c 128,-1,50
 737 540 737 540 710.5 541 c 128,-1,51
 684 542 684 542 665 542 c 257,52,53
NamedP: "dv01"
 609 542 609 542 555 532 c 128,-1,54
 501 522 501 522 458.5 499 c 128,-1,55
 416 476 416 476 389.5 438.5 c 128,-1,56
 363 401 363 401 363 345 c 257,57,58
NamedP: "sh03"
 363 300 363 300 383 263 c 128,-1,59
 403 226 403 226 436.5 199 c 128,-1,60
 470 172 470 172 513.5 157.5 c 128,-1,61
 557 143 557 143 604 143 c 257,62,63
NamedP: "sv02"
 697 143 697 143 771 178.5 c 128,-1,64
 845 214 845 214 910 274 c 257,65,-1
 910 525 l 257,46,-1
NamedP: "sh06"
750 1500 m 257,66,-1
NamedP: "ah03"
 980 1520 l 257,67,-1
NamedP: "sh07"
 740 1200 l 257,68,-1
NamedP: "av01"
 590 1200 l 257,69,-1
 750 1500 l 257,66,-1
NamedP: "ah03"
EndSplineSet
PickledDataWithLists: "(dp0
Vcom.adobe.type.autohint
p1
(c_codecs
encode
p2
(Vdata
p3
Vlatin1
p4
tp5
Rp6
g2
(V<data>\\u000a        <hintSetList/>\\u000a      </data>
p7
g4
tp8
Rp9
Ntp10
sVcom.fontlab.ttprogram
p11
(g2
(Vdata
p12
g4
tp13
Rp14
g2
(V<data>\\u000a        <ttProgram>\\u000a          <ttc align=\"round\" code=\"alignh\" point=\"lsb\"/>\\u000a          <ttc align=\"round\" code=\"alignh\" point=\"ah01\"/>\\u000a          <ttc align=\"round\" code=\"alignh\" point=\"ah02\"/>\\u000a          <ttc code=\"singleh\" point1=\"lsb\" point2=\"sh01\"/>\\u000a          <ttc code=\"singleh\" point1=\"ah01\" point2=\"sh02\"/>\\u000a          <ttc code=\"interpolateh\" point=\"ih01\" point1=\"sh01\" point2=\"sh02\"/>\\u000a          <ttc code=\"singleh\" point1=\"sh01\" point2=\"sh03\" stem=\"X: 190\"/>\\u000a          <ttc code=\"singleh\" point1=\"sh03\" point2=\"sh04\"/>\\u000a          <ttc code=\"singleh\" point1=\"ah01\" point2=\"sh05\" stem=\"X: 190\"/>\\u000a          <ttc code=\"singleh\" point1=\"ah01\" point2=\"sh06\"/>\\u000a          <ttc code=\"singleh\" point1=\"sh05\" point2=\"rsb\" round=\"true\"/>\\u000a          <ttc code=\"alignt\" point=\"at01\" zone=\"t: x\"/>\\u000a          <ttc code=\"alignb\" point=\"ab01\" zone=\"b: 0\"/>\\u000a          <ttc code=\"alignb\" point=\"ab02\" zone=\"b: 0\"/>\\u000a          <ttc code=\"doublev\" point1=\"dv01\" point2=\"dv02\" stem=\"Y: 162\"/>\\u000a          <ttc code=\"interpolatev\" point=\"sh02\" point1=\"dv02\" point2=\"dv01\"/>\\u000a          <ttc code=\"singlev\" point1=\"at01\" point2=\"sv01\" stem=\"Y: 162\"/>\\u000a          <ttc code=\"singlev\" point1=\"ab01\" point2=\"sv02\" stem=\"Y: 162\"/>\\u000a          <ttc align=\"round\" code=\"alignh\" point=\"ah03\"/>\\u000a          <ttc code=\"singleh\" point1=\"ah03\" point2=\"sh07\" stem=\"X: 208\"/>\\u000a          <ttc align=\"round\" code=\"alignv\" point=\"av01\"/>\\u000a          <ttc code=\"alignt\" point=\"sh07\" zone=\"t: 1\"/>\\u000a          <ttc code=\"alignt\" point=\"ah03\" zone=\"t: 1\"/>\\u000a        </ttProgram>\\u000a      </data>
p15
g4
tp16
Rp17
Ntp18
s."
EndChar
StartChar: aring
Encoding: 102 229 102
GlifName: aring
Width: 1300
VWidth: 0
Flags: W
LayerCount: 2
Fore
SplineSet
1110 0 m 257,0,-1
NamedP: "ab02"
 910 0 l 257,1,-1
 910 162 l 257,2,-1
NamedP: "ah01"
 816 50 l 257,3,4
NamedP: "ah02"
 799 37 799 37 772.5 25 c 128,-1,5
 746 13 746 13 716 3.5 c 128,-1,6
 686 -6 686 -6 655 -11.5 c 128,-1,7
 624 -17 624 -17 596 -17 c 257,8,9
NamedP: "ab01"
 521 -17 521 -17 445 6.5 c 128,-1,10
 369 30 369 30 308 75.5 c 128,-1,11
 247 121 247 121 208.5 188.5 c 128,-1,12
 170 256 170 256 170 344 c 257,13,14
NamedP: "sh01"
 170 437 170 437 209.5 504.5 c 128,-1,15
 249 572 249 572 313 616 c 128,-1,16
 377 660 377 660 459 681 c 128,-1,17
 541 702 541 702 625 702 c 257,18,19
NamedP: "dv02"
 720 702 720 702 790 691.5 c 128,-1,20
 860 681 860 681 910 662 c 257,21,-1
NamedP: "sh02"
 910 705 l 257,22,23
 910 764 910 764 895.5 811 c 128,-1,24
 881 858 881 858 850 890.5 c 128,-1,25
 819 923 819 923 770.5 940 c 128,-1,26
 722 957 722 957 655 957 c 257,27,28
NamedP: "sv01"
 592 957 592 957 546.5 949.5 c 128,-1,29
 501 942 501 942 462 933 c 257,30,31
 439 928 439 928 418 922 c 128,-1,32
 397 916 397 916 377 910 c 257,33,-1
NamedP: "ih01"
 305 1044 l 257,34,35
 347 1063 347 1063 405 1080 c 257,36,37
NamedP: "sh04"
 453 1094 453 1094 514.5 1105.5 c 128,-1,38
 576 1117 576 1117 665 1117 c 257,39,40
NamedP: "at01"
 780 1117 780 1117 861 1086 c 128,-1,41
 942 1055 942 1055 993 999 c 128,-1,42
 1044 943 1044 943 1067 864.5 c 128,-1,43
 1090 786 1090 786 1090 690 c 257,44,-1
 1090 180 l 257,45,-1
NamedP: "sh05"
 1110 0 l 257,0,-1
NamedP: "ab02"
910 525 m 257,46,-1
NamedP: "sh06"
 850 533 l 257,47,48
 836 534 836 534 813 536 c 128,-1,49
 790 538 790 538 763.5 539 c 128,-1,50
 737 540 737 540 710.5 541 c 128,-1,51
 684 542 684 542 665 542 c 257,52,53
NamedP: "dv01"
 609 542 609 542 555 532 c 128,-1,54
 501 522 501 522 458.5 499 c 128,-1,55
 416 476 416 476 389.5 438.5 c 128,-1,56
 363 401 363 401 363 345 c 257,57,58
NamedP: "sh03"
 363 300 363 300 383 263 c 128,-1,59
 403 226 403 226 436.5 199 c 128,-1,60
 470 172 470 172 513.5 157.5 c 128,-1,61
 557 143 557 143 604 143 c 257,62,63
NamedP: "sv02"
 697 143 697 143 771 178.5 c 128,-1,64
 845 214 845 214 910 274 c 257,65,-1
 910 525 l 257,46,-1
NamedP: "sh06"
700 1634 m 257,66,67
NamedP: "av01"
 749 1634 749 1634 792 1615.5 c 128,-1,68
 835 1597 835 1597 867.5 1564.5 c 128,-1,69
 900 1532 900 1532 918.5 1489 c 128,-1,70
 937 1446 937 1446 937 1397 c 257,71,72
NamedP: "ah04"
 937 1348 937 1348 918.5 1304 c 128,-1,73
 900 1260 900 1260 868.5 1227 c 128,-1,74
 837 1194 837 1194 794 1175 c 128,-1,75
 751 1156 751 1156 702 1156 c 257,76,77
NamedP: "av02"
 653 1156 653 1156 609.5 1175 c 128,-1,78
 566 1194 566 1194 533 1227 c 128,-1,79
 500 1260 500 1260 481 1304 c 128,-1,80
 462 1348 462 1348 462 1397 c 257,81,82
NamedP: "ah03"
 462 1446 462 1446 481 1489 c 128,-1,83
 500 1532 500 1532 532 1564.5 c 128,-1,84
 564 1597 564 1597 607.5 1615.5 c 128,-1,85
 651 1634 651 1634 700 1634 c 257,66,67
NamedP: "av01"
701 1273 m 257,86,87
NamedP: "sv03"
 726 1273 726 1273 748 1283 c 128,-1,88
 770 1293 770 1293 786 1309.5 c 128,-1,89
 802 1326 802 1326 811.5 1348.5 c 128,-1,90
 821 1371 821 1371 821 1396 c 257,91,92
NamedP: "sh07"
 821 1421 821 1421 811.5 1443 c 128,-1,93
 802 1465 802 1465 785.5 1481.5 c 128,-1,94
 769 1498 769 1498 747 1507.5 c 128,-1,95
 725 1517 725 1517 700 1517 c 257,96,97
NamedP: "sv04"
 675 1517 675 1517 653 1507.5 c 128,-1,98
 631 1498 631 1498 614.5 1481.5 c 128,-1,99
 598 1465 598 1465 588.5 1443 c 128,-1,100
 579 1421 579 1421 579 1396 c 257,101,102
NamedP: "sh08"
 579 1371 579 1371 588.5 1348.5 c 128,-1,103
 598 1326 598 1326 614.5 1309.5 c 128,-1,104
 631 1293 631 1293 653.5 1283 c 128,-1,105
 676 1273 676 1273 701 1273 c 257,86,87
NamedP: "sv03"
EndSplineSet
PickledDataWithLists: "(dp0
Vcom.adobe.type.autohint
p1
(c_codecs
encode
p2
(Vdata
p3
Vlatin1
p4
tp5
Rp6
g2
(V<data>\\u000a        <hintSetList>\\u000a          <hintset pointTag=\"ab02\">\\u000a            <hstem pos=\"-17\" width=\"160\"/>\\u000a            <hstem pos=\"550\" width=\"160\"/>\\u000a            <hstem pos=\"957\" width=\"160\"/>\\u000a            <vstem pos=\"70\" width=\"190\"/>\\u000a            <vstem pos=\"710\" width=\"190\"/>\\u000a          </hintset>\\u000a        </hintSetList>\\u000a      </data>
p7
g4
tp8
Rp9
Ntp10
sVcom.fontlab.ttprogram
p11
(g2
(Vdata
p12
g4
tp13
Rp14
g2
(V<data>\\u000a        <ttProgram>\\u000a          <ttc align=\"round\" code=\"alignh\" point=\"lsb\"/>\\u000a          <ttc align=\"round\" code=\"alignh\" point=\"ah01\"/>\\u000a          <ttc align=\"round\" code=\"alignh\" point=\"ah02\"/>\\u000a          <ttc code=\"singleh\" point1=\"lsb\" point2=\"sh01\"/>\\u000a          <ttc code=\"singleh\" point1=\"ah01\" point2=\"sh02\"/>\\u000a          <ttc code=\"interpolateh\" point=\"ih01\" point1=\"sh01\" point2=\"sh02\"/>\\u000a          <ttc code=\"singleh\" point1=\"sh01\" point2=\"sh03\" stem=\"X: 190\"/>\\u000a          <ttc code=\"singleh\" point1=\"sh03\" point2=\"sh04\"/>\\u000a          <ttc code=\"singleh\" point1=\"ah01\" point2=\"sh05\" stem=\"X: 190\"/>\\u000a          <ttc code=\"singleh\" point1=\"ah01\" point2=\"sh06\"/>\\u000a          <ttc code=\"singleh\" point1=\"sh05\" point2=\"rsb\" round=\"true\"/>\\u000a          <ttc code=\"alignt\" point=\"at01\" zone=\"t: x\"/>\\u000a          <ttc code=\"alignb\" point=\"ab01\" zone=\"b: 0\"/>\\u000a          <ttc code=\"alignb\" point=\"ab02\" zone=\"b: 0\"/>\\u000a          <ttc code=\"doublev\" point1=\"dv01\" point2=\"dv02\" stem=\"Y: 162\"/>\\u000a          <ttc code=\"interpolatev\" point=\"sh02\" point1=\"dv02\" point2=\"dv01\"/>\\u000a          <ttc code=\"singlev\" point1=\"at01\" point2=\"sv01\" stem=\"Y: 162\"/>\\u000a          <ttc code=\"singlev\" point1=\"ab01\" point2=\"sv02\" stem=\"Y: 162\"/>\\u000a          <ttc align=\"round\" code=\"alignh\" point=\"ah03\"/>\\u000a          <ttc align=\"round\" code=\"alignh\" point=\"ah04\"/>\\u000a          <ttc code=\"singleh\" point1=\"ah04\" point2=\"sh07\" round=\"true\"/>\\u000a          <ttc code=\"singleh\" point1=\"ah03\" point2=\"sh08\" round=\"true\"/>\\u000a          <ttc align=\"round\" code=\"alignv\" point=\"av01\"/>\\u000a          <ttc align=\"round\" code=\"alignv\" point=\"av02\"/>\\u000a          <ttc code=\"singlev\" point1=\"av02\" point2=\"sv03\" round=\"true\"/>\\u000a          <ttc code=\"singlev\" point1=\"av01\" point2=\"sv04\" round=\"true\"/>\\u000a        </ttProgram>\\u000a      </data>
p15
g4
tp16
Rp17
Ntp18
s."
EndChar
StartChar: ae
Encoding: 95 230 95
GlifName: ae
Width: 1300
VWidth: 0
Flags: W
LayerCount: 2
Fore
SplineSet
1245 650 m 257,0,1
 1245 631 1245 631 1243.5 609.5 c 128,-1,2
 1242 588 1242 588 1239 567 c 128,-1,3
 1236 546 1236 546 1232.5 528 c 128,-1,4
 1229 510 1229 510 1225 500 c 257,5,-1
 745 500 l 257,6,7
 745 425 745 425 756 360 c 128,-1,8
 767 295 767 295 789.5 246.5 c 128,-1,9
 812 198 812 198 846 170.5 c 128,-1,10
 880 143 880 143 925 143 c 257,11,12
 963 143 963 143 994 152.5 c 128,-1,13
 1025 162 1025 162 1048 175 c 128,-1,14
 1071 188 1071 188 1086 202 c 128,-1,15
 1101 216 1101 216 1107 225 c 257,16,-1
 1236 129 l 257,17,18
 1211 99 1211 99 1184.5 72.5 c 128,-1,19
 1158 46 1158 46 1122 26 c 128,-1,20
 1086 6 1086 6 1038 -5.5 c 128,-1,21
 990 -17 990 -17 923 -17 c 257,22,23
 870 -17 870 -17 825 -0.5 c 128,-1,24
 780 16 780 16 744.5 44 c 128,-1,25
 709 72 709 72 684.5 109.5 c 128,-1,26
 660 147 660 147 647 189 c 257,27,28
 631 147 631 147 609.5 109.5 c 128,-1,29
 588 72 588 72 557 44 c 128,-1,30
 526 16 526 16 483 -0.5 c 128,-1,31
 440 -17 440 -17 381 -17 c 257,32,33
 306 -17 306 -17 245.5 6.5 c 128,-1,34
 185 30 185 30 142.5 75.5 c 128,-1,35
 100 121 100 121 77.5 188.5 c 128,-1,36
 55 256 55 256 55 344 c 257,37,38
 55 437 55 437 77 505.5 c 128,-1,39
 99 574 99 574 138.5 619.5 c 128,-1,40
 178 665 178 665 234.5 687.5 c 128,-1,41
 291 710 291 710 360 710 c 257,42,43
 417 710 417 710 448 704 c 128,-1,44
 479 698 479 698 494 690 c 257,45,46
 512 681 512 681 515 670 c 257,47,-1
 515 705 l 257,48,49
 515 764 515 764 513 811 c 128,-1,50
 511 858 511 858 499.5 890.5 c 128,-1,51
 488 923 488 923 462.5 940 c 128,-1,52
 437 957 437 957 390 957 c 257,53,54
 357 957 357 957 325.5 949.5 c 128,-1,55
 294 942 294 942 268 933 c 257,56,57
 238 922 238 922 212 910 c 257,58,-1
 140 1044 l 257,59,60
 182 1064 182 1064 231 1080 c 257,61,62
 273 1094 273 1094 329 1105.5 c 128,-1,63
 385 1117 385 1117 450 1117 c 257,64,65
 492 1117 492 1117 525 1104.5 c 128,-1,66
 558 1092 558 1092 582 1070.5 c 128,-1,67
 606 1049 606 1049 622.5 1021 c 128,-1,68
 639 993 639 993 648 962 c 257,69,70
 657 993 657 993 678 1021 c 128,-1,71
 699 1049 699 1049 731 1070.5 c 128,-1,72
 763 1092 763 1092 807 1104.5 c 128,-1,73
 851 1117 851 1117 905 1117 c 257,74,75
 1013 1117 1013 1117 1079.5 1087 c 128,-1,76
 1146 1057 1146 1057 1183 998 c 128,-1,77
 1220 939 1220 939 1232.5 851.5 c 128,-1,78
 1245 764 1245 764 1245 650 c 257,0,1
515 533 m 257,79,80
 506 537 506 537 494 541 c 257,81,82
 483 544 483 544 466 547 c 128,-1,83
 449 550 449 550 426 550 c 257,84,85
 333 550 333 550 284 503.5 c 128,-1,86
 235 457 235 457 235 345 c 257,87,88
 235 300 235 300 243.5 263 c 128,-1,89
 252 226 252 226 270.5 199 c 128,-1,90
 289 172 289 172 318.5 157.5 c 128,-1,91
 348 143 348 143 389 143 c 257,92,93
 427 143 427 143 452 163 c 128,-1,94
 477 183 477 183 491 208 c 257,95,96
 508 237 508 237 515 274 c 257,97,-1
 515 533 l 257,79,80
1067 730 m 257,98,99
 1067 776 1067 776 1059.5 817.5 c 128,-1,100
 1052 859 1052 859 1034 890 c 128,-1,101
 1016 921 1016 921 986 939 c 128,-1,102
 956 957 956 957 911 957 c 257,103,104
 862 957 862 957 830 937.5 c 128,-1,105
 798 918 798 918 779 886.5 c 128,-1,106
 760 855 760 855 752 814.5 c 128,-1,107
 744 774 744 774 744 732 c 257,108,-1
 675 623 l 257,109,-1
 797 650 l 257,110,-1
 1067 650 l 257,111,-1
 1067 730 l 257,98,99
EndSplineSet
EndChar
StartChar: ccedilla
Encoding: 168 231 168
GlifName: ccedilla
Width: 1300
VWidth: 0
Flags: W
LayerCount: 2
Fore
SplineSet
1006 878 m 257,0,1
NamedP: "hr00"
 967 913 967 913 898 935 c 128,-1,2
 829 957 829 957 723 957 c 257,3,4
NamedP: "sv01"
 639 957 639 957 572.5 925.5 c 128,-1,5
 506 894 506 894 459.5 840 c 128,-1,6
 413 786 413 786 388.5 714.5 c 128,-1,7
 364 643 364 643 364 564 c 257,8,9
NamedP: "sh02"
 364 482 364 482 387.5 407.5 c 128,-1,10
 411 333 411 333 457.5 276 c 128,-1,11
 504 219 504 219 573 185.5 c 128,-1,12
 642 152 642 152 734 152 c 257,13,14
NamedP: "sv02"
 786 152 786 152 834 164 c 128,-1,15
NamedP: "mv01"
 882 176 882 176 921 192.5 c 128,-1,16
 960 209 960 209 987.5 225.5 c 128,-1,17
NamedP: "mh01"
 1015 242 1015 242 1027 252 c 257,18,-1
NamedP: "mv02"
 1099 111 l 257,19,20
 1084 98 1084 98 1054 76.5 c 128,-1,21
 1024 55 1024 55 977.5 34 c 128,-1,22
 931 13 931 13 867.5 -2 c 128,-1,23
 804 -17 804 -17 720 -17 c 257,24,25
NamedP: "ab01"
 595 -17 595 -17 493.5 32.5 c 128,-1,26
 392 82 392 82 320 164.5 c 128,-1,27
 248 247 248 247 208.5 354 c 128,-1,28
 169 461 169 461 169 577 c 257,29,30
NamedP: "sh01"
 169 681 169 681 207.5 778.5 c 128,-1,31
 246 876 246 876 318 951 c 128,-1,32
 390 1026 390 1026 493 1071.5 c 128,-1,33
 596 1117 596 1117 725 1117 c 257,34,35
NamedP: "at01"
 847 1117 847 1117 944.5 1088.5 c 128,-1,36
 1042 1060 1042 1060 1105 991 c 257,37,-1
 1006 878 l 257,0,1
NamedP: "hr00"
810 0 m 257,38,39
NamedP: "sh03"
 833 -27 833 -27 851 -59 c 257,40,41
 867 -86 867 -86 880 -122 c 128,-1,42
 893 -158 893 -158 893 -198 c 257,43,44
NamedP: "sh04"
 893 -242 893 -242 874.5 -280 c 128,-1,45
 856 -318 856 -318 825 -346.5 c 128,-1,46
 794 -375 794 -375 753.5 -391 c 128,-1,47
 713 -407 713 -407 669 -407 c 257,48,49
 619 -407 619 -407 572.5 -393.5 c 128,-1,50
 526 -380 526 -380 489 -363 c 257,51,52
 446 -344 446 -344 408 -318 c 257,53,-1
NamedP: "ah03"
 479 -218 l 257,54,55
NamedP: "av01"
 505 -236 505 -236 533 -249 c 257,56,57
 557 -260 557 -260 586.5 -269.5 c 128,-1,58
 616 -279 616 -279 645 -279 c 257,59,60
 682 -279 682 -279 711 -255 c 128,-1,61
 740 -231 740 -231 740 -189 c 257,62,63
NamedP: "ah02"
 740 -156 740 -156 723.5 -122.5 c 128,-1,64
 707 -89 707 -89 687 -62 c 257,65,66
 663 -30 663 -30 634 0 c 257,67,-1
NamedP: "ah01"
 810 0 l 257,38,39
NamedP: "sh03"
EndSplineSet
PickledDataWithLists: "(dp0
Vcom.adobe.type.autohint
p1
(c_codecs
encode
p2
(Vdata
p3
Vlatin1
p4
tp5
Rp6
g2
(V<data>\\u000a        <hintSetList>\\u000a          <hintset pointTag=\"hr00\">\\u000a            <hstem pos=\"-17\" width=\"169\"/>\\u000a            <hstem pos=\"957\" width=\"160\"/>\\u000a            <vstem pos=\"94\" width=\"195\"/>\\u000a          </hintset>\\u000a        </hintSetList>\\u000a      </data>
p7
g4
tp8
Rp9
Ntp10
sVcom.fontlab.ttprogram
p11
(g2
(Vdata
p12
g4
tp13
Rp14
g2
(V<data>\\u000a        <ttProgram>\\u000a          <ttc align=\"round\" code=\"alignh\" point=\"lsb\"/>\\u000a          <ttc code=\"singleh\" point1=\"lsb\" point2=\"sh01\" round=\"true\"/>\\u000a          <ttc code=\"singleh\" point1=\"sh01\" point2=\"sh02\" stem=\"X: 199\"/>\\u000a          <ttc code=\"alignt\" point=\"at01\" zone=\"t: x\"/>\\u000a          <ttc code=\"alignb\" point=\"ab01\" zone=\"b: 0\"/>\\u000a          <ttc code=\"singlev\" point1=\"at01\" point2=\"sv01\" stem=\"Y: 162\"/>\\u000a          <ttc code=\"singlev\" point1=\"ab01\" point2=\"sv02\" stem=\"Y: 171\"/>\\u000a          <ttc align=\"round\" code=\"alignh\" point=\"ah01\"/>\\u000a          <ttc align=\"round\" code=\"alignh\" point=\"ah02\"/>\\u000a          <ttc align=\"round\" code=\"alignh\" point=\"ah03\"/>\\u000a          <ttc code=\"mdeltah\" delta=\"7\" point=\"ah01\" ppm1=\"13\" ppm2=\"13\"/>\\u000a          <ttc code=\"mdeltah\" delta=\"5\" point=\"ah01\" ppm1=\"12\" ppm2=\"12\"/>\\u000a          <ttc code=\"singleh\" point1=\"ah01\" point2=\"sh03\" stem=\"X: 176\"/>\\u000a          <ttc code=\"singleh\" point1=\"ah02\" point2=\"sh04\" stem=\"X: 176\"/>\\u000a          <ttc align=\"round\" code=\"alignv\" point=\"av01\"/>\\u000a          <ttc align=\"round\" code=\"alignv\" point=\"av02\"/>\\u000a          <ttc code=\"alignb\" point=\"sh03\" zone=\"b: 0\"/>\\u000a          <ttc code=\"singlev\" point1=\"av01\" point2=\"ah03\" stem=\"Y: 135\"/>\\u000a          <ttc code=\"mdeltav\" delta=\"-5\" point=\"av02\" ppm1=\"23\" ppm2=\"23\"/>\\u000a          <ttc code=\"mdeltah\" delta=\"3\" point=\"mh01\" ppm1=\"12\" ppm2=\"12\"/>\\u000a          <ttc code=\"mdeltav\" delta=\"-3\" point=\"mv01\" ppm1=\"10\" ppm2=\"10\"/>\\u000a          <ttc code=\"mdeltav\" delta=\"-4\" point=\"mv01\" ppm1=\"12\" ppm2=\"12\"/>\\u000a          <ttc code=\"mdeltav\" delta=\"3\" point=\"mv02\" ppm1=\"13\" ppm2=\"13\"/>\\u000a        </ttProgram>\\u000a      </data>
p15
g4
tp16
Rp17
Ntp18
s."
EndChar
StartChar: igrave
Encoding: 290 236 290
GlifName: igrave
Width: 1300
VWidth: 0
Flags: W
LayerCount: 2
Fore
SplineSet
711 393 m 257,0,1
 711 153 711 153 841 153 c 256,2,3
 868 153 868 153 896.5 156 c 0,4,5
 925 159 925 159 950 163.5 c 0,6,7
 975 168 975 168 998 173.5 c 0,8,9
 1021 179 1021 179 1041 185.5 c 0,10,11
 1061 192 1061 192 1074.5 196.5 c 0,12,13
 1088 201 1088 201 1099.5 205.5 c 0,14,15
 1111 210 1111 210 1112 210 c 257,16,-1
 1151 56 l 257,17,18
 1131 45 1131 45 1100 32 c 0,19,20
 1069 19 1069 19 989.5 1 c 0,21,22
 910 -17 910 -17 831 -17 c 256,23,24
 755 -17 755 -17 699 4.5 c 0,25,26
 643 26 643 26 609 61.5 c 0,27,28
 575 97 575 97 555 153 c 0,29,30
 535 209 535 209 528 267.5 c 0,31,32
 521 326 521 326 521 403 c 258,33,-1
 521 970 l 257,34,-1
 421 940 l 257,35,-1
 220 940 l 257,36,-1
 200 1100 l 257,37,-1
NamedP: "hr01"
 711 1100 l 257,38,-1
 711 501 l 257,39,-1
 711 393 l 257,0,1
660 1200 m 257,40,-1
NamedP: "hr02"
 510 1200 l 257,41,-1
 285 1500 l 257,42,-1
 489 1520 l 257,43,-1
 660 1200 l 257,40,-1
NamedP: "hr02"
EndSplineSet
PickledDataWithLists: "(dp0
Vcom.adobe.type.autohint
p1
(c_codecs
encode
p2
(Vdata
p3
Vlatin1
p4
tp5
Rp6
g2
(V<data>\\u000a        <hintSetList>\\u000a          <hintset pointTag=\"hr01\">\\u000a            <hstem pos=\"21\" width=\"-21\"/>\\u000a            <hstem pos=\"1300\" width=\"200\"/>\\u000a            <vstem pos=\"200\" width=\"190\"/>\\u000a          </hintset>\\u000a          <hintset pointTag=\"hr02\">\\u000a            <hstem pos=\"1221\" width=\"-21\"/>\\u000a            <hstem pos=\"1520\" width=\"-20\"/>\\u000a          </hintset>\\u000a        </hintSetList>\\u000a      </data>
p7
g4
tp8
Rp9
Ntp10
s."
EndChar
StartChar: eth
Encoding: 240 240 240
GlifName: eth
Width: 1300
VWidth: 0
Flags: W
LayerCount: 2
Fore
SplineSet
414 1165 m 257,0,-1
NamedP: "hr00"
 626 1344 l 257,1,-1
 507 1323 l 257,2,3
 409 1375 409 1375 306 1375 c 256,4,5
 283 1375 283 1375 271 1372 c 257,6,-1
 246 1515 l 257,7,8
 267 1517 267 1517 307 1517 c 256,9,10
 520 1517 520 1517 695 1402 c 257,11,-1
 833 1519 l 257,12,-1
 930 1404 l 257,13,-1
 746 1249 l 257,14,-1
 863 1249 l 257,15,16
 968 1126 968 1126 1026 960.5 c 0,17,18
 1084 795 1084 795 1084 617 c 256,19,20
 1084 566 1084 566 1079.5 513.5 c 0,21,22
 1075 461 1075 461 1061.5 397 c 0,23,24
 1048 333 1048 333 1026.5 276.5 c 0,25,26
 1005 220 1005 220 969 165 c 0,27,28
 933 110 933 110 886.5 70.5 c 0,29,30
 840 31 840 31 772.5 7 c 0,31,32
 705 -17 705 -17 624 -17 c 256,33,34
 414 -17 414 -17 307 113 c 0,35,36
 200 243 200 243 200 466 c 256,37,38
 200 688 200 688 303 806 c 0,39,40
 406 924 406 924 601 924 c 256,41,42
 669 924 669 924 718.5 906.5 c 0,43,44
 768 889 768 889 827 844 c 257,45,-1
 910 727 l 257,46,47
 893 851 893 851 831 974 c 0,48,49
 769 1097 769 1097 678 1191 c 257,50,-1
 511 1050 l 257,51,-1
 414 1165 l 257,0,-1
NamedP: "hr00"
909 604 m 257,52,53
 868 663 868 663 784.5 713.5 c 0,54,55
 701 764 701 764 616 764 c 256,56,57
 562 764 562 764 520.5 748 c 0,58,59
 479 732 479 732 453 704.5 c 0,60,61
 427 677 427 677 410 636 c 0,62,63
 393 595 393 595 386.5 549.5 c 0,64,65
 380 504 380 504 380 448 c 256,66,67
 380 311 380 311 443 227 c 0,68,69
 506 143 506 143 623 143 c 256,70,71
 737 143 737 143 803 216 c 0,72,73
 869 289 869 289 894 409 c 256,74,75
 909 482 909 482 909 604 c 257,52,53
EndSplineSet
PickledDataWithLists: "(dp0
Vcom.adobe.type.autohint
p1
(c_codecs
encode
p2
(Vdata
p3
Vlatin1
p4
tp5
Rp6
g2
(V<data>\\u000a        <hintSetList>\\u000a          <hintset pointTag=\"hr00\">\\u000a            <hstem pos=\"-20\" width=\"160\"/>\\u000a            <hstem pos=\"927\" width=\"-170\"/>\\u000a            <hstem pos=\"1378\" width=\"142\"/>\\u000a            <vstem pos=\"146\" width=\"180\"/>\\u000a            <vstem pos=\"916\" width=\"206\"/>\\u000a          </hintset>\\u000a        </hintSetList>\\u000a      </data>
p7
g4
tp8
Rp9
Ntp10
s."
EndChar
StartChar: ntilde
Encoding: 335 241 335
GlifName: ntilde
Width: 1300
VWidth: 0
Flags: W
LayerCount: 2
Fore
SplineSet
390 0 m 257,0,-1
NamedP: "sh02"
 210 0 l 257,1,-1
NamedP: "sh01"
 210 1100 l 257,2,-1
 390 1120 l 257,3,-1
NamedP: "sh03"
 390 927 l 257,4,-1
NamedP: "ih01"
 451 1044 l 257,5,6
 469 1056 469 1056 493.5 1069 c 128,-1,7
 518 1082 518 1082 553 1092.5 c 128,-1,8
 588 1103 588 1103 636 1110 c 128,-1,9
 684 1117 684 1117 749 1117 c 257,10,11
NamedP: "av01"
 828 1117 828 1117 891.5 1091.5 c 128,-1,12
 955 1066 955 1066 998.5 1018 c 128,-1,13
 1042 970 1042 970 1065.5 902 c 128,-1,14
 1089 834 1089 834 1089 750 c 257,15,-1
 1089 0 l 257,16,-1
NamedP: "sh04"
 909 0 l 257,17,-1
NamedP: "ah01"
 909 750 l 257,18,19
 909 804 909 804 891.5 843 c 128,-1,20
 874 882 874 882 843 907.5 c 128,-1,21
 812 933 812 933 771 945 c 128,-1,22
 730 957 730 957 684 957 c 257,23,24
NamedP: "sv01"
 636 957 636 957 591.5 945 c 128,-1,25
 547 933 547 933 509 914.5 c 128,-1,26
 471 896 471 896 440.5 874.5 c 128,-1,27
 410 853 410 853 390 834 c 257,28,-1
 390 0 l 257,0,-1
NamedP: "sh02"
387 1275 m 257,29,30
 391 1315 391 1315 406.5 1353 c 128,-1,31
 422 1391 422 1391 446.5 1420 c 128,-1,32
 471 1449 471 1449 502 1466.5 c 128,-1,33
 533 1484 533 1484 569 1484 c 257,34,35
 608 1484 608 1484 642 1470 c 128,-1,36
 676 1456 676 1456 707 1439 c 128,-1,37
 738 1422 738 1422 768 1408 c 128,-1,38
 798 1394 798 1394 829 1394 c 257,39,40
 850 1394 850 1394 866 1404.5 c 128,-1,41
 882 1415 882 1415 893 1430.5 c 128,-1,42
 904 1446 904 1446 911 1465 c 128,-1,43
 918 1484 918 1484 921 1502 c 257,44,-1
 1017 1498 l 257,45,46
 1014 1454 1014 1454 997.5 1413 c 128,-1,47
 981 1372 981 1372 955.5 1340.5 c 128,-1,48
 930 1309 930 1309 895.5 1290 c 128,-1,49
 861 1271 861 1271 822 1271 c 257,50,51
 790 1271 790 1271 759 1285 c 128,-1,52
 728 1299 728 1299 696 1315.5 c 128,-1,53
 664 1332 664 1332 631 1346 c 128,-1,54
 598 1360 598 1360 563 1360 c 257,55,56
 545 1360 545 1360 530.5 1352 c 128,-1,57
 516 1344 516 1344 504.5 1331 c 128,-1,58
 493 1318 493 1318 485 1302.5 c 128,-1,59
 477 1287 477 1287 473 1272 c 257,60,-1
 387 1275 l 257,29,30
EndSplineSet
PickledDataWithLists: "(dp0
Vcom.adobe.type.autohint
p1
(c_codecs
encode
p2
(Vdata
p3
Vlatin1
p4
tp5
Rp6
g2
(V<data>\\u000a        <hintSetList>\\u000a          <hintset pointTag=\"sh02\">\\u000a            <hstem pos=\"21\" width=\"-21\"/>\\u000a            <hstem pos=\"957\" width=\"160\"/>\\u000a            <vstem pos=\"200\" width=\"190\"/>\\u000a            <vstem pos=\"810\" width=\"190\"/>\\u000a          </hintset>\\u000a        </hintSetList>\\u000a      </data>
p7
g4
tp8
Rp9
Ntp10
sVcom.fontlab.ttprogram
p11
(g2
(Vdata
p12
g4
tp13
Rp14
g2
(V<data>\\u000a        <ttProgram>\\u000a          <ttc align=\"round\" code=\"alignh\" point=\"lsb\"/>\\u000a          <ttc align=\"round\" code=\"alignh\" point=\"ah01\"/>\\u000a          <ttc align=\"round\" code=\"singleh\" point1=\"lsb\" point2=\"sh01\"/>\\u000a          <ttc code=\"singleh\" point1=\"sh01\" point2=\"sh02\" stem=\"X: 199\"/>\\u000a          <ttc code=\"singleh\" point1=\"sh02\" point2=\"sh03\"/>\\u000a          <ttc code=\"mdeltah\" delta=\"8\" point=\"ah01\" ppm1=\"15\" ppm2=\"16\"/>\\u000a          <ttc code=\"singleh\" point1=\"ah01\" point2=\"sh04\" stem=\"X: 199\"/>\\u000a          <ttc code=\"interpolateh\" point=\"ih01\" point1=\"sh01\" point2=\"sh04\"/>\\u000a          <ttc code=\"singleh\" point1=\"sh04\" point2=\"rsb\" round=\"true\"/>\\u000a          <ttc align=\"round\" code=\"alignv\" point=\"sh03\"/>\\u000a          <ttc align=\"round\" code=\"alignv\" point=\"av01\"/>\\u000a          <ttc code=\"alignb\" point=\"sh02\" zone=\"b: 0\"/>\\u000a          <ttc code=\"alignb\" point=\"sh04\" zone=\"b: 0\"/>\\u000a          <ttc code=\"mdeltav\" delta=\"-5\" point=\"sh03\" ppm1=\"42\" ppm2=\"42\"/>\\u000a          <ttc code=\"interpolatev\" point=\"ih01\" point1=\"sh02\" point2=\"sh03\"/>\\u000a          <ttc code=\"singlev\" point1=\"av01\" point2=\"sv01\" stem=\"Y: 162\"/>\\u000a        </ttProgram>\\u000a      </data>
p15
g4
tp16
Rp17
Ntp18
s."
EndChar
StartChar: otilde
Encoding: 359 245 359
GlifName: otilde
Width: 1300
VWidth: 0
Flags: W
LayerCount: 2
Fore
SplineSet
649 -17 m 257,0,1
NamedP: "ab01"
 538 -17 538 -17 445.5 26.5 c 128,-1,2
 353 70 353 70 286 146.5 c 128,-1,3
 219 223 219 223 181.5 327 c 128,-1,4
 144 431 144 431 144 553 c 257,5,6
NamedP: "sh01"
 144 674 144 674 180 777.5 c 128,-1,7
 216 881 216 881 282 956.5 c 128,-1,8
 348 1032 348 1032 441.5 1074.5 c 128,-1,9
 535 1117 535 1117 649 1117 c 257,10,11
NamedP: "av01"
 760 1117 760 1117 851 1074.5 c 128,-1,12
 942 1032 942 1032 1007.5 956.5 c 128,-1,13
 1073 881 1073 881 1109 777.5 c 128,-1,14
 1145 674 1145 674 1145 553 c 257,15,16
NamedP: "sh02"
 1145 431 1145 431 1110.5 327 c 128,-1,17
 1076 223 1076 223 1011.5 146.5 c 128,-1,18
 947 70 947 70 855 26.5 c 128,-1,19
 763 -17 763 -17 649 -17 c 257,0,1
NamedP: "ab01"
955 526 m 257,20,21
NamedP: "ah01"
 955 607 955 607 938 685 c 128,-1,22
 921 763 921 763 884 824.5 c 128,-1,23
 847 886 847 886 788 924 c 128,-1,24
 729 962 729 962 645 962 c 257,25,26
NamedP: "sv01"
 565 962 565 962 506 929 c 128,-1,27
 447 896 447 896 409 841 c 128,-1,28
 371 786 371 786 352.5 716 c 128,-1,29
 334 646 334 646 334 572 c 257,30,31
NamedP: "sh03"
 334 491 334 491 352.5 413 c 128,-1,32
 371 335 371 335 409.5 274 c 128,-1,33
 448 213 448 213 508.5 175.5 c 128,-1,34
 569 138 569 138 653 138 c 257,35,36
NamedP: "sv02"
 732 138 732 138 789.5 171 c 128,-1,37
 847 204 847 204 883.5 258.5 c 128,-1,38
 920 313 920 313 937.5 382.5 c 128,-1,39
 955 452 955 452 955 526 c 257,20,21
NamedP: "ah01"
337 1275 m 257,40,41
 341 1315 341 1315 356.5 1353 c 128,-1,42
 372 1391 372 1391 396.5 1420 c 128,-1,43
 421 1449 421 1449 452 1466.5 c 128,-1,44
 483 1484 483 1484 519 1484 c 257,45,46
 558 1484 558 1484 592 1470 c 128,-1,47
 626 1456 626 1456 657 1439 c 128,-1,48
 688 1422 688 1422 718 1408 c 128,-1,49
 748 1394 748 1394 779 1394 c 257,50,51
 800 1394 800 1394 816 1404.5 c 128,-1,52
 832 1415 832 1415 843 1430.5 c 128,-1,53
 854 1446 854 1446 861 1465 c 128,-1,54
 868 1484 868 1484 871 1502 c 257,55,-1
 967 1498 l 257,56,57
 964 1454 964 1454 947.5 1413 c 128,-1,58
 931 1372 931 1372 905.5 1340.5 c 128,-1,59
 880 1309 880 1309 845.5 1290 c 128,-1,60
 811 1271 811 1271 772 1271 c 257,61,62
 740 1271 740 1271 709 1285 c 128,-1,63
 678 1299 678 1299 646 1315.5 c 128,-1,64
 614 1332 614 1332 581 1346 c 128,-1,65
 548 1360 548 1360 513 1360 c 257,66,67
 495 1360 495 1360 480.5 1352 c 128,-1,68
 466 1344 466 1344 454.5 1331 c 128,-1,69
 443 1318 443 1318 435 1302.5 c 128,-1,70
 427 1287 427 1287 423 1272 c 257,71,-1
 337 1275 l 257,40,41
EndSplineSet
PickledDataWithLists: "(dp0
Vcom.adobe.type.autohint
p1
(c_codecs
encode
p2
(Vdata
p3
Vlatin1
p4
tp5
Rp6
g2
(V<data>\\u000a        <hintSetList>\\u000a          <hintset pointTag=\"ab01\">\\u000a            <hstem pos=\"-17\" width=\"155\"/>\\u000a            <hstem pos=\"962\" width=\"155\"/>\\u000a            <vstem pos=\"100\" width=\"190\"/>\\u000a            <vstem pos=\"910\" width=\"190\"/>\\u000a          </hintset>\\u000a        </hintSetList>\\u000a      </data>
p7
g4
tp8
Rp9
Ntp10
sVcom.fontlab.ttprogram
p11
(g2
(Vdata
p12
g4
tp13
Rp14
g2
(V<data>\\u000a        <ttProgram>\\u000a          <ttc align=\"round\" code=\"alignh\" point=\"lsb\"/>\\u000a          <ttc align=\"round\" code=\"alignh\" point=\"ah01\"/>\\u000a          <ttc align=\"round\" code=\"singleh\" point1=\"lsb\" point2=\"sh01\"/>\\u000a          <ttc code=\"singleh\" point1=\"ah01\" point2=\"sh02\" stem=\"X: 199\"/>\\u000a          <ttc code=\"singleh\" point1=\"sh01\" point2=\"sh03\" stem=\"X: 199\"/>\\u000a          <ttc code=\"singleh\" point1=\"sh02\" point2=\"rsb\" round=\"true\"/>\\u000a          <ttc align=\"round\" code=\"alignv\" point=\"av01\"/>\\u000a          <ttc code=\"alignb\" point=\"ab01\" zone=\"b: 0\"/>\\u000a          <ttc code=\"singlev\" point1=\"av01\" point2=\"sv01\" stem=\"Y: 153\"/>\\u000a          <ttc code=\"singlev\" point1=\"ab01\" point2=\"sv02\" stem=\"Y: 153\"/>\\u000a        </ttProgram>\\u000a      </data>
p15
g4
tp16
Rp17
Ntp18
s."
EndChar
StartChar: divide
Encoding: 211 247 211
GlifName: divide
Width: 1300
VWidth: 0
Flags: W
LayerCount: 2
Fore
SplineSet
541 307 m 257,0,1
 541 329 541 329 549.5 348.5 c 128,-1,2
 558 368 558 368 573 383 c 128,-1,3
 588 398 588 398 607.5 406.5 c 128,-1,4
 627 415 627 415 649 415 c 257,5,6
 671 415 671 415 690.5 406.5 c 128,-1,7
 710 398 710 398 725 383 c 128,-1,8
 740 368 740 368 748.5 348.5 c 128,-1,9
 757 329 757 329 757 307 c 257,10,11
 757 285 757 285 748.5 265 c 128,-1,12
 740 245 740 245 725.5 230 c 128,-1,13
 711 215 711 215 691.5 206 c 128,-1,14
 672 197 672 197 650 197 c 257,15,16
 627 197 627 197 607.5 206 c 128,-1,17
 588 215 588 215 573 230 c 128,-1,18
 558 245 558 245 549.5 265 c 128,-1,19
 541 285 541 285 541 307 c 257,0,1
541 920 m 257,20,21
 541 942 541 942 549.5 961.5 c 128,-1,22
 558 981 558 981 573 996 c 128,-1,23
 588 1011 588 1011 607.5 1019.5 c 128,-1,24
 627 1028 627 1028 649 1028 c 257,25,26
 671 1028 671 1028 690.5 1019.5 c 128,-1,27
 710 1011 710 1011 725 996 c 128,-1,28
 740 981 740 981 748.5 961.5 c 128,-1,29
 757 942 757 942 757 920 c 257,30,31
 757 898 757 898 748.5 878 c 128,-1,32
 740 858 740 858 725.5 843 c 128,-1,33
 711 828 711 828 691.5 819 c 128,-1,34
 672 810 672 810 650 810 c 257,35,36
 627 810 627 810 607.5 819 c 128,-1,37
 588 828 588 828 573 843 c 128,-1,38
 558 858 558 858 549.5 878 c 128,-1,39
 541 898 541 898 541 920 c 257,20,21
200 700 m 257,40,-1
 1100 700 l 257,41,-1
 1100 545 l 257,42,-1
 200 545 l 257,43,-1
 200 700 l 257,40,-1
EndSplineSet
PickledDataWithLists: "(dp0
Vcom.adobe.type.autohint
p1
(c_codecs
encode
p2
(Vdata
p3
Vlatin1
p4
tp5
Rp6
g2
(V<data>\\u000a        <hintSetList/>\\u000a      </data>
p7
g4
tp8
Rp9
Ntp10
s."
EndChar
StartChar: oslash
Encoding: 358 248 358
GlifName: oslash
Width: 1300
VWidth: 0
Flags: W
LayerCount: 2
Fore
SplineSet
351 -100 m 257,0,-1
NamedP: "hr00"
 161 -100 l 257,1,-1
 861 1209 l 257,2,-1
 1041 1209 l 257,3,-1
 351 -100 l 257,0,-1
NamedP: "hr00"
604 -17 m 257,4,5
 493 -17 493 -17 400.5 26.5 c 128,-1,6
 308 70 308 70 241 146.5 c 128,-1,7
 174 223 174 223 136.5 327 c 128,-1,8
 99 431 99 431 99 553 c 257,9,10
 99 674 99 674 135 777.5 c 128,-1,11
 171 881 171 881 237 956.5 c 128,-1,12
 303 1032 303 1032 396.5 1074.5 c 128,-1,13
 490 1117 490 1117 604 1117 c 257,14,15
 715 1117 715 1117 806 1074.5 c 128,-1,16
 897 1032 897 1032 962.5 956.5 c 128,-1,17
 1028 881 1028 881 1064 777.5 c 128,-1,18
 1100 674 1100 674 1100 553 c 257,19,20
 1100 431 1100 431 1065.5 327 c 128,-1,21
 1031 223 1031 223 966.5 146.5 c 128,-1,22
 902 70 902 70 810 26.5 c 128,-1,23
 718 -17 718 -17 604 -17 c 257,4,5
910 526 m 257,24,25
 910 607 910 607 893 685 c 128,-1,26
 876 763 876 763 839 824.5 c 128,-1,27
 802 886 802 886 743 924 c 128,-1,28
 684 962 684 962 600 962 c 257,29,30
 520 962 520 962 461 929 c 128,-1,31
 402 896 402 896 364 841 c 128,-1,32
 326 786 326 786 307.5 716 c 128,-1,33
 289 646 289 646 289 572 c 257,34,35
 289 491 289 491 307.5 413 c 128,-1,36
 326 335 326 335 364.5 274 c 128,-1,37
 403 213 403 213 463.5 175.5 c 128,-1,38
 524 138 524 138 608 138 c 257,39,40
 687 138 687 138 744.5 171 c 128,-1,41
 802 204 802 204 838.5 258.5 c 128,-1,42
 875 313 875 313 892.5 382.5 c 128,-1,43
 910 452 910 452 910 526 c 257,24,25
EndSplineSet
PickledDataWithLists: "(dp0
Vcom.adobe.type.autohint
p1
(c_codecs
encode
p2
(Vdata
p3
Vlatin1
p4
tp5
Rp6
g2
(V<data>\\u000a        <hintSetList>\\u000a          <hintset pointTag=\"hr00\">\\u000a            <hstem pos=\"-17\" width=\"155\"/>\\u000a            <hstem pos=\"962\" width=\"155\"/>\\u000a            <vstem pos=\"55\" width=\"190\"/>\\u000a            <vstem pos=\"865\" width=\"190\"/>\\u000a          </hintset>\\u000a        </hintSetList>\\u000a      </data>
p7
g4
tp8
Rp9
Ntp10
s."
EndChar
StartChar: ydieresis
Encoding: 582 255 582
GlifName: ydieresis
Width: 1300
VWidth: 0
Flags: W
LayerCount: 2
Fore
SplineSet
721 364 m 257,0,-1
NamedP: "dh02"
 990 1100 l 257,1,-1
NamedP: "sh01"
 1170 1120 l 257,2,-1
NamedP: "sh02"
 766 -17 l 257,3,4
NamedP: "ih01"
 736 -101 736 -101 701.5 -184 c 128,-1,5
 667 -267 667 -267 623.5 -333 c 128,-1,6
 580 -399 580 -399 525.5 -439.5 c 128,-1,7
 471 -480 471 -480 401 -480 c 257,8,9
NamedP: "av02"
 345 -480 345 -480 298 -458 c 128,-1,10
 251 -436 251 -436 209 -400 c 257,11,-1
NamedP: "ah01"
 282 -283 l 257,12,13
NamedP: "sh03"
 288 -289 288 -289 297.5 -297 c 128,-1,14
 307 -305 307 -305 318.5 -312.5 c 128,-1,15
 330 -320 330 -320 343.5 -325 c 128,-1,16
 357 -330 357 -330 371 -330 c 257,17,18
NamedP: "av01"
 407 -330 407 -330 436.5 -304.5 c 128,-1,19
 466 -279 466 -279 491.5 -238 c 128,-1,20
 517 -197 517 -197 538.5 -147 c 128,-1,21
 560 -97 560 -97 580 -47 c 257,22,-1
NamedP: "ab01"
 173 1100 l 257,23,-1
NamedP: "sh05"
 363 1120 l 257,24,-1
NamedP: "sh04"
 627 364 l 257,25,-1
NamedP: "dh01"
 679 132 l 257,26,-1
NamedP: "ah02"
 721 364 l 257,0,-1
NamedP: "dh02"
379 1500 m 257,27,-1
 579 1500 l 257,28,-1
 579 1300 l 257,29,-1
 379 1300 l 257,30,-1
 379 1500 l 257,27,-1
779 1500 m 257,31,-1
 979 1500 l 257,32,-1
 979 1300 l 257,33,-1
 779 1300 l 257,34,-1
 779 1500 l 257,31,-1
EndSplineSet
PickledDataWithLists: "(dp0
Vcom.adobe.type.autohint
p1
(c_codecs
encode
p2
(Vdata
p3
Vlatin1
p4
tp5
Rp6
g2
(V<data>\\u000a        <hintSetList>\\u000a          <hintset pointTag=\"dh02\">\\u000a            <hstem pos=\"-480\" width=\"152\"/>\\u000a            <hstem pos=\"1117\" width=\"-20\"/>\\u000a          </hintset>\\u000a        </hintSetList>\\u000a      </data>
p7
g4
tp8
Rp9
Ntp10
sVcom.fontlab.ttprogram
p11
(g2
(Vdata
p12
g4
tp13
Rp14
g2
(V<data>\\u000a        <ttProgram>\\u000a          <ttc align=\"round\" code=\"alignh\" point=\"ah01\"/>\\u000a          <ttc align=\"round\" code=\"alignh\" point=\"lsb\"/>\\u000a          <ttc align=\"round\" code=\"alignh\" point=\"ah02\"/>\\u000a          <ttc code=\"doubleh\" point1=\"dh01\" point2=\"dh02\" stem=\"X: 176\"/>\\u000a          <ttc code=\"singleh\" point1=\"ah02\" point2=\"sh01\"/>\\u000a          <ttc code=\"singleh\" point1=\"sh01\" point2=\"sh02\" stem=\"X: dia Lite\"/>\\u000a          <ttc code=\"singleh\" point1=\"lsb\" point2=\"sh03\" stem=\"X: 208\"/>\\u000a          <ttc code=\"interpolateh\" point=\"ih01\" point1=\"sh03\" point2=\"sh02\"/>\\u000a          <ttc code=\"singleh\" point1=\"ah02\" point2=\"sh04\"/>\\u000a          <ttc code=\"singleh\" point1=\"sh04\" point2=\"sh05\" stem=\"X: dia Fat\"/>\\u000a          <ttc align=\"round\" code=\"alignv\" point=\"av01\"/>\\u000a          <ttc align=\"round\" code=\"alignv\" point=\"av02\"/>\\u000a          <ttc code=\"alignt\" point=\"sh04\" zone=\"t: x\"/>\\u000a          <ttc code=\"alignt\" point=\"sh02\" zone=\"t: x\"/>\\u000a          <ttc code=\"alignb\" point=\"ab01\" zone=\"b: 0\"/>\\u000a        </ttProgram>\\u000a      </data>
p15
g4
tp16
Rp17
Ntp18
s."
EndChar
StartChar: Scaron
Encoding: 67 352 67
GlifName: S_caron
Width: 1300
VWidth: 0
Flags: W
LayerCount: 2
Fore
SplineSet
195 94 m 257,0,-1
 286 244 l 257,1,2
 306 231 306 231 338.5 214.5 c 128,-1,3
 371 198 371 198 411 183 c 128,-1,4
 451 168 451 168 496 158 c 128,-1,5
 541 148 541 148 587 148 c 257,6,7
NamedP: "sv01"
 649 148 649 148 711.5 163.5 c 128,-1,8
 774 179 774 179 824.5 211.5 c 128,-1,9
 875 244 875 244 906.5 294 c 128,-1,10
 938 344 938 344 938 413 c 257,11,12
NamedP: "ah01"
 938 478 938 478 908 527 c 128,-1,13
 878 576 878 576 829 615 c 128,-1,14
 780 654 780 654 717 686 c 128,-1,15
NamedP: "iv01"
 654 718 654 718 588.5 750 c 128,-1,16
 523 782 523 782 460 816.5 c 128,-1,17
 397 851 397 851 348 895 c 128,-1,18
 299 939 299 939 269 995 c 128,-1,19
 239 1051 239 1051 239 1126 c 257,20,21
NamedP: "sh01"
 239 1223 239 1223 280 1296 c 128,-1,22
 321 1369 321 1369 387 1418 c 128,-1,23
 453 1467 453 1467 537 1492 c 128,-1,24
 621 1517 621 1517 707 1517 c 257,25,26
NamedP: "at01"
 920 1517 920 1517 1100 1397 c 257,27,-1
 1003 1274 l 257,28,29
 935 1314 935 1314 872.5 1333 c 128,-1,30
 810 1352 810 1352 733 1352 c 257,31,32
NamedP: "sv02"
 679 1352 679 1352 624.5 1341 c 128,-1,33
 570 1330 570 1330 526.5 1305.5 c 128,-1,34
 483 1281 483 1281 455.5 1241.5 c 128,-1,35
 428 1202 428 1202 428 1145 c 257,36,37
NamedP: "sh02"
 428 1089 428 1089 458.5 1048 c 128,-1,38
 489 1007 489 1007 538.5 974.5 c 128,-1,39
 588 942 588 942 651 913.5 c 128,-1,40
NamedP: "iv02"
 714 885 714 885 780.5 854.5 c 128,-1,41
 847 824 847 824 910 787.5 c 128,-1,42
 973 751 973 751 1022.5 701.5 c 128,-1,43
 1072 652 1072 652 1102.5 585.5 c 128,-1,44
 1133 519 1133 519 1133 429 c 257,45,46
NamedP: "sh03"
 1133 317 1133 317 1087.5 233.5 c 128,-1,47
 1042 150 1042 150 967.5 94.5 c 128,-1,48
 893 39 893 39 797 11 c 128,-1,49
 701 -17 701 -17 601 -17 c 257,50,51
NamedP: "ab01"
 537 -17 537 -17 482 -9.5 c 128,-1,52
 427 -2 427 -2 377.5 12 c 128,-1,53
 328 26 328 26 283 46.5 c 128,-1,54
 238 67 238 67 195 94 c 257,0,-1
796 1600 m 257,55,-1
 596 1620 l 257,56,-1
 420 1900 l 257,57,-1
NamedP: "at02"
 570 1900 l 257,58,-1
 681 1767 l 257,59,-1
 701 1690 l 257,60,-1
 721 1768 l 257,61,-1
 831 1900 l 257,62,-1
NamedP: "at03"
 981 1900 l 257,63,-1
 796 1600 l 257,55,-1
EndSplineSet
PickledDataWithLists: "(dp0
Vcom.adobe.type.autohint
p1
(c_codecs
encode
p2
(Vdata
p3
Vlatin1
p4
tp5
Rp6
g2
(V<data>\\u000a        <hintSetList/>\\u000a      </data>
p7
g4
tp8
Rp9
Ntp10
sVcom.fontlab.ttprogram
p11
(g2
(Vdata
p12
g4
tp13
Rp14
g2
(V<data>\\u000a        <ttProgram>\\u000a          <ttc align=\"round\" code=\"alignh\" point=\"lsb\"/>\\u000a          <ttc align=\"round\" code=\"alignh\" point=\"ah01\"/>\\u000a          <ttc code=\"singleh\" point1=\"lsb\" point2=\"sh01\"/>\\u000a          <ttc code=\"singleh\" point1=\"sh01\" point2=\"sh02\" stem=\"X: 208\"/>\\u000a          <ttc code=\"singleh\" point1=\"ah01\" point2=\"sh03\" stem=\"X: 208\"/>\\u000a          <ttc code=\"singleh\" point1=\"sh03\" point2=\"rsb\" round=\"true\"/>\\u000a          <ttc code=\"alignt\" point=\"at01\" zone=\"t: 1\"/>\\u000a          <ttc code=\"alignb\" point=\"ab01\" zone=\"b: 0\"/>\\u000a          <ttc code=\"singlev\" point1=\"ab01\" point2=\"sv01\" stem=\"Y: 162\"/>\\u000a          <ttc code=\"singlev\" point1=\"at01\" point2=\"sv02\" stem=\"Y: 162\"/>\\u000a          <ttc code=\"interpolatev\" point=\"iv01\" point1=\"sv02\" point2=\"sv01\"/>\\u000a          <ttc code=\"interpolatev\" point=\"iv02\" point1=\"sv01\" point2=\"sv02\"/>\\u000a          <ttc code=\"alignt\" point=\"at02\" zone=\"t: 1\"/>\\u000a          <ttc code=\"alignt\" point=\"at03\" zone=\"t: 1\"/>\\u000a        </ttProgram>\\u000a      </data>
p15
g4
tp16
Rp17
Ntp18
s."
EndChar
StartChar: florin
Encoding: 258 402 258
GlifName: florin
Width: 1300
VWidth: 0
Flags: W
LayerCount: 2
Fore
SplineSet
1065 828 m 257,0,-1
 1025 674 l 257,1,-1
 855 674 l 257,2,-1
 813 730 l 257,3,-1
 665 -21 l 257,4,5
 651 -75 651 -75 638.5 -126.5 c 128,-1,6
 626 -178 626 -178 610.5 -223.5 c 128,-1,7
 595 -269 595 -269 574 -307 c 128,-1,8
 553 -345 553 -345 521 -372.5 c 128,-1,9
 489 -400 489 -400 444 -415.5 c 128,-1,10
 399 -431 399 -431 335 -431 c 257,11,12
 300 -431 300 -431 272.5 -426.5 c 128,-1,13
 245 -422 245 -422 220.5 -413.5 c 128,-1,14
 196 -405 196 -405 173.5 -393 c 128,-1,15
 151 -381 151 -381 127 -365 c 257,16,-1
 174 -235 l 257,17,18
 184 -243 184 -243 197.5 -251 c 128,-1,19
 211 -259 211 -259 226 -265 c 128,-1,20
 241 -271 241 -271 256 -274.5 c 128,-1,21
 271 -278 271 -278 283 -278 c 257,22,23
 333 -278 333 -278 363.5 -253.5 c 128,-1,24
 394 -229 394 -229 413 -191.5 c 128,-1,25
 432 -154 432 -154 443 -108.5 c 128,-1,26
 454 -63 454 -63 465 -21 c 257,27,-1
 608 674 l 257,28,-1
 367 674 l 257,29,-1
NamedP: "mh01"
 407 828 l 257,30,-1
NamedP: "mv01"
 576 828 l 257,31,-1
NamedP: "mv02"
 623 771 l 257,32,-1
 703 1200 l 257,33,34
 719 1285 719 1285 747 1345.5 c 128,-1,35
 775 1406 775 1406 812 1444 c 128,-1,36
 849 1482 849 1482 891.5 1499.5 c 128,-1,37
 934 1517 934 1517 978 1517 c 257,38,39
 1003 1517 1003 1517 1035 1515 c 128,-1,40
 1067 1513 1067 1513 1100.5 1506.5 c 128,-1,41
 1134 1500 1134 1500 1166.5 1487.5 c 128,-1,42
 1199 1475 1199 1475 1225 1453 c 257,43,-1
 1200 1310 l 257,44,45
 1155 1339 1155 1339 1122 1351.5 c 128,-1,46
 1089 1364 1089 1364 1060 1364 c 257,47,48
 1001 1364 1001 1364 962 1335.5 c 128,-1,49
 923 1307 923 1307 911 1246 c 257,50,-1
 829 828 l 257,51,-1
 1065 828 l 257,0,-1
EndSplineSet
PickledDataWithLists: "(dp0
Vcom.fontlab.ttprogram
p1
(c_codecs
encode
p2
(Vdata
p3
Vlatin1
p4
tp5
Rp6
g2
(V<data>\\u000a        <ttProgram>\\u000a          <ttc code=\"mdeltah\" delta=\"4\" point=\"mh01\" ppm1=\"24\" ppm2=\"24\"/>\\u000a          <ttc code=\"mdeltah\" delta=\"4\" point=\"mh01\" ppm1=\"30\" ppm2=\"30\"/>\\u000a          <ttc code=\"mdeltah\" delta=\"2\" point=\"mh01\" ppm1=\"19\" ppm2=\"19\"/>\\u000a          <ttc code=\"mdeltah\" delta=\"2\" point=\"mh01\" ppm1=\"35\" ppm2=\"35\"/>\\u000a          <ttc code=\"mdeltav\" delta=\"3\" point=\"mh01\" ppm1=\"29\" ppm2=\"29\"/>\\u000a          <ttc code=\"mdeltav\" delta=\"2\" point=\"mh01\" ppm1=\"30\" ppm2=\"30\"/>\\u000a          <ttc code=\"mdeltav\" delta=\"1\" point=\"mh01\" ppm1=\"13\" ppm2=\"13\"/>\\u000a          <ttc code=\"mdeltav\" delta=\"-3\" point=\"mv01\" ppm1=\"29\" ppm2=\"29\"/>\\u000a          <ttc code=\"mdeltav\" delta=\"-4\" point=\"mv01\" ppm1=\"30\" ppm2=\"30\"/>\\u000a          <ttc code=\"mdeltav\" delta=\"-3\" point=\"mv02\" ppm1=\"13\" ppm2=\"13\"/>\\u000a        </ttProgram>\\u000a      </data>
p7
g4
tp8
Rp9
Ntp10
s."
EndChar
StartChar: caron
Encoding: 166 711 166
GlifName: caron
Width: 1300
VWidth: 0
Flags: W
LayerCount: 2
Fore
SplineSet
695 1220 m 257,0,-1
NamedP: "hr00"
 495 1240 l 257,1,-1
 319 1520 l 257,2,-1
NamedP: "at01"
 469 1520 l 257,3,-1
 580 1387 l 257,4,-1
 600 1310 l 257,5,-1
 620 1388 l 257,6,-1
 730 1520 l 257,7,-1
NamedP: "at02"
 880 1520 l 257,8,-1
 695 1220 l 257,0,-1
NamedP: "hr00"
EndSplineSet
PickledDataWithLists: "(dp0
Vcom.adobe.type.autohint
p1
(c_codecs
encode
p2
(Vdata
p3
Vlatin1
p4
tp5
Rp6
g2
(V<data>\\u000a        <hintSetList>\\u000a          <hintset pointTag=\"hr00\">\\u000a            <hstem pos=\"1220\" width=\"20\"/>\\u000a            <hstem pos=\"1499\" width=\"21\"/>\\u000a          </hintset>\\u000a        </hintSetList>\\u000a      </data>
p7
g4
tp8
Rp9
Ntp10
sVcom.fontlab.ttprogram
p11
(g2
(Vdata
p12
g4
tp13
Rp14
g2
(V<data>\\u000a        <ttProgram>\\u000a          <ttc code=\"alignt\" point=\"at01\" zone=\"t: 1\"/>\\u000a          <ttc code=\"alignt\" point=\"at02\" zone=\"t: 1\"/>\\u000a        </ttProgram>\\u000a      </data>
p15
g4
tp16
Rp17
Ntp18
s."
EndChar
StartChar: ring
Encoding: 419 730 419
GlifName: ring
Width: 1300
VWidth: 0
Flags: W
LayerCount: 2
Fore
SplineSet
600 1634 m 257,0,1
NamedP: "av01"
 649 1634 649 1634 692 1615.5 c 128,-1,2
 735 1597 735 1597 767.5 1564.5 c 128,-1,3
 800 1532 800 1532 818.5 1489 c 128,-1,4
 837 1446 837 1446 837 1397 c 257,5,6
NamedP: "ah02"
 837 1348 837 1348 818.5 1304 c 128,-1,7
 800 1260 800 1260 768.5 1227 c 128,-1,8
 737 1194 737 1194 694 1175 c 128,-1,9
 651 1156 651 1156 602 1156 c 257,10,11
NamedP: "av02"
 553 1156 553 1156 509.5 1175 c 128,-1,12
 466 1194 466 1194 433 1227 c 128,-1,13
 400 1260 400 1260 381 1304 c 128,-1,14
 362 1348 362 1348 362 1397 c 257,15,16
NamedP: "ah01"
 362 1446 362 1446 381 1489 c 128,-1,17
 400 1532 400 1532 432 1564.5 c 128,-1,18
 464 1597 464 1597 507.5 1615.5 c 128,-1,19
 551 1634 551 1634 600 1634 c 257,0,1
NamedP: "av01"
601 1273 m 257,20,21
NamedP: "sv01"
 626 1273 626 1273 648 1283 c 128,-1,22
 670 1293 670 1293 686 1309.5 c 128,-1,23
 702 1326 702 1326 711.5 1348.5 c 128,-1,24
 721 1371 721 1371 721 1396 c 257,25,26
NamedP: "sh01"
 721 1421 721 1421 711.5 1443 c 128,-1,27
 702 1465 702 1465 685.5 1481.5 c 128,-1,28
 669 1498 669 1498 647 1507.5 c 128,-1,29
 625 1517 625 1517 600 1517 c 257,30,31
NamedP: "sv02"
 575 1517 575 1517 553 1507.5 c 128,-1,32
 531 1498 531 1498 514.5 1481.5 c 128,-1,33
 498 1465 498 1465 488.5 1443 c 128,-1,34
 479 1421 479 1421 479 1396 c 257,35,36
NamedP: "sh02"
 479 1371 479 1371 488.5 1348.5 c 128,-1,37
 498 1326 498 1326 514.5 1309.5 c 128,-1,38
 531 1293 531 1293 553.5 1283 c 128,-1,39
 576 1273 576 1273 601 1273 c 257,20,21
NamedP: "sv01"
EndSplineSet
PickledDataWithLists: "(dp0
Vcom.fontlab.ttprogram
p1
(c_codecs
encode
p2
(Vdata
p3
Vlatin1
p4
tp5
Rp6
g2
(V<data>\\u000a        <ttProgram>\\u000a          <ttc align=\"round\" code=\"alignh\" point=\"ah01\"/>\\u000a          <ttc align=\"round\" code=\"alignh\" point=\"ah02\"/>\\u000a          <ttc code=\"singleh\" point1=\"ah02\" point2=\"sh01\" round=\"true\"/>\\u000a          <ttc code=\"singleh\" point1=\"ah01\" point2=\"sh02\" round=\"true\"/>\\u000a          <ttc align=\"round\" code=\"alignv\" point=\"av01\"/>\\u000a          <ttc align=\"round\" code=\"alignv\" point=\"av02\"/>\\u000a          <ttc code=\"singlev\" point1=\"av02\" point2=\"sv01\" round=\"true\"/>\\u000a          <ttc code=\"singlev\" point1=\"av01\" point2=\"sv02\" round=\"true\"/>\\u000a        </ttProgram>\\u000a      </data>
p7
g4
tp8
Rp9
Ntp10
s."
EndChar
StartChar: tilde
Encoding: 527 732 527
GlifName: tilde
Width: 1300
VWidth: 0
Flags: W
LayerCount: 2
Fore
SplineSet
387 1335 m 257,0,1
 391 1375 391 1375 406.5 1413 c 128,-1,2
 422 1451 422 1451 446.5 1480 c 128,-1,3
 471 1509 471 1509 502 1526.5 c 128,-1,4
 533 1544 533 1544 569 1544 c 257,5,6
 608 1544 608 1544 642 1530 c 128,-1,7
 676 1516 676 1516 707 1499 c 128,-1,8
 738 1482 738 1482 768 1468 c 128,-1,9
 798 1454 798 1454 829 1454 c 257,10,11
 850 1454 850 1454 866 1464.5 c 128,-1,12
 882 1475 882 1475 893 1490.5 c 128,-1,13
 904 1506 904 1506 911 1525 c 128,-1,14
 918 1544 918 1544 921 1562 c 257,15,-1
 1017 1558 l 257,16,17
 1014 1514 1014 1514 997.5 1473 c 128,-1,18
 981 1432 981 1432 955.5 1400.5 c 128,-1,19
 930 1369 930 1369 895.5 1350 c 128,-1,20
 861 1331 861 1331 822 1331 c 257,21,22
 790 1331 790 1331 759 1345 c 128,-1,23
 728 1359 728 1359 696 1375.5 c 128,-1,24
 664 1392 664 1392 631 1406 c 128,-1,25
 598 1420 598 1420 563 1420 c 257,26,27
 545 1420 545 1420 530.5 1412 c 128,-1,28
 516 1404 516 1404 504.5 1391 c 128,-1,29
 493 1378 493 1378 485 1362.5 c 128,-1,30
 477 1347 477 1347 473 1332 c 257,31,-1
 387 1335 l 257,0,1
EndSplineSet
EndChar
StartChar: Gamma
Encoding: 28 915 28
GlifName: G_amma
Width: 1300
VWidth: 0
Flags: W
LayerCount: 2
Fore
SplineSet
400 1150 m 257,0,-1
NamedP: "hr00"
 400 0 l 257,1,-1
NamedP: "dh02"
 200 0 l 257,2,-1
NamedP: "dh01"
 200 1300 l 257,3,-1
 183 1500 l 257,4,-1
NamedP: "at01"
 1020 1500 l 257,5,-1
 1020 1350 l 257,6,-1
NamedP: "sv01"
 385 1350 l 257,7,-1
 400 1150 l 257,0,-1
NamedP: "hr00"
EndSplineSet
PickledDataWithLists: "(dp0
Vcom.adobe.type.autohint
p1
(c_codecs
encode
p2
(Vdata
p3
Vlatin1
p4
tp5
Rp6
g2
(V<data>\\u000a        <hintSetList>\\u000a          <hintset pointTag=\"hr00\">\\u000a            <hstem pos=\"21\" width=\"-21\"/>\\u000a            <hstem pos=\"1350\" width=\"150\"/>\\u000a            <vstem pos=\"200\" width=\"200\"/>\\u000a          </hintset>\\u000a        </hintSetList>\\u000a      </data>
p7
g4
tp8
Rp9
Ntp10
sVcom.fontlab.ttprogram
p11
(g2
(Vdata
p12
g4
tp13
Rp14
g2
(V<data>\\u000a        <ttProgram>\\u000a          <ttc code=\"doubleh\" point1=\"dh01\" point2=\"dh02\" stem=\"X: 208\"/>\\u000a          <ttc code=\"alignt\" point=\"at01\" zone=\"t: 1\"/>\\u000a          <ttc code=\"alignb\" point=\"dh02\" zone=\"b: 0\"/>\\u000a          <ttc code=\"singlev\" point1=\"at01\" point2=\"sv01\" stem=\"Y: 153\"/>\\u000a        </ttProgram>\\u000a      </data>
p15
g4
tp16
Rp17
Ntp18
s."
EndChar
StartChar: Deltagreek
Encoding: 16 916 16
GlifName: D_eltagreek
Width: 1300
VWidth: 0
Flags: W
LayerCount: 2
Fore
SplineSet
49 0 m 257,0,-1
NamedP: "hr00"
 1221 0 l 257,1,-1
 738 1520 l 257,2,-1
 521 1500 l 257,3,-1
 49 0 l 257,0,-1
NamedP: "hr00"
336 160 m 257,4,-1
 213 108 l 257,5,-1
 295 200 l 257,6,-1
 606 1258 l 257,7,-1
 636 1425 l 257,8,-1
 666 1258 l 257,9,-1
 977 200 l 257,10,-1
 1062 108 l 257,11,-1
 936 160 l 257,12,-1
 336 160 l 257,4,-1
EndSplineSet
PickledDataWithLists: "(dp0
Vcom.adobe.type.autohint
p1
(c_codecs
encode
p2
(Vdata
p3
Vlatin1
p4
tp5
Rp6
g2
(V<data>\\u000a        <hintSetList>\\u000a          <hintset pointTag=\"hr00\">\\u000a            <hstem pos=\"21\" width=\"-21\"/>\\u000a            <hstem pos=\"1523\" width=\"-20\"/>\\u000a          </hintset>\\u000a        </hintSetList>\\u000a      </data>
p7
g4
tp8
Rp9
Ntp10
s."
EndChar
StartChar: Epsilon
Encoding: 22 917 22
GlifName: E_psilon
Width: 1300
VWidth: 0
Flags: W
LayerCount: 2
Fore
SplineSet
1135 160 m 257,0,-1
NamedP: "dh04"
 1115 0 l 257,1,-1
NamedP: "ab01"
 195 0 l 257,2,-1
NamedP: "ab02"
 210 200 l 257,3,-1
NamedP: "dh01"
 210 1290 l 257,4,-1
 180 1500 l 257,5,-1
NamedP: "at01"
 1100 1500 l 257,6,-1
NamedP: "at02"
 1100 1340 l 257,7,-1
 375 1340 l 257,8,-1
NamedP: "sv01"
 395 1150 l 257,9,-1
NamedP: "sh01"
 395 885 l 257,10,-1
 1030 885 l 257,11,-1
NamedP: "dv01"
 1030 740 l 257,12,-1
NamedP: "dh03"
 395 740 l 257,13,-1
 395 340 l 257,14,-1
NamedP: "dh02"
 385 160 l 257,15,-1
 1135 160 l 257,0,-1
NamedP: "dh04"
EndSplineSet
PickledDataWithLists: "(dp0
Vcom.adobe.type.autohint
p1
(c_codecs
encode
p2
(Vdata
p3
Vlatin1
p4
tp5
Rp6
g2
(V<data>\\u000a        <hintSetList>\\u000a          <hintset pointTag=\"dh04\">\\u000a            <hstem pos=\"0\" width=\"160\"/>\\u000a            <hstem pos=\"740\" width=\"145\"/>\\u000a            <hstem pos=\"1340\" width=\"160\"/>\\u000a            <vstem pos=\"190\" width=\"210\"/>\\u000a          </hintset>\\u000a        </hintSetList>\\u000a      </data>
p7
g4
tp8
Rp9
Ntp10
sVcom.fontlab.ttprogram
p11
(g2
(Vdata
p12
g4
tp13
Rp14
g2
(V<data>\\u000a        <ttProgram>\\u000a          <ttc code=\"doubleh\" point1=\"dh01\" point2=\"dh02\" stem=\"X: 208\"/>\\u000a          <ttc code=\"doubleh\" point1=\"dh03\" point2=\"dh04\" stem=\"X: ecart du B\"/>\\u000a          <ttc code=\"singleh\" point1=\"dh02\" point2=\"sh01\"/>\\u000a          <ttc code=\"alignt\" point=\"at01\" zone=\"t: 1\"/>\\u000a          <ttc code=\"alignt\" point=\"at02\" zone=\"t: 1\"/>\\u000a          <ttc code=\"alignb\" point=\"ab01\" zone=\"b: 0\"/>\\u000a          <ttc code=\"alignb\" point=\"ab02\" zone=\"b: 0\"/>\\u000a          <ttc code=\"doublev\" point1=\"dh03\" point2=\"dv01\" stem=\"Y: 144\"/>\\u000a          <ttc code=\"singlev\" point1=\"ab02\" point2=\"dh04\" stem=\"Y: 162\"/>\\u000a          <ttc code=\"singlev\" point1=\"at02\" point2=\"sv01\" stem=\"Y: 162\"/>\\u000a        </ttProgram>\\u000a      </data>
p15
g4
tp16
Rp17
Ntp18
s."
EndChar
StartChar: Zeta
Encoding: 88 918 88
GlifName: Z_eta
Width: 1300
VWidth: 0
Flags: W
LayerCount: 2
Fore
SplineSet
1061 160 m 257,0,-1
NamedP: "sv01"
 1081 0 l 257,1,-1
NamedP: "ab01"
 141 0 l 257,2,-1
 121 50 l 257,3,-1
 686 1200 l 257,4,-1
 870 1380 l 257,5,-1
NamedP: "iv01"
 605 1340 l 257,6,-1
NamedP: "sv02"
 210 1340 l 257,7,-1
NamedP: "iv02"
 190 1500 l 257,8,-1
NamedP: "at01"
 1016 1500 l 257,9,-1
 1031 1478 l 257,10,-1
 460 300 l 257,11,-1
 282 120 l 257,12,-1
NamedP: "iv03"
 547 160 l 257,13,-1
 1061 160 l 257,0,-1
NamedP: "sv01"
EndSplineSet
PickledDataWithLists: "(dp0
Vcom.adobe.type.autohint
p1
(c_codecs
encode
p2
(Vdata
p3
Vlatin1
p4
tp5
Rp6
g2
(V<data>\\u000a        <hintSetList>\\u000a          <hintset pointTag=\"sv01\">\\u000a            <hstem pos=\"0\" width=\"160\"/>\\u000a            <hstem pos=\"1340\" width=\"160\"/>\\u000a          </hintset>\\u000a        </hintSetList>\\u000a      </data>
p7
g4
tp8
Rp9
Ntp10
sVcom.fontlab.ttprogram
p11
(g2
(Vdata
p12
g4
tp13
Rp14
g2
(V<data>\\u000a        <ttProgram>\\u000a          <ttc code=\"alignt\" point=\"at01\" zone=\"t: 1\"/>\\u000a          <ttc code=\"alignb\" point=\"ab01\" zone=\"b: 0\"/>\\u000a          <ttc code=\"singlev\" point1=\"ab01\" point2=\"sv01\" stem=\"Y: 162\"/>\\u000a          <ttc code=\"interpolatev\" point=\"iv01\" point1=\"at01\" point2=\"iv02\"/>\\u000a          <ttc code=\"singlev\" point1=\"at01\" point2=\"sv02\" stem=\"Y: 162\"/>\\u000a          <ttc code=\"interpolatev\" point=\"iv03\" point1=\"ab01\" point2=\"sv01\"/>\\u000a        </ttProgram>\\u000a      </data>
p15
g4
tp16
Rp17
Ntp18
s."
EndChar
StartChar: Eta
Encoding: 23 919 23
GlifName: E_ta
Width: 1300
VWidth: 0
Flags: W
LayerCount: 2
Fore
SplineSet
875 0 m 257,0,-1
NamedP: "ah01"
 875 725 l 257,1,-1
NamedP: "dv01"
 307 725 l 257,2,-1
 307 0 l 257,3,-1
NamedP: "sh02"
 117 0 l 257,4,-1
NamedP: "sh01"
 117 1290 l 257,5,-1
 88 1500 l 257,6,-1
 307 1520 l 257,7,-1
NamedP: "sh03"
 307 885 l 257,8,-1
 875 885 l 257,9,-1
NamedP: "sh04"
 875 1500 l 257,10,-1
 1065 1520 l 257,11,-1
NamedP: "at01"
 1065 0 l 257,12,-1
NamedP: "sh05"
 875 0 l 257,0,-1
NamedP: "ah01"
EndSplineSet
PickledDataWithLists: "(dp0
Vcom.adobe.type.autohint
p1
(c_codecs
encode
p2
(Vdata
p3
Vlatin1
p4
tp5
Rp6
g2
(V<data>\\u000a        <hintSetList>\\u000a          <hintset pointTag=\"ah01\">\\u000a            <hstem pos=\"21\" width=\"-21\"/>\\u000a            <hstem pos=\"725\" width=\"160\"/>\\u000a            <hstem pos=\"1520\" width=\"-20\"/>\\u000a            <vstem pos=\"80\" width=\"205\"/>\\u000a            <vstem pos=\"915\" width=\"205\"/>\\u000a          </hintset>\\u000a        </hintSetList>\\u000a      </data>
p7
g4
tp8
Rp9
Ntp10
sVcom.fontlab.ttprogram
p11
(g2
(Vdata
p12
g4
tp13
Rp14
g2
(V<data>\\u000a        <ttProgram>\\u000a          <ttc align=\"round\" code=\"alignh\" point=\"lsb\"/>\\u000a          <ttc align=\"round\" code=\"alignh\" point=\"ah01\"/>\\u000a          <ttc align=\"round\" code=\"singleh\" point1=\"lsb\" point2=\"sh01\"/>\\u000a          <ttc code=\"singleh\" point1=\"sh01\" point2=\"sh02\" stem=\"X: 208\"/>\\u000a          <ttc code=\"singleh\" point1=\"sh02\" point2=\"sh03\"/>\\u000a          <ttc code=\"singleh\" point1=\"ah01\" point2=\"sh04\"/>\\u000a          <ttc code=\"singleh\" point1=\"ah01\" point2=\"sh05\" stem=\"X: 208\"/>\\u000a          <ttc code=\"singleh\" point1=\"sh05\" point2=\"rsb\" round=\"true\"/>\\u000a          <ttc code=\"alignt\" point=\"sh03\" zone=\"t: 1\"/>\\u000a          <ttc code=\"alignt\" point=\"at01\" zone=\"t: 1\"/>\\u000a          <ttc code=\"alignb\" point=\"ah01\" zone=\"b: 0\"/>\\u000a          <ttc code=\"alignb\" point=\"sh02\" zone=\"b: 0\"/>\\u000a          <ttc code=\"doublev\" point1=\"dv01\" point2=\"sh04\" stem=\"Y: 162\"/>\\u000a        </ttProgram>\\u000a      </data>
p15
g4
tp16
Rp17
Ntp18
s."
EndChar
StartChar: Theta
Encoding: 71 920 71
GlifName: T_heta
Width: 1300
VWidth: 0
Flags: W
LayerCount: 2
Fore
SplineSet
412 835 m 257,0,-1
 952 835 l 257,1,-1
 932 665 l 257,2,-1
 392 665 l 257,3,-1
 412 835 l 257,0,-1
676 -17 m 257,4,5
NamedP: "hr01"
 586 -17 586 -17 510.5 10.5 c 128,-1,6
 435 38 435 38 373.5 88.5 c 128,-1,7
 312 139 312 139 266 209 c 128,-1,8
 220 279 220 279 188.5 364.5 c 128,-1,9
 157 450 157 450 141.5 547.5 c 128,-1,10
 126 645 126 645 126 750 c 257,11,12
 126 855 126 855 141 952.5 c 128,-1,13
 156 1050 156 1050 186.5 1135.5 c 128,-1,14
 217 1221 217 1221 262.5 1291 c 128,-1,15
 308 1361 308 1361 369 1411.5 c 128,-1,16
 430 1462 430 1462 507 1489.5 c 128,-1,17
 584 1517 584 1517 676 1517 c 257,18,19
 766 1517 766 1517 841.5 1489.5 c 128,-1,20
 917 1462 917 1462 978.5 1411.5 c 128,-1,21
 1040 1361 1040 1361 1086 1291 c 128,-1,22
 1132 1221 1132 1221 1163.5 1135.5 c 128,-1,23
 1195 1050 1195 1050 1210.5 952.5 c 128,-1,24
 1226 855 1226 855 1226 750 c 257,25,26
 1226 645 1226 645 1211 547.5 c 128,-1,27
 1196 450 1196 450 1165.5 364.5 c 128,-1,28
 1135 279 1135 279 1089.5 209 c 128,-1,29
 1044 139 1044 139 983 88.5 c 128,-1,30
 922 38 922 38 845 10.5 c 128,-1,31
 768 -17 768 -17 676 -17 c 257,4,5
NamedP: "hr01"
1018 719 m 257,32,33
 1018 789 1018 789 1013.5 862 c 128,-1,34
 1009 935 1009 935 995.5 1004.5 c 128,-1,35
 982 1074 982 1074 958 1135.5 c 128,-1,36
 934 1197 934 1197 895.5 1242.5 c 128,-1,37
 857 1288 857 1288 801.5 1315 c 128,-1,38
 746 1342 746 1342 670 1342 c 257,39,40
 598 1342 598 1342 545 1318 c 128,-1,41
 492 1294 492 1294 455 1252.5 c 128,-1,42
 418 1211 418 1211 394 1155.5 c 128,-1,43
 370 1100 370 1100 357 1038 c 128,-1,44
 344 976 344 976 339 911 c 128,-1,45
 334 846 334 846 334 785 c 257,46,47
 334 714 334 714 338.5 640 c 128,-1,48
 343 566 343 566 356.5 496.5 c 128,-1,49
 370 427 370 427 394 365.5 c 128,-1,50
 418 304 418 304 457 258 c 128,-1,51
 496 212 496 212 551 185 c 128,-1,52
 606 158 606 158 682 158 c 257,53,54
 753 158 753 158 805.5 182.5 c 128,-1,55
 858 207 858 207 895.5 249.5 c 128,-1,56
 933 292 933 292 957 347.5 c 128,-1,57
 981 403 981 403 994.5 465.5 c 128,-1,58
 1008 528 1008 528 1013 593 c 128,-1,59
 1018 658 1018 658 1018 719 c 257,32,33
EndSplineSet
PickledDataWithLists: "(dp0
Vcom.adobe.type.autohint
p1
(c_codecs
encode
p2
(Vdata
p3
Vlatin1
p4
tp5
Rp6
g2
(V<data>\\u000a        <hintSetList>\\u000a          <hintset pointTag=\"hr01\">\\u000a            <hstem pos=\"-17\" width=\"170\"/>\\u000a            <hstem pos=\"1347\" width=\"170\"/>\\u000a            <vstem pos=\"124\" width=\"208\"/>\\u000a            <vstem pos=\"1268\" width=\"208\"/>\\u000a          </hintset>\\u000a        </hintSetList>\\u000a      </data>
p7
g4
tp8
Rp9
Ntp10
s."
EndChar
StartChar: Omicron
Encoding: 56 927 56
GlifName: O_micron
Width: 1300
VWidth: 0
Flags: W
LayerCount: 2
Fore
SplineSet
824 -17 m 257,0,1
NamedP: "ab01"
 734 -17 734 -17 658.5 10.5 c 128,-1,2
 583 38 583 38 521.5 88.5 c 128,-1,3
 460 139 460 139 414 209 c 128,-1,4
 368 279 368 279 336.5 364.5 c 128,-1,5
 305 450 305 450 289.5 547.5 c 128,-1,6
 274 645 274 645 274 750 c 257,7,8
NamedP: "sh01"
 274 855 274 855 289 952.5 c 128,-1,9
 304 1050 304 1050 334.5 1135.5 c 128,-1,10
 365 1221 365 1221 410.5 1291 c 128,-1,11
 456 1361 456 1361 517 1411.5 c 128,-1,12
 578 1462 578 1462 655 1489.5 c 128,-1,13
 732 1517 732 1517 824 1517 c 257,14,15
NamedP: "at01"
 914 1517 914 1517 989.5 1489.5 c 128,-1,16
 1065 1462 1065 1462 1126.5 1411.5 c 128,-1,17
 1188 1361 1188 1361 1234 1291 c 128,-1,18
 1280 1221 1280 1221 1311.5 1135.5 c 128,-1,19
 1343 1050 1343 1050 1358.5 952.5 c 128,-1,20
 1374 855 1374 855 1374 750 c 257,21,22
NamedP: "sh02"
 1374 645 1374 645 1359 547.5 c 128,-1,23
 1344 450 1344 450 1313.5 364.5 c 128,-1,24
 1283 279 1283 279 1237.5 209 c 128,-1,25
 1192 139 1192 139 1131 88.5 c 128,-1,26
 1070 38 1070 38 993 10.5 c 128,-1,27
 916 -17 916 -17 824 -17 c 257,0,1
NamedP: "ab01"
1166 719 m 257,28,29
NamedP: "ah01"
 1166 789 1166 789 1161.5 862 c 128,-1,30
 1157 935 1157 935 1143.5 1004.5 c 128,-1,31
 1130 1074 1130 1074 1106 1135.5 c 128,-1,32
 1082 1197 1082 1197 1043.5 1242.5 c 128,-1,33
 1005 1288 1005 1288 949.5 1315 c 128,-1,34
 894 1342 894 1342 818 1342 c 257,35,36
NamedP: "sv01"
 746 1342 746 1342 693 1318 c 128,-1,37
 640 1294 640 1294 603 1252.5 c 128,-1,38
 566 1211 566 1211 542 1155.5 c 128,-1,39
 518 1100 518 1100 505 1038 c 128,-1,40
 492 976 492 976 487 911 c 128,-1,41
 482 846 482 846 482 785 c 257,42,43
NamedP: "sh03"
 482 714 482 714 486.5 640 c 128,-1,44
 491 566 491 566 504.5 496.5 c 128,-1,45
 518 427 518 427 542 365.5 c 128,-1,46
 566 304 566 304 605 258 c 128,-1,47
 644 212 644 212 699 185 c 128,-1,48
 754 158 754 158 830 158 c 257,49,50
NamedP: "sv02"
 901 158 901 158 953.5 182.5 c 128,-1,51
 1006 207 1006 207 1043.5 249.5 c 128,-1,52
 1081 292 1081 292 1105 347.5 c 128,-1,53
 1129 403 1129 403 1142.5 465.5 c 128,-1,54
 1156 528 1156 528 1161 593 c 128,-1,55
 1166 658 1166 658 1166 719 c 257,28,29
NamedP: "ah01"
EndSplineSet
PickledDataWithLists: "(dp0
Vcom.adobe.type.autohint
p1
(c_codecs
encode
p2
(Vdata
p3
Vlatin1
p4
tp5
Rp6
g2
(V<data>\\u000a        <hintSetList>\\u000a          <hintset pointTag=\"ab01\">\\u000a            <hstem pos=\"-17\" width=\"170\"/>\\u000a            <hstem pos=\"1347\" width=\"170\"/>\\u000a            <vstem pos=\"324\" width=\"208\"/>\\u000a            <vstem pos=\"1468\" width=\"208\"/>\\u000a          </hintset>\\u000a        </hintSetList>\\u000a      </data>
p7
g4
tp8
Rp9
Ntp10
sVcom.fontlab.ttprogram
p11
(g2
(Vdata
p12
g4
tp13
Rp14
g2
(V<data>\\u000a        <ttProgram>\\u000a          <ttc align=\"round\" code=\"alignh\" point=\"lsb\"/>\\u000a          <ttc align=\"round\" code=\"alignh\" point=\"ah01\"/>\\u000a          <ttc align=\"round\" code=\"singleh\" point1=\"lsb\" point2=\"sh01\"/>\\u000a          <ttc code=\"singleh\" point1=\"ah01\" point2=\"sh02\" stem=\"X: 208\"/>\\u000a          <ttc code=\"singleh\" point1=\"sh01\" point2=\"sh03\" stem=\"X: 208\"/>\\u000a          <ttc code=\"singleh\" point1=\"sh02\" point2=\"rsb\" round=\"true\"/>\\u000a          <ttc code=\"alignt\" point=\"at01\" zone=\"t: 1\"/>\\u000a          <ttc code=\"alignb\" point=\"ab01\" zone=\"b: 0\"/>\\u000a          <ttc code=\"singlev\" point1=\"at01\" point2=\"sv01\" stem=\"Y: 171\"/>\\u000a          <ttc code=\"singlev\" point1=\"ab01\" point2=\"sv02\" stem=\"Y: 171\"/>\\u000a        </ttProgram>\\u000a      </data>
p15
g4
tp16
Rp17
Ntp18
s."
EndChar
StartChar: alpha
Encoding: 98 945 98
GlifName: alpha
Width: 1300
VWidth: 0
Flags: W
LayerCount: 2
Fore
SplineSet
1027 996 m 257,0,1
 949 938 949 938 945 851 c 256,2,3
 940 753 940 753 940 552 c 256,4,5
 940 346 940 346 945 269 c 256,6,7
 950 203 950 203 981 162 c 0,8,9
 1012 121 1012 121 1050 121 c 256,10,11
 1079 121 1079 121 1106 126 c 257,12,-1
 1159 10 l 257,13,14
 1104 -17 1104 -17 1040 -17 c 256,15,16
 906.5 -17 906.5 -17 839 52 c 257,17,-1
 790 196 l 257,18,-1
 740 84 l 257,19,20
 688 25 688 25 638 4 c 0,21,22
 588 -17 588 -17 519 -17 c 256,23,24
 411 -17 411 -17 329.5 26 c 0,25,26
 248 69 248 69 198.5 147 c 0,27,28
 149 225 149 225 124.5 327 c 0,29,30
 100 429 100 429 100 553 c 256,31,32
 100 678 100 678 123 778.5 c 0,33,34
 146 879 146 879 194.5 956 c 0,35,36
 243 1033 243 1033 325.5 1075 c 0,37,38
 408 1117 408 1117 519 1117 c 256,39,40
 587 1117 587 1117 639 1094 c 0,41,42
 691 1071 691 1071 743 1011 c 257,43,-1
 790 900 l 257,44,-1
 839 1038 l 257,45,46
 874 1070 874 1070 940 1100 c 257,47,-1
 1027 996 l 257,0,1
750 526 m 256,48,49
 750 568 750 568 749.5 598 c 0,50,51
 749 628 749 628 746.5 667.5 c 0,52,53
 744 707 744 707 739.5 735 c 0,54,55
 735 763 735 763 726.5 796 c 0,56,57
 718 829 718 829 706 851.5 c 0,58,59
 694 874 694 874 676 896.5 c 0,60,61
 658 919 658 919 635.5 932 c 0,62,63
 613 945 613 945 582.5 953.5 c 0,64,65
 552 962 552 962 515 962 c 256,66,67
 470 962 470 962 435 950 c 0,68,69
 400 938 400 938 376.5 919.5 c 0,70,71
 353 901 353 901 336.5 869.5 c 0,72,73
 320 838 320 838 311 808.5 c 0,74,75
 302 779 302 779 297 734.5 c 0,76,77
 292 690 292 690 291 656 c 0,78,79
 290 622 290 622 290 572 c 256,80,81
 290 529 290 529 290.5 499.5 c 0,82,83
 291 470 291 470 293.5 430.5 c 0,84,85
 296 391 296 391 300.5 363 c 0,86,87
 305 335 305 335 313.5 302.5 c 0,88,89
 322 270 322 270 333.5 247.5 c 0,90,91
 345 225 345 225 363 203 c 0,92,93
 381 181 381 181 403.5 167.5 c 0,94,95
 426 154 426 154 456 146 c 0,96,97
 486 138 486 138 523 138 c 256,98,99
 567 138 567 138 602 149.5 c 0,100,101
 637 161 637 161 660.5 180 c 0,102,103
 684 199 684 199 701 229.5 c 0,104,105
 718 260 718 260 727.5 290.5 c 0,106,107
 737 321 737 321 742 364 c 0,108,109
 747 407 747 407 748.5 442 c 0,110,111
 750 477 750 477 750 526 c 256,48,49
EndSplineSet
EndChar
StartChar: epsilon
Encoding: 234 949 234
GlifName: epsilon
Width: 1300
VWidth: 0
Flags: W
LayerCount: 2
Fore
SplineSet
920 633 m 257,0,-1
 900 500 l 257,1,-1
 646 500 l 258,2,3
 572 500 572 500 516 445 c 0,4,5
 460 390 460 390 460 312 c 256,6,7
 460 234 460 234 531.5 185.5 c 0,8,9
 603 137 603 137 715 137 c 256,10,11
 759 137 759 137 800 143.5 c 0,12,13
 841 150 841 150 868 159.5 c 0,14,15
 895 169 895 169 915.5 178 c 0,16,17
 936 187 936 187 945.5 193.5 c 0,18,-1
 955 200 l 257,19,-1
 1045 99 l 257,20,21
 1041 94 1041 94 1033.5 86.5 c 0,22,23
 1026 79 1026 79 995.5 59 c 0,24,25
 965 39 965 39 927 23.5 c 0,26,27
 889 8 889 8 821.5 -4.5 c 0,28,29
 754 -17 754 -17 675 -17 c 256,30,31
 604 -17 604 -17 534 4 c 0,32,33
 464 25 464 25 404 64 c 0,34,35
 344 103 344 103 307 168 c 0,36,37
 270 233 270 233 270 313 c 256,38,39
 270 476 270 476 399 564 c 257,40,41
 270 648 270 648 270 810 c 256,42,43
 270 890 270 890 307 951.5 c 0,44,45
 344 1013 344 1013 404.5 1048 c 0,46,47
 465 1083 465 1083 533.5 1100 c 0,48,49
 602 1117 602 1117 675 1117 c 256,50,51
 742 1117 742 1117 811.5 1103.5 c 0,52,53
 881 1090 881 1090 917.5 1077 c 0,54,-1
 954 1064 l 257,55,-1
 898 944 l 257,56,57
 815 963 815 963 715 963 c 256,58,59
 605 963 605 963 532.5 913 c 0,60,61
 460 863 460 863 460 791 c 256,62,63
 460 727 460 727 515.5 680 c 0,64,65
 571 633 571 633 646 633 c 258,66,-1
 920 633 l 257,0,-1
EndSplineSet
EndChar
StartChar: eta
Encoding: 239 951 239
GlifName: eta
Width: 1300
VWidth: 0
Flags: W
LayerCount: 2
Fore
SplineSet
390 0 m 257,0,-1
NamedP: "hr00"
 200 0 l 257,1,-1
 200 1100 l 257,2,-1
 390 1120 l 257,3,-1
 390 937 l 257,4,-1
 451 1044 l 257,5,6
 493 1072 493 1072 566 1094.5 c 0,7,8
 639 1117 639 1117 715 1117 c 256,9,10
 867 1117 867 1117 933.5 1022.5 c 0,11,12
 1000 928 1000 928 1000 750 c 258,13,-1
 1000 -500 l 257,14,-1
 810 -500 l 257,15,-1
 810 750 l 258,16,17
 810 861 810 861 775.5 909 c 0,18,19
 741 957 741 957 650 957 c 256,20,21
 545 957 545 957 390 844 c 257,22,-1
 390 0 l 257,0,-1
NamedP: "hr00"
EndSplineSet
PickledDataWithLists: "(dp0
Vcom.adobe.type.autohint
p1
(c_codecs
encode
p2
(Vdata
p3
Vlatin1
p4
tp5
Rp6
g2
(V<data>\\u000a        <hintSetList>\\u000a          <hintset pointTag=\"hr00\">\\u000a            <hstem pos=\"-379\" width=\"-21\"/>\\u000a            <hstem pos=\"21\" width=\"-21\"/>\\u000a            <hstem pos=\"978\" width=\"142\"/>\\u000a            <vstem pos=\"200\" width=\"180\"/>\\u000a            <vstem pos=\"820\" width=\"180\"/>\\u000a          </hintset>\\u000a        </hintSetList>\\u000a      </data>
p7
g4
tp8
Rp9
Ntp10
s."
EndChar
StartChar: pi
Encoding: 381 960 381
GlifName: pi
Width: 1300
VWidth: 0
Flags: W
LayerCount: 2
Fore
SplineSet
1099 950 m 257,0,-1
NamedP: "hr00"
 1119 1100 l 257,1,-1
 178 1100 l 258,2,3
 92 1100 92 1100 31 1068 c 257,4,-1
 111 942 l 257,5,6
 150 954 150 954 180 954 c 256,7,8
 205 954 205 954 224 946.5 c 0,9,10
 243 939 243 939 255.5 927.5 c 0,11,12
 268 916 268 916 276.5 894.5 c 0,13,14
 285 873 285 873 289.5 855 c 0,15,16
 294 837 294 837 296.5 805.5 c 0,17,18
 299 774 299 774 299.5 752.5 c 0,19,20
 300 731 300 731 300 694 c 258,21,-1
 300 0 l 257,22,-1
 480 0 l 257,23,-1
 480 787 l 257,24,-1
 420 950 l 257,25,-1
 800 950 l 257,26,-1
 800 403 l 258,27,28
 800 346 800 346 802.5 304 c 0,29,30
 805 262 805 262 812.5 216 c 0,31,32
 820 170 820 170 833 137.5 c 0,33,34
 846 105 846 105 868.5 74 c 0,35,36
 891 43 891 43 922 24 c 0,37,38
 953 5 953 5 998 -6 c 0,39,40
 1043 -17 1043 -17 1100 -17 c 256,41,42
 1188 -17 1188 -17 1249 15 c 257,43,-1
 1169 141 l 257,44,45
 1130 129 1130 129 1100 129 c 256,46,47
 1075 129 1075 129 1056 136.5 c 0,48,49
 1037 144 1037 144 1024.5 155.5 c 0,50,51
 1012 167 1012 167 1003.5 188.5 c 0,52,53
 995 210 995 210 990.5 228 c 0,54,55
 986 246 986 246 983.5 277.5 c 0,56,57
 981 309 981 309 980.5 330.5 c 0,58,59
 980 352 980 352 980 389 c 258,60,-1
 980 950 l 257,61,-1
 1099 950 l 257,0,-1
NamedP: "hr00"
EndSplineSet
PickledDataWithLists: "(dp0
Vcom.adobe.type.autohint
p1
(c_codecs
encode
p2
(Vdata
p3
Vlatin1
p4
tp5
Rp6
g2
(V<data>\\u000a        <hintSetList>\\u000a          <hintset pointTag=\"hr00\">\\u000a            <hstem pos=\"-13\" width=\"146\"/>\\u000a            <hstem pos=\"950\" width=\"150\"/>\\u000a            <vstem pos=\"300\" width=\"180\"/>\\u000a            <vstem pos=\"800\" width=\"180\"/>\\u000a          </hintset>\\u000a        </hintSetList>\\u000a      </data>
p7
g4
tp8
Rp9
Ntp10
s."
EndChar
StartChar: sigma1
Encoding: 445 962 445
GlifName: sigma1
Width: 1300
VWidth: 0
Flags: W
LayerCount: 2
Fore
SplineSet
800 885 m 257,0,1
 669 885 669 885 567 860 c 0,2,3
 465 835 465 835 400 793.5 c 0,4,5
 335 752 335 752 292.5 693.5 c 0,6,7
 250 635 250 635 233 572 c 0,8,9
 216 509 216 509 216 437 c 256,10,11
 216 366 216 366 242 300.5 c 0,12,13
 268 235 268 235 312 184 c 0,14,15
 356 133 356 133 402.5 96 c 0,16,17
 449 59 449 59 500 30 c 256,18,19
 530 13 530 13 587 -16 c 0,20,21
 644 -45 644 -45 672.5 -62 c 0,22,23
 701 -79 701 -79 735.5 -105 c 0,24,25
 770 -131 770 -131 785 -159.5 c 0,26,27
 800 -188 800 -188 800 -222 c 256,28,29
 800 -305 800 -305 644 -386 c 257,30,-1
 734 -517 l 257,31,32
 850 -465 850 -465 923 -382 c 0,33,34
 996 -299 996 -299 996 -203 c 256,35,36
 996 -160 996 -160 985.5 -124 c 0,37,38
 975 -88 975 -88 953 -58.5 c 0,39,40
 931 -29 931 -29 907 -6.5 c 0,41,42
 883 16 883 16 845 39.5 c 0,43,44
 807 63 807 63 776 79.5 c 0,45,46
 745 96 745 96 697 121 c 0,47,48
 649 146 649 146 617 164 c 256,49,50
 519 220 519 220 470 296 c 0,51,52
 421 372 421 372 421 447 c 256,53,54
 421 504 421 504 437.5 549 c 0,55,56
 454 594 454 594 480.5 624 c 0,57,58
 507 654 507 654 548 676 c 0,59,60
 589 698 589 698 628.5 710 c 0,61,62
 668 722 668 722 720.5 729 c 0,63,64
 773 736 773 736 813 737.5 c 0,65,66
 853 739 853 739 905 739 c 257,67,-1
 930 885 l 257,68,-1
 800 885 l 257,0,1
EndSplineSet
EndChar
StartChar: sigma
Encoding: 444 963 444
GlifName: sigma
Width: 1300
VWidth: 0
Flags: W
LayerCount: 2
Fore
SplineSet
100 551 m 256,0,1
NamedP: "+BCoHFADI"
 100 643 100 643 118 725.5 c 0,2,3
 136 808 136 808 175.5 880.5 c 0,4,5
 215 953 215 953 273 1006 c 0,6,7
 331 1059 331 1059 414.5 1089.5 c 0,8,9
 498 1120 498 1120 600 1120 c 258,10,-1
 1200 1120 l 257,11,-1
 1200 980 l 257,12,-1
 1100 980 l 257,13,-1
 933 995 l 257,14,-1
 1038 853 l 257,15,16
 1100 722 1100 722 1100 551 c 256,17,18
 1100 432 1100 432 1070.5 331 c 0,19,20
 1041 230 1041 230 981.5 151 c 0,21,22
 922 72 922 72 824.5 27.5 c 0,23,24
 727 -17 727 -17 600 -17 c 256,25,26
 498 -17 498 -17 414 13.5 c 0,27,28
 330 44 330 44 272.5 97 c 0,29,30
 215 150 215 150 175.5 222.5 c 0,31,32
 136 295 136 295 118 377.5 c 0,33,34
 100 460 100 460 100 551 c 256,0,1
NamedP: "+BCoHFADI"
270 551 m 256,35,36
 270 488 270 488 282.5 427.5 c 0,37,38
 295 367 295 367 321.5 311.5 c 0,39,40
 348 256 348 256 386 214.5 c 0,41,42
 424 173 424 173 479.5 148 c 0,43,44
 535 123 535 123 600 123 c 256,45,46
 665 123 665 123 720.5 148 c 0,47,48
 776 173 776 173 814 214.5 c 0,49,50
 852 256 852 256 878.5 311.5 c 0,51,52
 905 367 905 367 917.5 427.5 c 0,53,54
 930 488 930 488 930 551 c 256,55,56
 930 631 930 631 909.5 706 c 0,57,58
 889 781 889 781 850 843.5 c 0,59,60
 811 906 811 906 746 943.5 c 0,61,62
 681 981 681 981 600 981 c 256,63,64
 519 981 519 981 454 943 c 0,65,66
 389 905 389 905 350 842 c 0,67,68
 311 779 311 779 290.5 704.5 c 0,69,70
 270 630 270 630 270 551 c 256,35,36
EndSplineSet
PickledDataWithLists: "(dp0
Vcom.adobe.type.autohint
p1
(c_codecs
encode
p2
(Vdata
p3
Vlatin1
p4
tp5
Rp6
g2
(V<data>\\u000a        <hintSetList>\\u000a          <hintset pointTag=\"hr00\">\\u000a            <hstem pos=\"-20\" width=\"140\"/>\\u000a            <hstem pos=\"980\" width=\"140\"/>\\u000a            <vstem pos=\"100\" width=\"170\"/>\\u000a            <vstem pos=\"930\" width=\"170\"/>\\u000a          </hintset>\\u000a        </hintSetList>\\u000a      </data>
p7
g4
tp8
Rp9
Ntp10
s."
EndChar
StartChar: phi
Encoding: 376 966 376
GlifName: phi
Width: 1300
VWidth: 0
Flags: W
LayerCount: 2
Fore
SplineSet
551 1100 m 257,0,-1
 551 997 l 257,1,2
 487 990 487 990 421 971 c 256,3,4
 262 925 262 925 181 806 c 0,5,6
 100 687 100 687 100 500 c 256,7,8
 100 124 100 124 421 29 c 256,9,10
 484 11 484 11 551 2 c 257,11,-1
 551 -500 l 257,12,-1
 743 -500 l 257,13,-1
 743 2 l 257,14,15
 813 11 813 11 875 30 c 257,16,17
 1197 124 1197 124 1197 500 c 256,18,19
 1197 687 1197 687 1115 806 c 0,20,21
 1033 925 1033 925 874 971 c 256,22,23
 815 989 815 989 743 997 c 257,24,-1
 743 1120 l 257,25,-1
 551 1100 l 257,0,-1
743 854 m 257,26,27
 1027 818 1027 818 1027 500 c 256,28,29
 1027 186 1027 186 743 145 c 257,30,-1
 743 854 l 257,26,27
551 854 m 257,31,-1
 551 145 l 257,32,33
 269 185 269 185 269 500 c 256,34,35
 269 816 269 816 551 854 c 257,31,-1
EndSplineSet
EndChar
StartChar: chi
Encoding: 173 967 173
GlifName: chi
Width: 1300
VWidth: 0
Flags: W
LayerCount: 2
Fore
SplineSet
691 53 m 257,0,-1
NamedP: "hr00"
 614 230 l 257,1,-1
 566 70 l 257,2,-1
 301 -500 l 257,3,-1
 103 -500 l 257,4,-1
 523 329 l 257,5,-1
 268 869 l 257,6,7
 240 917 240 917 210.5 946.5 c 0,8,9
 181 976 181 976 165.5 981.5 c 0,10,-1
 150 987 l 257,11,-1
 150 1117 l 257,12,13
 192 1117 192 1117 227.5 1109.5 c 0,14,15
 263 1102 263 1102 302 1082 c 0,16,17
 341 1062 341 1062 375.5 1021.5 c 0,18,19
 410 981 410 981 437 921 c 258,20,-1
 674 392 l 257,21,-1
 705 550 l 257,22,-1
 953 1100 l 257,23,-1
 1153 1100 l 257,24,-1
 758 306 l 257,25,-1
 1031 -265 l 257,26,27
 1058 -313 1058 -313 1088 -342.5 c 0,28,29
 1118 -372 1118 -372 1134 -377.5 c 0,30,-1
 1150 -383 l 257,31,-1
 1150 -517 l 257,32,33
 1116 -517 1116 -517 1090 -514 c 0,34,35
 1064 -511 1064 -511 1032.5 -500 c 0,36,37
 1001 -489 1001 -489 974.5 -470 c 0,38,39
 948 -451 948 -451 918.5 -417 c 0,40,41
 889 -383 889 -383 862 -336 c 257,42,-1
 691 53 l 257,0,-1
NamedP: "hr00"
EndSplineSet
PickledDataWithLists: "(dp0
Vcom.adobe.type.autohint
p1
(c_codecs
encode
p2
(Vdata
p3
Vlatin1
p4
tp5
Rp6
g2
(V<data>\\u000a        <hintSetList>\\u000a          <hintset pointTag=\"hr00\">\\u000a            <hstem pos=\"1520\" width=\"-20\"/>\\u000a          </hintset>\\u000a        </hintSetList>\\u000a      </data>
p7
g4
tp8
Rp9
Ntp10
s."
EndChar
